<?xml version="1.0" encoding="UTF-8"?>
<svg id="b" data-name="Finished icons" xmlns="http://www.w3.org/2000/svg" xmlns:xlink="http://www.w3.org/1999/xlink" viewBox="0 0 500 500">
  <defs>
    <style>
      .e {
        fill: #2c5417;
      }

      .f {
        fill: #457f2d;
      }

      .g {
        clip-path: url(#d);
      }

      .h {
        fill: #66a048;
      }

      .i {
        fill: #78bc61;
      }

      .j {
        clip-path: url(#c);
      }
    </style>
    <clipPath id="c">
      <path class="i" d="M427.15,147.3H72.85c-6.63,0-12.02,5.38-12.02,12.02v181.36c0,6.64,5.39,12.02,12.02,12.02h354.3c6.63,0,12.02-5.38,12.02-12.02v-181.36c0-6.64-5.39-12.02-12.02-12.02ZM234.85,327.08c-36.13-7.05-63.4-38.88-63.4-77.08s27.27-70.03,63.4-77.08h30.3c36.13,7.05,63.4,38.88,63.4,77.08s-27.27,70.03-63.4,77.08h-30.3Z"/>
    </clipPath>
    <clipPath id="d">
      <path class="i" d="M328.55,250c0,38.2-27.27,70.03-63.4,77.08h-30.3c-36.13-7.05-63.4-38.88-63.4-77.08s27.27-70.03,63.4-77.08h30.3c36.13,7.05,63.4,38.88,63.4,77.08Z"/>
    </clipPath>
  </defs>
  <g>
    <g>
      <path class="i" d="M427.15,147.3H72.85c-6.63,0-12.02,5.38-12.02,12.02v181.36c0,6.64,5.39,12.02,12.02,12.02h354.3c6.63,0,12.02-5.38,12.02-12.02v-181.36c0-6.64-5.39-12.02-12.02-12.02ZM234.85,327.08c-36.13-7.05-63.4-38.88-63.4-77.08s27.27-70.03,63.4-77.08h30.3c36.13,7.05,63.4,38.88,63.4,77.08s-27.27,70.03-63.4,77.08h-30.3Z"/>
      <g class="j">
        <rect class="h" x="250" y="60.83" width="211.5" height="381.97"/>
      </g>
    </g>
    <path class="f" d="M171.45,250c0,38.2,27.27,70.03,63.4,77.08h-115.74c0-16.96-13.74-30.7-30.7-30.7v-92.76c16.96,0,30.7-13.74,30.7-30.7h115.74c-36.13,7.05-63.4,38.88-63.4,77.08Z"/>
    <path class="e" d="M411.59,203.62v92.76c-16.96,0-30.7,13.74-30.7,30.7h-115.74c36.13-7.05,63.4-38.88,63.4-77.08s-27.27-70.03-63.4-77.08h115.74c0,16.96,13.74,30.7,30.7,30.7Z"/>
    <g>
      <path class="i" d="M328.55,250c0,38.2-27.27,70.03-63.4,77.08h-30.3c-36.13-7.05-63.4-38.88-63.4-77.08s27.27-70.03,63.4-77.08h30.3c36.13,7.05,63.4,38.88,63.4,77.08Z"/>
      <g class="g">
        <rect class="h" x="250" y="60.83" width="211.5" height="381.97"/>
      </g>
    </g>
  </g>
  <g>
    <path d="M443.67,357.2h-254.26v-9h245.26v-196.4H65.33v196.4h57.37v9H56.33v-214.4h387.33v214.4ZM158.63,357.2h-21.79v-9h21.79v9ZM265.58,331.58h-31.17l-.43-.08c-38.84-7.58-67.04-41.85-67.04-81.5s28.19-73.92,67.04-81.5l.43-.08h31.17l.43.08c38.84,7.58,67.04,41.85,67.04,81.5s-28.19,73.92-67.04,81.5l-.43.08ZM235.29,322.58h29.42c34.41-6.92,59.34-37.38,59.34-72.58s-24.93-65.66-59.34-72.58h-29.42c-34.41,6.92-59.34,37.38-59.34,72.58s24.93,65.66,59.34,72.58Z"/>
    <path d="M187.2,331.58h-72.59v-4.5c0-14.45-11.75-26.2-26.2-26.2h-4.5v-101.76h4.5c14.45,0,26.2-11.75,26.2-26.2v-4.5h120.24l.86,8.92c-34.63,6.76-59.76,37.32-59.76,72.66s25.13,65.91,59.76,72.66l-1.72,8.83c-38.84-7.58-67.04-41.85-67.04-81.5,0-30.73,16.94-58.24,42.65-72.58h-86.28c-2.03,15.82-14.6,28.39-30.41,30.41v84.33c15.82,2.03,28.39,14.6,30.41,30.41h63.87v9Z"/>
    <path d="M385.39,331.58h-120.24l-.86-8.92c34.63-6.76,59.76-37.32,59.76-72.66s-25.13-65.91-59.76-72.66l1.72-8.83c38.84,7.58,67.04,41.85,67.04,81.5,0,30.73-16.94,58.24-42.65,72.58h86.28c2.03-15.82,14.6-28.39,30.41-30.41v-84.33c-15.82-2.03-28.39-14.6-30.41-30.41h-64.47v-9h73.19v4.5c0,14.45,11.75,26.2,26.2,26.2h4.5v101.76h-4.5c-14.45,0-26.2,11.75-26.2,26.2v4.5Z"/>
    <g>
      <path d="M222.12,220.96v56.92h-14.2v-30.52c0-4.41-.11-7.05-.32-7.95-.21-.89-.79-1.56-1.74-2.02s-3.06-.69-6.35-.69h-1.41v-6.64c6.87-1.48,12.08-4.52,15.64-9.11h8.37Z"/>
      <path d="M261.14,240.22v18.98c0,4.31-.23,7.45-.7,9.42s-1.44,3.81-2.92,5.52c-1.48,1.71-3.26,2.94-5.34,3.69s-4.42,1.12-7,1.12c-3.4,0-6.22-.39-8.47-1.18s-4.04-2.01-5.38-3.67c-1.34-1.66-2.29-3.42-2.85-5.26-.56-1.84-.84-4.76-.84-8.77v-19.86c0-5.23.45-9.14,1.35-11.74s2.7-4.69,5.38-6.26c2.68-1.57,5.94-2.36,9.76-2.36,3.12,0,5.91.54,8.37,1.63s4.3,2.42,5.52,3.99c1.22,1.57,2.04,3.34,2.48,5.31s.65,5.11.65,9.42ZM246.94,235.44c0-3.02-.15-4.92-.44-5.68-.29-.76-.98-1.14-2.06-1.14s-1.75.4-2.09,1.21-.51,2.68-.51,5.61v27.77c0,3.3.16,5.3.47,5.98.32.68,1,1.02,2.06,1.02s1.75-.4,2.07-1.2c.33-.8.49-2.59.49-5.38v-28.2Z"/>
      <path d="M299.75,240.22v18.98c0,4.31-.23,7.45-.7,9.42s-1.44,3.81-2.92,5.52c-1.48,1.71-3.26,2.94-5.34,3.69s-4.42,1.12-7,1.12c-3.4,0-6.22-.39-8.47-1.18s-4.04-2.01-5.38-3.67c-1.34-1.66-2.29-3.42-2.85-5.26-.56-1.84-.84-4.76-.84-8.77v-19.86c0-5.23.45-9.14,1.35-11.74s2.7-4.69,5.38-6.26c2.68-1.57,5.94-2.36,9.76-2.36,3.12,0,5.91.54,8.37,1.63s4.3,2.42,5.52,3.99c1.22,1.57,2.04,3.34,2.48,5.31s.65,5.11.65,9.42ZM285.54,235.44c0-3.02-.15-4.92-.44-5.68-.29-.76-.98-1.14-2.06-1.14s-1.75.4-2.09,1.21-.51,2.68-.51,5.61v27.77c0,3.3.16,5.3.47,5.98.32.68,1,1.02,2.06,1.02s1.75-.4,2.07-1.2c.33-.8.49-2.59.49-5.38v-28.2Z"/>
    </g>
  </g>
</svg>