<?xml version="1.0" encoding="UTF-8"?>
<svg id="b" data-name="Finished icons" xmlns="http://www.w3.org/2000/svg" xmlns:xlink="http://www.w3.org/1999/xlink" viewBox="0 0 500 500">
  <defs>
    <style>
      .e {
        fill: #ea4242;
      }

      .f {
        fill: #870000;
      }

      .g {
        fill: #d89f00;
      }

      .h {
        fill: #b20000;
      }

      .i {
        clip-path: url(#d);
      }

      .j {
        fill: #e00000;
      }

      .k {
        fill: #ffc200;
      }

      .l {
        clip-path: url(#c);
      }
    </style>
    <clipPath id="c">
      <path class="j" d="M437.9,232.51c-11.51-7.55-24.96-13.57-39.73-17.65v-28.5c-39.15-14.7-91.11-23.66-148.12-23.66s-108.97,8.96-148.11,23.66v28.47c-14.82,4.09-28.31,10.12-39.85,17.69,22.42,21.76,21.64,57.15,0,104.8,22.41-14.7,52.15-23.66,84.78-23.66v-35.56c30.79-6.76,65.91-10.59,103.18-10.59s72.31,3.82,103.07,10.57v35.59c32.63,0,62.37,8.96,84.78,23.66-21.64-47.65-22.42-83.04,0-104.8Z"/>
    </clipPath>
    <clipPath id="d">
      <path class="k" d="M254.13,179.26l4.08,12.54c1.96,6.04,7.58,10.12,13.93,10.12h13.19c4.2,0,5.95,5.38,2.55,7.85l-10.67,7.75c-5.13,3.73-7.28,10.34-5.32,16.38l4.08,12.54c1.3,4-3.28,7.32-6.68,4.85l-10.67-7.75c-5.13-3.73-12.09-3.73-17.22,0l-10.67,7.75c-3.4,2.47-7.98-.85-6.68-4.85l4.08-12.54c1.96-6.04-.19-12.65-5.32-16.38l-10.67-7.75c-3.4-2.47-1.65-7.85,2.55-7.85h13.19c6.35,0,11.97-4.09,13.93-10.12l4.08-12.54c1.3-4,6.96-4,8.25,0Z"/>
    </clipPath>
  </defs>
  <g>
    <path class="j" d="M437.9,232.51c-11.51-7.55-24.96-13.57-39.73-17.65v-28.5c-39.15-14.7-91.11-23.66-148.12-23.66s-108.97,8.96-148.11,23.66v28.47c-14.82,4.09-28.31,10.12-39.85,17.69,22.42,21.76,21.64,57.15,0,104.8,22.41-14.7,52.15-23.66,84.78-23.66v-35.56c30.79-6.76,65.91-10.59,103.18-10.59s72.31,3.82,103.07,10.57v35.59c32.63,0,62.37,8.96,84.78,23.66-21.64-47.65-22.42-83.04,0-104.8Z"/>
    <g class="l">
      <rect class="h" x="249.34" y="60.83" width="189.17" height="378.33"/>
      <polygon class="f" points="390.75 287.09 350.41 275.64 350.41 355.74 462.31 355.74 462.31 200.55 397.53 200.55 397.53 287.09 390.75 287.09"/>
      <polygon class="e" points="109.72 287.09 146.88 312.45 150.06 355.74 38.16 355.74 38.16 200.55 102.95 200.55 102.95 287.09 109.72 287.09"/>
    </g>
  </g>
  <g>
    <path class="g" d="M353.47,197.82l.96,7.44c.81,6.27,5.54,11.32,11.75,12.51l7.37,1.42c3.92.76,4.59,6.08.98,7.79l-6.78,3.21c-5.71,2.7-9.05,8.77-8.27,15.04l.92,7.44c.49,3.96-4.37,6.25-7.11,3.34l-5.15-5.46c-4.34-4.6-11.14-5.9-16.86-3.22l-6.79,3.18c-3.62,1.69-7.29-2.22-5.38-5.72l3.6-6.58c3.03-5.55,2.17-12.41-2.15-17.03l-5.12-5.48c-2.73-2.92-.14-7.62,3.78-6.88l7.37,1.39c6.21,1.17,12.47-1.78,15.53-7.31l3.63-6.57c1.93-3.49,7.21-2.49,7.71,1.47Z"/>
    <path class="k" d="M146.53,197.82l-.96,7.44c-.81,6.27-5.54,11.32-11.75,12.51l-7.37,1.42c-3.92.76-4.59,6.08-.98,7.79l6.78,3.21c5.71,2.7,9.05,8.77,8.27,15.04l-.92,7.44c-.49,3.96,4.37,6.25,7.11,3.34l5.15-5.46c4.34-4.6,11.14-5.9,16.86-3.22l6.79,3.18c3.62,1.69,7.29-2.22,5.38-5.72l-3.6-6.58c-3.03-5.55-2.17-12.41,2.15-17.03l5.12-5.48c2.73-2.92.14-7.62-3.78-6.88l-7.37,1.39c-6.21,1.17-12.47-1.78-15.53-7.31l-3.63-6.57c-1.93-3.49-7.21-2.49-7.71,1.47Z"/>
    <g>
      <path class="k" d="M254.13,179.26l4.08,12.54c1.96,6.04,7.58,10.12,13.93,10.12h13.19c4.2,0,5.95,5.38,2.55,7.85l-10.67,7.75c-5.13,3.73-7.28,10.34-5.32,16.38l4.08,12.54c1.3,4-3.28,7.32-6.68,4.85l-10.67-7.75c-5.13-3.73-12.09-3.73-17.22,0l-10.67,7.75c-3.4,2.47-7.98-.85-6.68-4.85l4.08-12.54c1.96-6.04-.19-12.65-5.32-16.38l-10.67-7.75c-3.4-2.47-1.65-7.85,2.55-7.85h13.19c6.35,0,11.97-4.09,13.93-10.12l4.08-12.54c1.3-4,6.96-4,8.25,0Z"/>
      <g class="i">
        <rect class="g" x="249.34" y="60.83" width="189.17" height="378.33"/>
      </g>
    </g>
  </g>
  <g>
    <path d="M352.44,177.71c-6.35-1.4-12.94-2.68-19.58-3.8l1.51-8.87c6.78,1.15,13.51,2.46,20,3.89l-1.93,8.79Z"/>
    <path d="M396.59,295.36c-40.14-15.07-92.18-23.37-146.54-23.37s-106.4,8.3-146.53,23.37l-6.08-4.21v-104.8l2.92-4.21c41.12-15.44,94.28-23.95,149.69-23.95,20.62,0,41.04,1.17,60.7,3.47l-1.05,8.94c-19.32-2.26-39.39-3.41-59.66-3.41-53.05,0-103.89,7.91-143.61,22.3v95.25c40.21-14.05,90.89-21.74,143.61-21.74s103.4,7.7,143.62,21.75v-95.25c-7.86-2.85-16.27-5.48-25.03-7.83l2.33-8.69c10.13,2.72,19.82,5.8,28.78,9.17l2.92,4.21v104.8l-6.08,4.21Z"/>
    <g>
      <path d="M356.49,316.63l-6.73-5.97c9.03-10.18,23.69-23.78,46.6-24.32l.21,9c-14.97.35-27.33,6.92-40.08,21.29Z"/>
      <path d="M435.43,341.07c-22.53-14.78-51.77-22.92-82.31-22.92l-4.5-4.5v-36.69h9v32.25c25.56.64,50.13,6.71,70.85,17.41-16.13-41.02-15.33-72.29,2.41-93.18-10.48-6.23-22.22-11.12-34.98-14.55l2.34-8.69c15.56,4.18,29.74,10.43,42.13,18.56l.67,6.99c-20.41,19.82-20.09,53.36.96,99.71l-6.57,5.62Z"/>
    </g>
    <g>
      <path d="M143.51,316.63c-12.75-14.37-25.12-20.94-40.08-21.29l.21-9c22.91.54,37.57,14.14,46.6,24.32l-6.73,5.97Z"/>
      <path d="M64.57,341.07l-6.57-5.62c21.05-46.35,21.37-79.9.96-99.71l.67-6.99c12.39-8.13,26.57-14.37,42.13-18.56l2.34,8.69c-12.76,3.43-24.5,8.31-34.98,14.55,17.73,20.89,18.54,52.17,2.41,93.18,20.72-10.7,45.29-16.77,70.85-17.41v-19.25h9v23.69l-4.5,4.5c-30.54,0-59.78,8.14-82.31,22.92Z"/>
    </g>
  </g>
  <g>
    <g>
      <path d="M356.45,261.85c-2.3,0-4.54-.94-6.23-2.73l-9.73-10.32c-.27-.29-.69-.37-1.04-.2l-12.85,6.01c-3.44,1.61-7.35.86-9.95-1.91-2.6-2.77-3.1-6.72-1.28-10.05l6.81-12.44c.19-.34.13-.77-.13-1.05l-9.69-10.36c-2.6-2.78-3.09-6.72-1.26-10.05,1.83-3.33,5.43-5.04,9.16-4.32l13.94,2.63c.39.07.77-.11.96-.45l6.86-12.41c1.84-3.33,5.43-5.02,9.17-4.3,3.73.71,6.46,3.61,6.94,7.38l1.81,14.07c.05.39.34.7.73.78l13.93,2.69c3.73.72,6.45,3.62,6.93,7.39.48,3.77-1.43,7.26-4.87,8.89l-12.82,6.07c-.35.17-.56.54-.51.93l1.75,14.08c.47,3.77-1.45,7.25-4.89,8.87-1.21.57-2.48.85-3.73.85ZM339.84,239.51c2.67,0,5.28,1.08,7.2,3.11l8.96,9.5-1.61-12.96c-.53-4.25,1.72-8.34,5.59-10.17l11.8-5.59-12.82-2.48c-4.21-.81-7.4-4.21-7.95-8.46l-1.67-12.95-6.32,11.43c-2.07,3.75-6.3,5.74-10.5,4.94l-12.83-2.42,8.92,9.54c2.93,3.13,3.51,7.76,1.46,11.52l-6.27,11.46,11.83-5.53c1.35-.63,2.78-.94,4.2-.94Z"/>
      <path d="M143.55,261.85c-1.25,0-2.52-.28-3.73-.85-3.44-1.62-5.36-5.1-4.89-8.87l1.75-14.08c.05-.39-.16-.76-.51-.93l-12.82-6.07c-3.44-1.63-5.35-5.11-4.87-8.89.48-3.77,3.2-6.67,6.93-7.39l13.93-2.69c.38-.08.68-.39.73-.77l1.81-14.07c.48-3.77,3.21-6.67,6.94-7.38,3.74-.71,7.33.98,9.17,4.3l6.86,12.41c.19.34.58.52.96.45l13.94-2.63c3.73-.71,7.33.99,9.16,4.32,1.83,3.33,1.34,7.28-1.26,10.05l-9.69,10.36c-.27.29-.32.71-.13,1.06l6.8,12.44c1.82,3.33,1.32,7.28-1.28,10.05-2.6,2.77-6.51,3.52-9.95,1.91l-12.85-6.01c-.35-.17-.78-.09-1.04.2l-9.73,10.32c-1.69,1.79-3.93,2.73-6.23,2.73ZM128.21,223.4l11.8,5.59c3.87,1.83,6.12,5.92,5.59,10.17l-1.61,12.96,8.96-9.5c2.94-3.12,7.52-3.99,11.41-2.18l11.83,5.53-6.27-11.46c-2.06-3.76-1.47-8.39,1.46-11.52l8.92-9.54-12.83,2.42c-4.21.79-8.43-1.19-10.5-4.94l-6.32-11.43-1.67,12.95c-.54,4.25-3.74,7.65-7.95,8.46l-12.82,2.48Z"/>
    </g>
    <path d="M228.17,256.66c-1.81,0-3.62-.57-5.19-1.72-3.16-2.29-4.42-6.17-3.21-9.88l5.8-17.85c.33-1.02-.03-2.13-.89-2.75l-15.18-11.03c-3.16-2.29-4.42-6.17-3.21-9.88s4.51-6.11,8.41-6.11h18.77c1.07,0,2.01-.68,2.34-1.7l5.8-17.85c1.21-3.71,4.51-6.11,8.41-6.11s7.2,2.4,8.41,6.11l5.8,17.85c.33,1.02,1.27,1.7,2.34,1.7h18.77c3.9,0,7.2,2.4,8.41,6.11s-.05,7.59-3.21,9.88l-15.19,11.03c-.87.63-1.23,1.74-.89,2.75l5.8,17.85c1.21,3.71-.05,7.59-3.21,9.88-3.16,2.29-7.24,2.29-10.39,0l-15.18-11.03c-.87-.63-2.03-.63-2.9,0l-15.19,11.03c-1.58,1.15-3.39,1.72-5.2,1.72ZM250,234.43c2.36,0,4.72.73,6.74,2.2l14.78,10.74-5.65-17.38c-1.54-4.74.13-9.89,4.16-12.82l14.79-10.74h-18.28c-4.98,0-9.36-3.18-10.9-7.92l-5.65-17.38-5.65,17.38c-1.54,4.74-5.92,7.92-10.9,7.92h-18.27l14.78,10.74c4.03,2.93,5.7,8.08,4.16,12.82l-5.65,17.38,14.79-10.74c2.01-1.46,4.38-2.2,6.74-2.2Z"/>
  </g>
</svg>