<?xml version="1.0" encoding="UTF-8"?>
<svg id="b" data-name="Finished icons" xmlns="http://www.w3.org/2000/svg" xmlns:xlink="http://www.w3.org/1999/xlink" viewBox="0 0 500 500">
  <defs>
    <style>
      .f {
        fill: #000500;
      }

      .g {
        fill: #00c9ad;
      }

      .h {
        fill: #d8cdc0;
      }

      .i {
        fill: #fff6ea;
      }

      .j {
        fill: #d89f00;
      }

      .k {
        fill: #ffd150;
      }

      .l {
        fill: #00af91;
      }

      .m {
        clip-path: url(#d);
      }

      .n {
        clip-path: url(#e);
      }

      .o {
        clip-path: url(#c);
      }
    </style>
    <clipPath id="c">
      <path class="g" d="M111.85-303.47h274.97l-33.99,184.6c-1.74,9.43-9.96,16.28-19.55,16.28h-167.78c-9.59,0-17.81-6.84-19.55-16.27l-34.1-184.61Z"/>
    </clipPath>
    <clipPath id="d">
      <rect class="g" x="108.35" y="60.83" width="283.29" height="378.33"/>
    </clipPath>
    <clipPath id="e">
      <rect class="i" x="133.92" y="180.6" width="232.17" height="229.08" rx="21.26" ry="21.26"/>
    </clipPath>
  </defs>
  <g>
    <path class="g" d="M111.85-303.47h274.97l-33.99,184.6c-1.74,9.43-9.96,16.28-19.55,16.28h-167.78c-9.59,0-17.81-6.84-19.55-16.27l-34.1-184.61Z"/>
    <g class="o">
      <rect class="l" x="250.1" y="-541.76" width="171.94" height="549.92"/>
    </g>
  </g>
  <g>
    <g>
      <rect class="g" x="108.35" y="60.83" width="283.29" height="378.33"/>
      <g class="m">
        <rect class="l" x="249.72" y="9.38" width="203.68" height="454.97"/>
      </g>
    </g>
    <g>
      <rect class="i" x="133.92" y="180.6" width="232.17" height="229.08" rx="21.26" ry="21.26"/>
      <g class="n">
        <rect class="h" x="249.72" y="9.38" width="203.68" height="454.97"/>
      </g>
    </g>
    <g>
      <polygon class="f" points="396.15 443.67 103.85 443.67 103.85 363.07 112.85 363.07 112.85 434.67 387.15 434.67 387.15 65.33 112.85 65.33 112.85 321.95 103.85 321.95 103.85 56.33 396.15 56.33 396.15 443.67"/>
      <rect class="f" x="103.85" y="338.61" width="9" height="14.43"/>
      <g>
        <rect class="f" x="245.5" y="180.6" width="9" height="232.17"/>
        <rect class="f" x="303.54" y="180.6" width="9" height="232.17"/>
        <rect class="f" x="187.46" y="180.6" width="9" height="232.17"/>
        <rect class="f" x="133.92" y="292.18" width="232.17" height="9"/>
        <rect class="f" x="133.92" y="350.22" width="232.17" height="9"/>
        <path class="f" d="M348.49,417.27h-196.99c-12.18,0-22.09-9.91-22.09-22.09v-196.99c0-12.18,9.91-22.09,22.09-22.09h196.99c12.18,0,22.09,9.91,22.09,22.09v196.99c0,12.18-9.91,22.09-22.09,22.09ZM151.51,185.1c-7.22,0-13.09,5.87-13.09,13.09v196.99c0,7.22,5.87,13.09,13.09,13.09h196.99c7.22,0,13.09-5.87,13.09-13.09v-196.99c0-7.22-5.87-13.09-13.09-13.09h-196.99Z"/>
        <rect class="f" x="133.92" y="234.14" width="232.17" height="9"/>
      </g>
      <g>
        <path d="M138.1,91.45h16.41c5.18,0,9.11.4,11.78,1.21s4.82,2.44,6.46,4.9c1.64,2.46,2.46,6.42,2.46,11.89,0,3.7-.58,6.27-1.74,7.73-1.16,1.46-3.44,2.58-6.86,3.36,3.8.86,6.38,2.29,7.73,4.28,1.35,1.99,2.03,5.05,2.03,9.17v5.86c0,4.27-.49,7.44-1.46,9.5s-2.53,3.46-4.67,4.22-6.51,1.13-13.12,1.13h-19.02v-63.24ZM154.55,102.27v14.06c.7-.03,1.25-.04,1.64-.04,1.62,0,2.64-.4,3.09-1.19.44-.79.66-3.07.66-6.82,0-1.98-.18-3.37-.55-4.16-.37-.79-.84-1.29-1.43-1.5-.59-.21-1.72-.33-3.42-.35ZM154.55,126.18v17.7c2.32-.08,3.79-.44,4.43-1.09.64-.65.96-2.25.96-4.8v-5.9c0-2.71-.29-4.35-.86-4.92-.57-.57-2.08-.9-4.53-.98Z"/>
        <path d="M206.73,91.45v63.24h-16.45v-63.24h16.45Z"/>
        <path d="M258.05,91.45v63.24h-14.41l-8.55-28.75v28.75h-13.75v-63.24h13.75l9.22,28.48v-28.48h13.75Z"/>
        <path d="M310.38,114.74h-16.45v-5.74c0-3.62-.16-5.88-.47-6.8-.31-.91-1.05-1.37-2.23-1.37-1.02,0-1.71.39-2.07,1.17s-.55,2.79-.55,6.02v30.35c0,2.84.18,4.71.55,5.61s1.09,1.35,2.19,1.35c1.2,0,2.01-.51,2.44-1.52s.64-2.99.64-5.94v-7.5h-3.32v-9.61h19.26v33.95h-10.33l-1.52-4.53c-1.12,1.95-2.54,3.42-4.24,4.39-1.71.98-3.72,1.46-6.04,1.46-2.76,0-5.35-.67-7.76-2.01s-4.24-3-5.49-4.98c-1.25-1.98-2.03-4.06-2.35-6.23-.31-2.17-.47-5.44-.47-9.79v-18.79c0-6.04.33-10.43.98-13.16s2.52-5.24,5.61-7.52c3.09-2.28,7.08-3.42,11.97-3.42s8.81.99,11.99,2.97c3.18,1.98,5.25,4.33,6.21,7.05.96,2.72,1.45,6.67,1.45,11.86v2.73Z"/>
        <path d="M362.33,128.49c0,6.35-.15,10.85-.45,13.5-.3,2.64-1.24,5.06-2.81,7.25s-3.71,3.87-6.39,5.04-5.81,1.76-9.38,1.76c-3.38,0-6.43-.55-9.12-1.66s-4.86-2.77-6.5-4.98c-1.64-2.21-2.62-4.62-2.93-7.23-.31-2.6-.47-7.16-.47-13.67v-10.82c0-6.35.15-10.85.45-13.5.3-2.64,1.24-5.06,2.81-7.25s3.71-3.87,6.39-5.04,5.81-1.76,9.38-1.76c3.38,0,6.43.55,9.12,1.66,2.7,1.11,4.86,2.77,6.5,4.98,1.64,2.21,2.62,4.62,2.93,7.23.31,2.6.47,7.16.47,13.67v10.82ZM345.88,107.7c0-2.94-.16-4.82-.49-5.64s-1-1.23-2.01-1.23c-.86,0-1.52.33-1.97,1s-.68,2.62-.68,5.88v29.53c0,3.67.15,5.94.45,6.8s1,1.29,2.09,1.29,1.84-.49,2.15-1.48c.31-.99.47-3.35.47-7.07v-29.06Z"/>
      </g>
    </g>
    <g>
      <g>
        <circle class="j" cx="336.61" cy="267.72" r="15.01"/>
        <path d="M336.61,287.23c-10.75,0-19.5-8.75-19.5-19.51s8.75-19.5,19.5-19.5,19.5,8.75,19.5,19.5-8.75,19.51-19.5,19.51ZM336.61,257.21c-5.79,0-10.5,4.71-10.5,10.5s4.71,10.51,10.5,10.51,10.5-4.71,10.5-10.51-4.71-10.5-10.5-10.5Z"/>
      </g>
      <g>
        <circle class="k" cx="163.16" cy="267.72" r="15.01"/>
        <path d="M163.16,287.23c-10.75,0-19.5-8.75-19.5-19.51s8.75-19.5,19.5-19.5,19.5,8.75,19.5,19.5-8.75,19.51-19.5,19.51ZM163.16,257.21c-5.79,0-10.5,4.71-10.5,10.5s4.71,10.51,10.5,10.51,10.5-4.71,10.5-10.51-4.71-10.5-10.5-10.5Z"/>
      </g>
      <g>
        <circle class="k" cx="220.98" cy="267.72" r="15.01"/>
        <path d="M220.98,287.23c-10.75,0-19.5-8.75-19.5-19.51s8.75-19.5,19.5-19.5,19.5,8.75,19.5,19.5-8.75,19.51-19.5,19.51ZM220.98,257.21c-5.79,0-10.5,4.71-10.5,10.5s4.71,10.51,10.5,10.51,10.5-4.71,10.5-10.51-4.71-10.5-10.5-10.5Z"/>
      </g>
      <g>
        <circle class="j" cx="278.8" cy="267.72" r="15.01"/>
        <path d="M278.8,287.23c-10.75,0-19.5-8.75-19.5-19.51s8.75-19.5,19.5-19.5,19.5,8.75,19.5,19.5-8.75,19.51-19.5,19.51ZM278.8,257.21c-5.79,0-10.5,4.71-10.5,10.5s4.71,10.51,10.5,10.51,10.5-4.71,10.5-10.51-4.71-10.5-10.5-10.5Z"/>
      </g>
    </g>
    <g>
      <g>
        <circle class="j" cx="336.61" cy="325.54" r="15.01"/>
        <path d="M336.61,345.04c-10.75,0-19.5-8.75-19.5-19.51s8.75-19.5,19.5-19.5,19.5,8.75,19.5,19.5-8.75,19.51-19.5,19.51ZM336.61,315.03c-5.79,0-10.5,4.71-10.5,10.5s4.71,10.51,10.5,10.51,10.5-4.71,10.5-10.51-4.71-10.5-10.5-10.5Z"/>
      </g>
      <g>
        <circle class="k" cx="163.16" cy="325.54" r="15.01"/>
        <path d="M163.16,345.04c-10.75,0-19.5-8.75-19.5-19.51s8.75-19.5,19.5-19.5,19.5,8.75,19.5,19.5-8.75,19.51-19.5,19.51ZM163.16,315.03c-5.79,0-10.5,4.71-10.5,10.5s4.71,10.51,10.5,10.51,10.5-4.71,10.5-10.51-4.71-10.5-10.5-10.5Z"/>
      </g>
      <g>
        <circle class="k" cx="220.98" cy="325.54" r="15.01"/>
        <path d="M220.98,345.04c-10.75,0-19.5-8.75-19.5-19.51s8.75-19.5,19.5-19.5,19.5,8.75,19.5,19.5-8.75,19.51-19.5,19.51ZM220.98,315.03c-5.79,0-10.5,4.71-10.5,10.5s4.71,10.51,10.5,10.51,10.5-4.71,10.5-10.51-4.71-10.5-10.5-10.5Z"/>
      </g>
      <g>
        <circle class="j" cx="278.8" cy="325.54" r="15.01"/>
        <path d="M278.8,345.04c-10.75,0-19.5-8.75-19.5-19.51s8.75-19.5,19.5-19.5,19.5,8.75,19.5,19.5-8.75,19.51-19.5,19.51ZM278.8,315.03c-5.79,0-10.5,4.71-10.5,10.5s4.71,10.51,10.5,10.51,10.5-4.71,10.5-10.51-4.71-10.5-10.5-10.5Z"/>
      </g>
    </g>
    <g>
      <g>
        <circle class="j" cx="336.61" cy="383.35" r="15.01"/>
        <path d="M336.61,402.86c-10.75,0-19.5-8.75-19.5-19.51s8.75-19.5,19.5-19.5,19.5,8.75,19.5,19.5-8.75,19.51-19.5,19.51ZM336.61,372.85c-5.79,0-10.5,4.71-10.5,10.5s4.71,10.51,10.5,10.51,10.5-4.71,10.5-10.51-4.71-10.5-10.5-10.5Z"/>
      </g>
      <g>
        <circle class="k" cx="163.16" cy="383.35" r="15.01"/>
        <path d="M163.16,402.86c-10.75,0-19.5-8.75-19.5-19.51s8.75-19.5,19.5-19.5,19.5,8.75,19.5,19.5-8.75,19.51-19.5,19.51ZM163.16,372.85c-5.79,0-10.5,4.71-10.5,10.5s4.71,10.51,10.5,10.51,10.5-4.71,10.5-10.51-4.71-10.5-10.5-10.5Z"/>
      </g>
      <g>
        <circle class="k" cx="220.98" cy="383.35" r="15.01"/>
        <path d="M220.98,402.86c-10.75,0-19.5-8.75-19.5-19.51s8.75-19.5,19.5-19.5,19.5,8.75,19.5,19.5-8.75,19.51-19.5,19.51ZM220.98,372.85c-5.79,0-10.5,4.71-10.5,10.5s4.71,10.51,10.5,10.51,10.5-4.71,10.5-10.51-4.71-10.5-10.5-10.5Z"/>
      </g>
      <g>
        <circle class="j" cx="278.8" cy="383.35" r="15.01"/>
        <path d="M278.8,402.86c-10.75,0-19.5-8.75-19.5-19.51s8.75-19.5,19.5-19.5,19.5,8.75,19.5,19.5-8.75,19.51-19.5,19.51ZM278.8,372.85c-5.79,0-10.5,4.71-10.5,10.5s4.71,10.51,10.5,10.51,10.5-4.71,10.5-10.51-4.71-10.5-10.5-10.5Z"/>
      </g>
    </g>
    <g>
      <g>
        <circle class="j" cx="336.61" cy="209.9" r="15.01"/>
        <path d="M336.61,229.41c-10.75,0-19.5-8.75-19.5-19.51s8.75-19.5,19.5-19.5,19.5,8.75,19.5,19.5-8.75,19.51-19.5,19.51ZM336.61,199.4c-5.79,0-10.5,4.71-10.5,10.5s4.71,10.51,10.5,10.51,10.5-4.71,10.5-10.51-4.71-10.5-10.5-10.5Z"/>
      </g>
      <g>
        <circle class="k" cx="163.16" cy="209.9" r="15.01"/>
        <path d="M163.16,229.41c-10.75,0-19.5-8.75-19.5-19.51s8.75-19.5,19.5-19.5,19.5,8.75,19.5,19.5-8.75,19.51-19.5,19.51ZM163.16,199.4c-5.79,0-10.5,4.71-10.5,10.5s4.71,10.51,10.5,10.51,10.5-4.71,10.5-10.51-4.71-10.5-10.5-10.5Z"/>
      </g>
      <g>
        <circle class="k" cx="220.98" cy="209.9" r="15.01"/>
        <path d="M220.98,229.41c-10.75,0-19.5-8.75-19.5-19.51s8.75-19.5,19.5-19.5,19.5,8.75,19.5,19.5-8.75,19.51-19.5,19.51ZM220.98,199.4c-5.79,0-10.5,4.71-10.5,10.5s4.71,10.51,10.5,10.51,10.5-4.71,10.5-10.51-4.71-10.5-10.5-10.5Z"/>
      </g>
      <g>
        <circle class="j" cx="278.8" cy="209.9" r="15.01"/>
        <path d="M278.8,229.41c-10.75,0-19.5-8.75-19.5-19.51s8.75-19.5,19.5-19.5,19.5,8.75,19.5,19.5-8.75,19.51-19.5,19.51ZM278.8,199.4c-5.79,0-10.5,4.71-10.5,10.5s4.71,10.51,10.5,10.51,10.5-4.71,10.5-10.51-4.71-10.5-10.5-10.5Z"/>
      </g>
    </g>
  </g>
</svg>