<?xml version="1.0" encoding="UTF-8"?>
<svg id="b" data-name="Finished icons" xmlns="http://www.w3.org/2000/svg" xmlns:xlink="http://www.w3.org/1999/xlink" viewBox="0 0 500 500">
  <defs>
    <style>
      .e {
        fill: #a0a0a0;
      }

      .f {
        fill: #fff6ea;
      }

      .g {
        fill: #6490ff;
      }

      .h {
        fill: #b20000;
      }

      .i {
        clip-path: url(#d);
      }

      .j {
        fill: #e00000;
      }

      .k {
        fill: #bcbcbc;
      }

      .l {
        clip-path: url(#c);
      }

      .m {
        fill: #efe6da;
      }
    </style>
    <clipPath id="c">
      <path class="f" d="M408.57,128.59c0-13.93-11.29-25.22-25.22-25.22H88.95c-13.93,0-25.22,11.29-25.22,25.22v250.41h344.84v-250.41Z"/>
    </clipPath>
    <clipPath id="d">
      <rect class="j" x="31.31" y="60.88" width="409.91" height="122.01"/>
    </clipPath>
  </defs>
  <g>
    <g>
      <path class="f" d="M408.57,128.59c0-13.93-11.29-25.22-25.22-25.22H88.95c-13.93,0-25.22,11.29-25.22,25.22v250.41h344.84v-250.41Z"/>
      <g class="l">
        <rect class="m" x="236.15" y="39.68" width="201.68" height="416.19"/>
        <g>
          <rect class="j" x="31.31" y="60.88" width="409.91" height="122.01"/>
          <g class="i">
            <rect class="h" x="236.15" y="39.68" width="201.68" height="416.19"/>
          </g>
        </g>
      </g>
    </g>
    <g>
      <g>
        <rect class="k" x="113.84" y="214.98" width="25.91" height="25.91"/>
        <path class="k" d="M144.25,245.4h-34.91v-34.91h34.91v34.91ZM118.34,236.4h16.91v-16.91h-16.91v16.91Z"/>
      </g>
      <g>
        <rect class="e" x="333.64" y="214.98" width="25.91" height="25.91"/>
        <path class="e" d="M364.06,245.4h-34.91v-34.91h34.91v34.91ZM338.14,236.4h16.91v-16.91h-16.91v16.91Z"/>
      </g>
      <g>
        <rect class="k" x="187.11" y="214.98" width="25.91" height="25.91"/>
        <path class="k" d="M217.52,245.4h-34.91v-34.91h34.91v34.91ZM191.61,236.4h16.91v-16.91h-16.91v16.91Z"/>
      </g>
      <g>
        <rect class="e" x="260.37" y="214.98" width="25.91" height="25.91"/>
        <path class="e" d="M290.79,245.4h-34.91v-34.91h34.91v34.91ZM264.87,236.4h16.91v-16.91h-16.91v16.91Z"/>
      </g>
    </g>
    <g>
      <g>
        <rect class="k" x="113.84" y="269.66" width="25.91" height="25.91"/>
        <path class="k" d="M144.25,300.07h-34.91v-34.91h34.91v34.91ZM118.34,291.07h16.91v-16.91h-16.91v16.91Z"/>
      </g>
      <g>
        <rect class="k" x="187.11" y="269.66" width="25.91" height="25.91"/>
        <path class="k" d="M217.52,300.07h-34.91v-34.91h34.91v34.91ZM191.61,291.07h16.91v-16.91h-16.91v16.91Z"/>
      </g>
      <g>
        <rect class="e" x="260.37" y="269.66" width="25.91" height="25.91"/>
        <path class="e" d="M290.79,300.07h-34.91v-34.91h34.91v34.91ZM264.87,291.07h16.91v-16.91h-16.91v16.91Z"/>
      </g>
    </g>
    <g>
      <g>
        <rect class="k" x="113.84" y="324.33" width="25.91" height="25.91"/>
        <path class="k" d="M144.25,354.75h-34.91v-34.91h34.91v34.91ZM118.34,345.75h16.91v-16.91h-16.91v16.91Z"/>
      </g>
      <g>
        <rect class="k" x="187.11" y="324.33" width="25.91" height="25.91"/>
        <path class="k" d="M217.52,354.75h-34.91v-34.91h34.91v34.91ZM191.61,345.75h16.91v-16.91h-16.91v16.91Z"/>
      </g>
    </g>
    <g>
      <path class="g" d="M336.61,305.82c0-5.55-3.18-10.32-8.31-12.44-5.13-2.12-10.75-1.01-14.67,2.92l-51.57,51.57c-2.54,2.54-3.94,5.92-3.94,9.52s1.4,6.98,3.94,9.52l51.57,51.57c2.61,2.61,5.97,3.98,9.44,3.98,1.75,0,3.52-.35,5.24-1.06,5.13-2.12,8.31-6.89,8.31-12.44v-103.15Z"/>
      <path class="g" d="M436.27,305.82c0-5.55-3.18-10.32-8.31-12.44-5.13-2.12-10.75-1.01-14.67,2.92l-51.57,51.57c-2.54,2.54-3.94,5.92-3.94,9.52s1.4,6.98,3.94,9.52l51.57,51.57c2.61,2.61,5.97,3.98,9.44,3.98,1.75,0,3.52-.35,5.24-1.06,5.13-2.12,8.31-6.89,8.31-12.44v-103.15Z"/>
      <rect class="k" x="122.02" y="77.53" width="29.99" height="59.89" rx="14.99" ry="14.99"/>
      <rect class="e" x="320.3" y="77.53" width="29.99" height="59.89" rx="14.99" ry="14.99"/>
    </g>
  </g>
  <g>
    <path d="M413.07,301.01h-9v-172.41c0-11.42-9.29-20.72-20.72-20.72h-31.57v-9h31.57c16.39,0,29.72,13.33,29.72,29.72v172.41Z"/>
    <rect x="153.01" y="98.88" width="164.98" height="9"/>
    <path d="M273.85,383.51H59.23v-254.91c0-16.39,13.33-29.72,29.72-29.72h31.15v9h-31.15c-11.42,0-20.72,9.29-20.72,20.72v245.91h205.61v9Z"/>
    <rect x="338.09" y="374.51" width="34.01" height="9"/>
    <rect x="64.7" y="178.38" width="280.05" height="9"/>
    <rect x="362.23" y="178.38" width="28.71" height="9"/>
    <g>
      <path d="M323.06,426.97c-4.72,0-9.2-1.88-12.62-5.3l-51.57-51.57c-3.39-3.39-5.26-7.9-5.26-12.7s1.87-9.31,5.26-12.7l51.57-51.57c5.24-5.24,12.74-6.73,19.58-3.89,6.84,2.83,11.09,9.19,11.09,16.6v103.15c0,7.41-4.25,13.76-11.09,16.6-2.24.93-4.59,1.4-6.96,1.4ZM323.04,296.81c-2.29,0-4.48.91-6.23,2.67l-51.58,51.57c-1.69,1.69-2.63,3.94-2.63,6.34s.93,4.65,2.63,6.34l51.57,51.58c2.59,2.59,6.38,3.35,9.77,1.94,3.47-1.44,5.53-4.53,5.53-8.28v-103.15c0-3.75-2.07-6.85-5.53-8.28-1.17-.49-2.37-.72-3.54-.72Z"/>
      <path d="M422.72,426.97c-4.72,0-9.2-1.88-12.62-5.3l-51.57-51.57c-3.39-3.39-5.26-7.9-5.26-12.7s1.87-9.31,5.26-12.7l51.57-51.57c5.24-5.24,12.74-6.73,19.58-3.89,6.84,2.83,11.09,9.19,11.09,16.6v103.15c0,7.41-4.25,13.76-11.09,16.6-2.24.93-4.59,1.4-6.96,1.4ZM422.7,296.81c-2.29,0-4.48.91-6.23,2.67l-51.58,51.57c-1.69,1.69-2.63,3.94-2.63,6.34s.93,4.65,2.63,6.34l51.57,51.58c2.59,2.59,6.38,3.35,9.77,1.94,3.47-1.44,5.53-4.53,5.53-8.28v-103.15c0-3.75-2.07-6.85-5.53-8.28-1.17-.49-2.37-.72-3.54-.72Z"/>
      <path d="M137.01,141.93c-10.75,0-19.49-8.74-19.49-19.49v-29.91c0-10.75,8.74-19.49,19.49-19.49s19.49,8.74,19.49,19.49v29.91c0,10.75-8.75,19.49-19.49,19.49ZM137.01,82.03c-5.79,0-10.49,4.71-10.49,10.49v29.91c0,5.79,4.71,10.49,10.49,10.49s10.49-4.71,10.49-10.49v-29.91c0-5.79-4.71-10.49-10.49-10.49Z"/>
      <path d="M335.29,141.93c-10.75,0-19.49-8.74-19.49-19.49v-29.91c0-10.75,8.74-19.49,19.49-19.49s19.49,8.74,19.49,19.49v29.91c0,10.75-8.74,19.49-19.49,19.49ZM335.29,82.03c-5.79,0-10.49,4.71-10.49,10.49v29.91c0,5.79,4.71,10.49,10.49,10.49s10.49-4.71,10.49-10.49v-29.91c0-5.79-4.71-10.49-10.49-10.49Z"/>
    </g>
  </g>
</svg>