<?xml version="1.0" encoding="UTF-8"?>
<svg id="b" data-name="Finished icons" xmlns="http://www.w3.org/2000/svg" xmlns:xlink="http://www.w3.org/1999/xlink" viewBox="0 0 500 500">
  <defs>
    <style>
      .d {
        fill: #000500;
      }

      .e {
        fill: #6dbc3f;
      }

      .f {
        fill: #fff6ea;
      }

      .g {
        clip-path: url(#c);
      }

      .h {
        fill: #efe6da;
      }
    </style>
    <clipPath id="c">
      <rect class="f" x="108.35" y="60.83" width="283.29" height="378.33"/>
    </clipPath>
  </defs>
  <g>
    <rect class="f" x="108.35" y="60.83" width="283.29" height="378.33"/>
    <g class="g">
      <rect class="h" x="249.72" y="9.38" width="203.68" height="454.97"/>
    </g>
  </g>
  <polygon class="d" points="396.15 443.67 103.85 443.67 103.85 363.07 112.85 363.07 112.85 434.67 387.15 434.67 387.15 65.33 112.85 65.33 112.85 321.95 103.85 321.95 103.85 56.33 396.15 56.33 396.15 443.67"/>
  <rect class="d" x="103.85" y="338.61" width="9" height="14.43"/>
  <g>
    <path d="M144.57,115.43v30.35h6v7.59h-15.87v-37.95h9.87Z"/>
    <path d="M174.79,137.65c0,3.81-.09,6.51-.27,8.1s-.74,3.04-1.69,4.35-2.22,2.32-3.83,3.02-3.48,1.05-5.62,1.05-3.86-.33-5.47-1-2.92-1.66-3.9-2.99-1.57-2.77-1.76-4.34-.28-4.3-.28-8.2v-6.49c0-3.81.09-6.51.27-8.1s.74-3.04,1.69-4.35,2.22-2.32,3.83-3.02,3.48-1.05,5.62-1.05,3.86.33,5.47,1,2.92,1.66,3.9,2.99,1.57,2.77,1.76,4.34.28,4.3.28,8.2v6.49ZM164.92,125.18c0-1.77-.1-2.89-.29-3.39s-.6-.74-1.21-.74c-.52,0-.91.2-1.18.6s-.41,1.57-.41,3.53v17.72c0,2.2.09,3.56.27,4.08s.6.77,1.25.77,1.1-.3,1.29-.89.28-2.01.28-4.24v-17.44Z"/>
    <path d="M178.47,115.43h6.98c4.66,0,7.81.18,9.46.54s2.99,1.28,4.03,2.75,1.56,3.83,1.56,7.07c0,2.95-.37,4.94-1.1,5.95s-2.18,1.62-4.34,1.83c1.95.48,3.27,1.13,3.94,1.95s1.09,1.56,1.25,2.24.25,2.55.25,5.61v10.01h-9.16v-12.61c0-2.03-.16-3.29-.48-3.77s-1.16-.73-2.52-.73v17.11h-9.87v-37.95ZM188.33,121.92v8.44c1.11,0,1.89-.15,2.33-.46s.67-1.29.67-2.96v-2.09c0-1.2-.21-1.99-.64-2.37s-1.21-.56-2.36-.56Z"/>
    <path d="M204.32,115.43h16.45v7.59h-6.59v7.2h6.16v7.22h-6.16v8.34h7.24v7.59h-17.11v-37.95Z"/>
    <path d="M254.71,115.43v37.95h-8.62v-25.62s-3.45,25.62-3.45,25.62h-6.12l-3.62-25.03v25.03h-8.64v-37.95h12.77c.38,2.28.77,4.97,1.17,8.07l1.4,9.65,2.27-17.72h12.84Z"/>
    <path d="M144.86,230.63v37.95h-9.87v-37.95h9.87Z"/>
    <path d="M148.82,230.63h9.94c2.69,0,4.75.21,6.2.63s2.53,1.03,3.26,1.83,1.22,1.76,1.48,2.89.39,2.89.39,5.26v3.3c0,2.42-.25,4.19-.75,5.3s-1.42,1.96-2.75,2.55-3.08.89-5.24.89h-2.65v15.28h-9.87v-37.95ZM158.68,237.12v9.66c.28.02.52.02.73.02.91,0,1.54-.22,1.89-.67s.53-1.37.53-2.78v-3.12c0-1.3-.2-2.14-.61-2.53s-1.25-.59-2.53-.59Z"/>
    <path d="M193.82,242.11h-9.16v-2.81c0-1.31-.12-2.15-.35-2.51s-.62-.54-1.17-.54c-.59,0-1.04.24-1.35.73-.3.48-.46,1.22-.46,2.2,0,1.27.17,2.22.51,2.86.33.64,1.26,1.42,2.79,2.32,4.39,2.61,7.16,4.75,8.3,6.42s1.71,4.37,1.71,8.09c0,2.7-.32,4.7-.95,5.98s-1.86,2.36-3.67,3.22-3.92,1.3-6.33,1.3c-2.64,0-4.89-.5-6.76-1.5s-3.09-2.27-3.67-3.82-.87-3.74-.87-6.59v-2.48h9.16v4.62c0,1.42.13,2.34.39,2.74s.71.61,1.37.61,1.14-.26,1.46-.77.48-1.28.48-2.3c0-2.23-.3-3.7-.91-4.38-.62-.69-2.16-1.84-4.62-3.45-2.45-1.62-4.08-2.8-4.88-3.54s-1.46-1.75-1.98-3.05-.79-2.95-.79-4.97c0-2.91.37-5.03,1.11-6.38s1.94-2.39,3.6-3.15,3.66-1.14,6-1.14c2.56,0,4.75.41,6.55,1.24s3,1.87,3.59,3.13.88,3.39.88,6.41v1.5Z"/>
    <path d="M220.16,230.63v25.36c0,2.88-.09,4.89-.28,6.06s-.74,2.36-1.66,3.59-2.14,2.16-3.64,2.79-3.29.95-5.33.95c-2.27,0-4.27-.38-6-1.12s-3.03-1.73-3.89-2.93-1.37-2.47-1.52-3.81-.23-4.14-.23-8.43v-22.45h9.87v28.45c0,1.66.09,2.71.27,3.18s.54.69,1.09.69c.62,0,1.03-.25,1.21-.76s.27-1.71.27-3.6v-27.96h9.87Z"/>
    <path d="M254.43,230.63v37.95h-8.62v-25.62s-3.45,25.62-3.45,25.62h-6.12l-3.62-25.03v25.03h-8.64v-37.95h12.77c.38,2.28.77,4.97,1.17,8.07l1.4,9.65,2.27-17.72h12.84Z"/>
    <path d="M135.5,345.83h7.38c4.77,0,7.99.22,9.67.66s2.96,1.16,3.83,2.16,1.42,2.11,1.64,3.34.33,3.64.33,7.23v13.29c0,3.41-.16,5.68-.48,6.83s-.88,2.05-1.68,2.7-1.78,1.1-2.95,1.36-2.94.39-5.3.39h-12.45v-37.95ZM145.37,352.32v24.96c1.42,0,2.3-.29,2.62-.86s.49-2.12.49-4.65v-14.74c0-1.72-.05-2.82-.16-3.3s-.36-.84-.75-1.07-1.12-.34-2.2-.34Z"/>
    <path d="M184.58,368.05c0,3.81-.09,6.51-.27,8.1s-.74,3.04-1.69,4.35-2.22,2.32-3.83,3.02-3.48,1.05-5.62,1.05-3.86-.33-5.47-1-2.92-1.66-3.9-2.99-1.57-2.77-1.76-4.34-.28-4.3-.28-8.2v-6.49c0-3.81.09-6.51.27-8.1s.74-3.04,1.69-4.35,2.22-2.32,3.83-3.02,3.48-1.05,5.62-1.05,3.86.33,5.47,1,2.92,1.66,3.9,2.99,1.57,2.77,1.76,4.34.28,4.3.28,8.2v6.49ZM174.72,355.58c0-1.77-.1-2.89-.29-3.39s-.6-.74-1.21-.74c-.52,0-.91.2-1.18.6s-.41,1.57-.41,3.53v17.72c0,2.2.09,3.56.27,4.08s.6.77,1.25.77,1.1-.3,1.29-.89.28-2.01.28-4.24v-17.44Z"/>
    <path d="M198.13,345.83v30.35h6v7.59h-15.87v-37.95h9.87Z"/>
    <path d="M228.34,368.05c0,3.81-.09,6.51-.27,8.1s-.74,3.04-1.69,4.35-2.22,2.32-3.83,3.02-3.48,1.05-5.62,1.05-3.86-.33-5.47-1-2.92-1.66-3.9-2.99-1.57-2.77-1.76-4.34-.28-4.3-.28-8.2v-6.49c0-3.81.09-6.51.27-8.1s.74-3.04,1.69-4.35,2.22-2.32,3.83-3.02,3.48-1.05,5.62-1.05,3.86.33,5.47,1,2.92,1.66,3.9,2.99,1.57,2.77,1.76,4.34.28,4.3.28,8.2v6.49ZM218.47,355.58c0-1.77-.1-2.89-.29-3.39s-.6-.74-1.21-.74c-.52,0-.91.2-1.18.6s-.41,1.57-.41,3.53v17.72c0,2.2.09,3.56.27,4.08s.6.77,1.25.77,1.1-.3,1.29-.89.28-2.01.28-4.24v-17.44Z"/>
    <path d="M232.02,345.83h6.98c4.66,0,7.81.18,9.46.54s2.99,1.28,4.03,2.75,1.56,3.83,1.56,7.07c0,2.95-.37,4.94-1.1,5.95s-2.18,1.62-4.34,1.83c1.95.48,3.27,1.13,3.94,1.95s1.09,1.56,1.25,2.24.25,2.55.25,5.61v10.01h-9.16v-12.61c0-2.03-.16-3.29-.48-3.77s-1.16-.73-2.52-.73v17.11h-9.87v-37.95ZM241.89,352.32v8.44c1.11,0,1.89-.15,2.33-.46s.67-1.29.67-2.96v-2.09c0-1.2-.21-1.99-.64-2.37s-1.21-.56-2.36-.56Z"/>
  </g>
  <g>
    <g>
      <path class="e" d="M314.94,164.33l-22.13-27.74c-2.11-2.65-1.68-6.51.97-8.63h0c2.65-2.11,6.51-1.68,8.63.97l11.49,14.41c2.61,3.28,7.67,3.03,9.95-.49l23.72-36.35c1.84-2.85,5.64-3.66,8.49-1.82h0c2.85,1.84,3.66,5.64,1.82,8.49l-32.99,50.67c-2.28,3.52-7.34,3.77-9.95.49Z"/>
      <path d="M352.74,103.7c1.14,0,2.3.32,3.33.99h0c2.85,1.84,3.66,5.64,1.82,8.49l-32.99,50.67c-1.2,1.86-3.18,2.8-5.16,2.8-1.78,0-3.56-.76-4.79-2.31l-22.13-27.74c-2.11-2.65-1.68-6.51.97-8.63,1.13-.9,2.48-1.34,3.82-1.34,1.8,0,3.59.79,4.8,2.31l11.49,14.41c1.24,1.55,3.02,2.31,4.79,2.31,1.98,0,3.96-.95,5.16-2.8l23.72-36.35c1.17-1.81,3.15-2.8,5.16-2.8M352.74,94.7c-5.16,0-9.91,2.58-12.71,6.91l-21.55,33.02-9.02-11.31c-2.89-3.62-7.2-5.7-11.84-5.7-3.41,0-6.76,1.17-9.44,3.3-6.53,5.2-7.6,14.75-2.4,21.27l22.13,27.74c2.89,3.62,7.2,5.7,11.83,5.7,5.16,0,9.91-2.58,12.71-6.91l32.98-50.65c2.21-3.41,2.95-7.46,2.11-11.42-.85-3.95-3.18-7.34-6.58-9.54-2.46-1.59-5.3-2.43-8.22-2.43h0Z"/>
    </g>
    <g>
      <path class="e" d="M314.94,278.84l-22.13-27.74c-2.11-2.65-1.68-6.51.97-8.63h0c2.65-2.11,6.51-1.68,8.63.97l11.49,14.41c2.61,3.28,7.67,3.03,9.95-.49l23.72-36.35c1.84-2.85,5.64-3.66,8.49-1.82h0c2.85,1.84,3.66,5.64,1.82,8.49l-32.99,50.67c-2.28,3.52-7.34,3.77-9.95.49Z"/>
      <path d="M352.74,218.21c1.14,0,2.3.32,3.33.99h0c2.85,1.84,3.66,5.64,1.82,8.49l-32.99,50.67c-1.2,1.86-3.18,2.8-5.16,2.8-1.78,0-3.56-.76-4.79-2.31l-22.13-27.74c-2.11-2.65-1.68-6.51.97-8.63h0c1.13-.9,2.48-1.34,3.82-1.34,1.8,0,3.59.79,4.8,2.31l11.49,14.41c1.24,1.55,3.02,2.31,4.79,2.31,1.98,0,3.96-.95,5.16-2.8l23.72-36.35c1.17-1.81,3.15-2.8,5.16-2.8M352.74,209.21h0c-5.16,0-9.91,2.58-12.71,6.91l-21.55,33.02-9.02-11.31c-2.89-3.62-7.2-5.7-11.84-5.7-3.41,0-6.76,1.17-9.44,3.3-6.53,5.21-7.6,14.75-2.4,21.27l22.13,27.74c2.89,3.62,7.2,5.7,11.83,5.7,5.16,0,9.91-2.58,12.71-6.91l32.98-50.65c4.55-7.03,2.54-16.42-4.47-20.95-2.46-1.59-5.3-2.43-8.22-2.43h0Z"/>
    </g>
    <g>
      <path class="e" d="M314.94,393.35l-22.13-27.74c-2.11-2.65-1.68-6.51.97-8.63h0c2.65-2.11,6.51-1.68,8.63.97l11.49,14.41c2.61,3.28,7.67,3.03,9.95-.49l23.72-36.35c1.84-2.85,5.64-3.66,8.49-1.82h0c2.85,1.84,3.66,5.64,1.82,8.49l-32.99,50.67c-2.28,3.52-7.34,3.77-9.95.49Z"/>
      <path d="M352.74,332.72c1.14,0,2.3.32,3.33.99h0c2.85,1.84,3.66,5.64,1.82,8.49l-32.99,50.67c-1.2,1.86-3.18,2.8-5.16,2.8-1.78,0-3.56-.76-4.79-2.31l-22.13-27.74c-2.11-2.65-1.68-6.51.97-8.63,1.13-.9,2.48-1.34,3.82-1.34,1.8,0,3.59.79,4.8,2.31l11.49,14.41c1.24,1.55,3.02,2.31,4.79,2.31,1.98,0,3.96-.95,5.16-2.8l23.72-36.35c1.17-1.81,3.15-2.8,5.16-2.8M352.74,323.72c-5.16,0-9.91,2.58-12.71,6.91l-21.55,33.02-9.02-11.31c-2.89-3.62-7.2-5.7-11.84-5.7-3.41,0-6.76,1.17-9.44,3.3-6.53,5.2-7.6,14.75-2.4,21.27l22.13,27.74c2.89,3.62,7.2,5.7,11.83,5.7,5.16,0,9.91-2.58,12.71-6.91l32.98-50.65c4.55-7.03,2.54-16.42-4.47-20.95-2.46-1.59-5.3-2.43-8.22-2.43h0Z"/>
    </g>
  </g>
</svg>