<?xml version="1.0" encoding="UTF-8"?>
<svg id="b" data-name="Finished icons" xmlns="http://www.w3.org/2000/svg" xmlns:xlink="http://www.w3.org/1999/xlink" viewBox="0 0 500 500">
  <defs>
    <style>
      .f {
        fill: #6dbc3f;
      }

      .g {
        fill: #0043ff;
      }

      .h {
        fill: #d8a798;
      }

      .i {
        fill: #875839;
      }

      .j {
        fill: #cbc7c5;
      }

      .k {
        fill: #457f2d;
      }

      .l {
        fill: #201810;
      }

      .m {
        clip-path: url(#d);
      }

      .n {
        clip-path: url(#e);
      }

      .o {
        fill: #eabdac;
      }

      .p {
        clip-path: url(#c);
      }

      .q {
        fill: #969391;
      }
    </style>
    <clipPath id="c">
      <circle class="o" cx="199.38" cy="177.35" r="16.16"/>
    </clipPath>
    <clipPath id="d">
      <polygon class="f" points="215.55 205.22 204.33 209.18 193.88 238.93 154.24 251.9 184.6 194.61 210.14 185.99 215.55 205.22"/>
    </clipPath>
    <clipPath id="e">
      <path class="j" d="M439.17,420.18c0,10.49-8.5,18.99-18.99,18.99H144.25l9.98-33.12,48.32-28.27-12.07-17.67,2.65-31.51,21.77-3.83-1.74-21.5,42.7-18.85-5.86-28.56,17.93-5.86-5.01-36.55,46.23-32.69-10.01-22.38-4.12-27.98,16.79-18.55-30.33-25.91-3.24-25.11h141.94c10.49,0,18.99,8.5,18.99,18.99v340.36Z"/>
    </clipPath>
  </defs>
  <g>
    <path class="g" d="M161.41,173.42h0c4.83,0,8.75,3.92,8.75,8.75v78.62h-13.91c-7.6,0-13.77-6.17-13.77-13.77v-54.66c0-10.45,8.48-18.93,18.93-18.93Z" transform="translate(120.75 -48.04) rotate(28.11)"/>
    <path class="i" d="M212.09,236.26l-18.21,2.67-39.65,12.97-3.19,48.17-11.28,32.61c-3.41,17.72,16.11,21.47,19.52,3.76l11.29-32.64,7.91-41.07,34.74-6.99-4.28,23.61c-3.41,17.72,16.11,21.47,19.52,3.76l4.29-23.64c2.57-19.73.47-26.36-20.66-23.21Z"/>
    <g>
      <circle class="o" cx="199.38" cy="177.35" r="16.16"/>
      <g class="p">
        <rect class="h" x="183.18" y="96.74" width="127.37" height="299.04" transform="translate(85.41 -62.8) rotate(17.49)"/>
      </g>
    </g>
    <path class="o" d="M184.6,194.61l-30.36,57.29,39.65-12.97,10.44-29.75,61.25-21.64c17.19-6.48,10.42-24.44-6.77-17.96l-74.21,25.03Z"/>
    <g>
      <polygon class="f" points="215.55 205.22 204.33 209.18 193.88 238.93 154.24 251.9 184.6 194.61 210.14 185.99 215.55 205.22"/>
      <g class="m">
        <rect class="k" x="181.18" y="96.74" width="127.37" height="299.04" transform="translate(109.92 -73.73) rotate(21.97)"/>
      </g>
    </g>
  </g>
  <g>
    <path class="j" d="M439.17,420.18c0,10.49-8.5,18.99-18.99,18.99H144.25l9.98-33.12,48.32-28.27-12.07-17.67,2.65-31.51,21.77-3.83-1.74-21.5,42.7-18.85-5.86-28.56,17.93-5.86-5.01-36.55,46.23-32.69-10.01-22.38-4.12-27.98,16.79-18.55-30.33-25.91-3.24-25.11h141.94c10.49,0,18.99,8.5,18.99,18.99v340.36Z"/>
    <g class="n">
      <polygon class="q" points="165.09 491.07 177.81 448.86 239.4 412.83 224.01 390.32 227.39 350.16 255.13 345.28 252.91 317.89 307.32 293.87 299.86 257.47 322.71 250 316.33 203.43 375.25 161.77 362.49 133.25 357.24 97.6 378.63 73.95 339.97 40.93 335.84 8.93 540.93 8.93 540.93 491.07 165.09 491.07"/>
    </g>
  </g>
  <g>
    <path d="M420.18,443.67H138.19l12.24-40.61,45.68-26.72-10.25-15,3.08-36.56,21.14-3.72-1.67-20.6,42.31-18.67-5.94-28.94,18.18-5.94-4.87-35.53,45.44-32.13-8.76-19.57-4.52-30.69,15.1-16.69-28.13-24.03-4.12-31.91h147.06c12.95,0,23.49,10.54,23.49,23.49v243.18h-9V79.82c0-7.99-6.5-14.49-14.49-14.49h-136.82l2.36,18.32,32.53,27.79-18.47,20.41,3.72,25.26,11.27,25.19-47.02,33.24,5.14,37.56-17.68,5.78,5.78,28.19-43.09,19.02,1.82,22.39-22.39,3.94-2.23,26.46,13.89,20.33-50.96,29.81-7.73,25.63h269.87c7.99,0,14.49-6.5,14.49-14.49v-41.08h9v41.08c0,12.95-10.54,23.49-23.49,23.49Z"/>
    <rect x="434.67" y="335.81" width="9" height="18.99"/>
    <rect x="209.25" y="111.6" width="113.26" height="9" transform="translate(94.54 350.22) rotate(-77.39)"/>
    <path d="M233.48,225.25l-3.53-8.28c9.41-4.01,18.89-12.4,17.3-23.91l8.91-1.24c1.92,13.83-6.77,26.64-22.68,33.42Z"/>
    <path d="M145.04,259.64l36.42-68.73,31.73-10.7,7.83,27.85-13.16,4.65-10.46,29.81-52.35,17.12ZM187.73,198.3l-24.3,45.86,26.94-8.81,10.42-29.69,9.28-3.28-2.98-10.61-19.36,6.53Z"/>
    <path d="M149.79,268.25l-16.24-8.67c-8.88-4.75-12.25-15.84-7.5-24.72l25.76-48.21c2.95-5.52,7.87-9.56,13.86-11.38,5.99-1.82,12.33-1.2,17.85,1.75,3.12,1.67,5.41,4.45,6.43,7.84,1.03,3.39.68,6.97-.99,10.09l-39.17,73.31ZM172.49,183.24c-1.41,0-2.83.21-4.21.63-3.69,1.12-6.72,3.61-8.54,7.01l-25.76,48.21c-2.41,4.51-.7,10.13,3.81,12.54l8.3,4.43,34.93-65.37c1.1-2.07.32-4.64-1.75-5.75-2.12-1.13-4.44-1.71-6.78-1.71Z"/>
    <path d="M148.5,352.49c-.8,0-1.6-.08-2.38-.23-7.04-1.36-13.01-8.81-10.77-20.43l.17-.62,11.08-32.04,3.35-50.6,42.9-14.03,18.58-2.72c11.44-1.71,18.11-.69,22.29,3.42,4.99,4.9,5.06,12.81,3.5,24.82l-.03.22-4.29,23.64c-2.25,11.67-10.55,16.38-17.6,15.02-7.04-1.36-13.01-8.81-10.77-20.44l3.09-17.04-25.28,5.09-7.4,38.42-11.29,32.65c-2.07,10.11-8.78,14.87-15.14,14.87ZM144.13,333.83c-1.04,5.9,1.16,9.11,3.69,9.6,2.57.49,5.88-1.75,7.05-7.84l.17-.62,11.18-32.34,8.42-43.72,44.2-8.9-5.46,30.13c-1.18,6.14,1.05,9.45,3.62,9.95,2.58.49,5.88-1.75,7.05-7.84l4.26-23.48c.93-7.15,1.54-14.74-.89-17.13-1.83-1.8-6.76-2.12-14.65-.94h-.01s-17.83,2.62-17.83,2.62l-36.39,11.9-3.02,45.74-11.37,32.86Z"/>
    <path class="l" d="M199.38,198.01c-11.39,0-20.66-9.27-20.66-20.66s9.27-20.66,20.66-20.66,20.66,9.27,20.66,20.66-9.27,20.66-20.66,20.66ZM199.38,165.69c-6.43,0-11.66,5.23-11.66,11.66s5.23,11.66,11.66,11.66,11.66-5.23,11.66-11.66-5.23-11.66-11.66-11.66Z"/>
    <path class="l" d="M145.04,259.64l36.42-68.73,75.83-25.58c7.12-2.66,13.77-2.08,18.26,1.6,3.44,2.82,5.06,7.13,4.34,11.52-.95,5.75-5.59,10.6-12.74,13.29l-59.31,20.96-10.46,29.81-52.35,17.12ZM187.73,198.3l-24.3,45.86,26.94-8.81,10.42-29.69,63.29-22.36c3.91-1.47,6.54-3.84,6.94-6.3.2-1.21-.21-2.31-1.17-3.09-1.93-1.58-5.46-1.62-9.46-.11l-.15.05-72.51,24.46Z"/>
  </g>
</svg>