<svg version="1.2" xmlns="http://www.w3.org/2000/svg" viewBox="0 0 500 500">
	<defs>
		<clipPath clipPathUnits="userSpaceOnUse" id="cp1">
			<path d="m112.52 237.73h274.97l-33.99 184.6c-1.74 9.43-9.96 16.28-19.55 16.28h-167.78c-9.59 0-17.81-6.84-19.55-16.27z"/>
		</clipPath>
		<clipPath clipPathUnits="userSpaceOnUse" id="cp2">
			<path d="m419.04 254.74c0 32.55-26.38 58.94-58.93 58.94-25.13 0-46.59-15.73-55.05-37.89-8.47 22.16-29.93 37.89-55.06 37.89-25.13 0-46.59-15.73-55.06-37.89-8.46 22.16-29.92 37.89-55.05 37.89-32.55 0-58.93-26.39-58.93-58.94 0-32.55 22.3-50.01 44.93-54.93 0.33-0.07 2.85-72.78 71.84-78.58 22.65-1.9 42.45 12.86 52.27 31.71 9.82-18.85 29.54-31.65 52.27-31.71 65.44-0.17 58.2 70.16 56.82 75.15 0.34-0.01 59.95 25.82 59.95 58.36z"/>
		</clipPath>
		<clipPath clipPathUnits="userSpaceOnUse" id="cp3">
			<path d="m250 167.86c-22.58 0-40.83-18.25-40.83-40.83 0-22.58 18.25-40.83 40.83-40.83 22.58 0 40.83 18.25 40.83 40.83 0 22.58-18.25 40.83-40.83 40.83z"/>
		</clipPath>
	</defs>
	<style>
		.s0 { fill: #00c9ad }
		.s1 { fill: #00997f }
		.s2 { fill: #00b596 }
		.s3 { fill: #00876e }
		.s4 { fill: #ffffff }
		.s5 { fill: #cccccc }
		.s6 { fill: #b8b8b8 }
		.s7 { fill: #f2f2f2 }
		.s8 { fill: #d9d9d9 }
		.s9 { fill: #e00000 }
		.s10 { fill: #b30000 }
		.s11 { fill: #00806a }
		.s12 { fill: #000000 }
	</style>
	<g>
		<g>
			<path class="s0" d="m112.5 237.7h275l-34 184.6c-1.7 9.5-10 16.3-19.5 16.3h-167.8c-9.6 0-17.8-6.8-19.6-16.3z"/>
			<g id="Clip-Path" clip-path="url(#cp1)">
				<g>
					<path fill-rule="evenodd" class="s1" d="m249.8 0.4h171.9v550h-171.9z"/>
					<g>
						<path class="s2" d="m207.6 478.2c-2.5 0-4.7-1.9-4.9-4.5l-13.8-131.2c-0.3-2.8 1.7-5.2 4.4-5.5 2.8-0.3 5.2 1.7 5.5 4.4l13.8 131.2c0.3 2.8-1.7 5.2-4.4 5.5q-0.3 0.1-0.6 0.1z"/>
						<path class="s3" d="m292.4 478.2q-0.3 0-0.6-0.1c-2.7-0.2-4.7-2.7-4.4-5.5l13.8-131.1c0.3-2.8 2.7-4.8 5.5-4.5 2.7 0.3 4.7 2.8 4.4 5.5l-13.8 131.2c-0.2 2.6-2.4 4.5-4.9 4.5z"/>
					</g>
				</g>
			</g>
		</g>
		<g>
			<g>
				<path class="s4" d="m419 254.7c0 32.6-26.3 59-58.9 59-25.1 0-46.6-15.8-55-37.9-8.5 22.2-30 37.9-55.1 37.9-25.1 0-46.6-15.8-55.1-37.9-8.4 22.2-29.9 37.9-55 37.9-32.6 0-58.9-26.4-58.9-59 0-32.5 30.5-62.1 58.8-58.9 0.3 0.1-12.2-69.7 57.9-74.6 22.7-1.6 42.5 12.9 52.3 31.7 9.8-18.8 29.5-31.6 52.3-31.7 32.3-0.1 63.4 27.5 57.7 74.6 46.1 2.9 59 42.5 59 58.9z"/>
				<g id="Clip-Path" clip-path="url(#cp2)">
					<path fill-rule="evenodd" class="s5" d="m249.8 53.5h195.8v411.4h-195.8z"/>
				</g>
			</g>
			<g>
				<path fill-rule="evenodd" class="s4" d="m140.6 313.7c-33.1 0-59.9-26.8-59.9-59.8 0-33.1 26.8-59.9 59.9-59.9 33 0 59.8 26.8 59.8 59.9 0 33-26.8 59.8-59.8 59.8z"/>
				<path fill-rule="evenodd" class="s6" d="m359.4 313.7c-33 0-59.8-26.8-59.8-59.8 0-33.1 26.8-59.9 59.8-59.9 33.1 0 59.9 26.8 59.9 59.9 0 33-26.8 59.8-59.9 59.8z"/>
			</g>
			<path fill-rule="evenodd" class="s7" d="m250 313.7c-32.6 0-58.9-26.8-58.9-59.8 0-33.1 26.3-59.9 58.9-59.9 32.6 0 58.9 26.8 58.9 59.9 0 33-26.3 59.8-58.9 59.8z"/>
			<path id="Layer copy" fill-rule="evenodd" class="s8" d="m308.9 253.9c0 33-26.3 59.8-58.9 59.8v-119.7c32.6 0 58.9 26.8 58.9 59.9z"/>
		</g>
		<g>
			<path fill-rule="evenodd" class="s9" d="m250 167.9c-22.6 0-40.8-18.3-40.8-40.9 0-22.5 18.2-40.8 40.8-40.8 22.6 0 40.8 18.3 40.8 40.8 0 22.6-18.2 40.9-40.8 40.9z"/>
			<g id="Clip-Path" clip-path="url(#cp3)">
				<g>
					<path fill-rule="evenodd" class="s10" d="m250.4 39.8h92.8v164.4h-92.8z"/>
				</g>
			</g>
		</g>
		<path id="Shape 1" class="s11" d="m250 314.8c32.3 0 48.9-19.7 56-37.9 17.1 46.1 68 36.1 68 36.1l-13 66c0 0-31.4-64.2-111-64.2z"/>
	</g>
	<g>
		<g>
			<path fill-rule="evenodd" class="s12" d="m355 438.7h-209l-21.7-123.7 8.9-1.5 20.3 116.2h194l19.3-105.3 8.9 1.7-20.7 112.6z"/>
			<path fill-rule="evenodd" class="s12" d="m294.1 438.7h-87.2l-7.4-89.1 8.9-0.7 6.7 80.8h70.8l3.1-38.4 9 0.8-3.9 46.6z"/>
			<path fill-rule="evenodd" class="s12" d="m291.1 366.9l1.5-18 9 0.7-1.5 18.1z"/>
		</g>
		<g>
			<path class="s12" d="m360.1 318.7c-22.8 0-43.9-12.5-55-31.9-11.2 19.4-32.3 31.9-55.1 31.9-22.8 0-43.9-12.5-55.1-31.9-11.1 19.4-32.2 31.9-55 31.9-35 0-63.4-28.4-63.4-63.4 0-35 26-60.9 58.8-63.3q-1-5.5-1-11.3c0-35 28.5-63.4 63.4-63.4 3.5 0 6.9 0.3 10.3 0.8l-1.4 8.9c-2.9-0.5-5.9-0.7-8.9-0.7-30 0-54.4 24.4-54.4 54.4 0 4.9 0.7 9.8 1.9 14.5l1.7 5.8-6.1-0.1q-0.5 0-0.9 0c-30 0-54.4 24.4-54.4 54.4 0 30 24.4 54.4 54.4 54.4 22.4 0 42.9-14 50.8-35l4.2-11 4.3 11c8 21 28.4 35 50.8 35 22.4 0 42.9-14 50.9-35l4.2-11 4.2 11c8 21 28.4 35 50.8 35 30 0 54.5-24.4 54.5-54.4 0-30-24.5-54.4-54.5-54.4q-0.4 0-0.8 0l-6.1 0.2 1.6-5.9c1.3-4.7 1.9-9.6 1.9-14.5 0-30-24.4-54.4-54.4-54.4-3.3 0-6.7 0.3-10 0.9l-1.6-8.9c3.8-0.7 7.7-1 11.6-1 35 0 63.4 28.4 63.4 63.4q0 5.7-1 11.3c32.9 2.4 58.9 29.9 58.9 63.3 0 33.4-28.5 63.4-63.5 63.4z"/>
			<path class="s12" d="m301.5 292.4l-7.3-5.3c6.7-9.3 10.2-20.3 10.2-31.8 0-10.1-2.8-20-8.1-28.6l7.7-4.8c6.2 10 9.4 21.6 9.4 33.4 0 13.4-4.1 26.2-11.9 37.1z"/>
			<path class="s12" d="m177.4 215.9c-10.1-9.7-23.5-15-37.5-15v-9c16.3 0 31.9 6.2 43.7 17.5l-6.2 6.5z"/>
		</g>
		<path class="s12" d="m250 172.9c-25 0-45.3-20.3-45.3-45.3 0-25 20.3-45.3 45.3-45.3 25 0 45.3 20.3 45.3 45.3 0 25-20.3 45.3-45.3 45.3zm0-81.6c-20 0-36.3 16.3-36.3 36.3 0 20 16.3 36.3 36.3 36.3 20 0 36.3-16.3 36.3-36.3 0-20-16.3-36.3-36.3-36.3z"/>
		<path class="s12" d="m255.2 106.3l-8.8-2.1c6.3-27.2 33-43.6 34.2-44.2l4.6 7.7c-0.2 0.1-24.6 15.1-30 38.6z"/>
	</g>
</svg>
