<?xml version="1.0" encoding="UTF-8"?>
<svg id="b" data-name="Finished icons" xmlns="http://www.w3.org/2000/svg" xmlns:xlink="http://www.w3.org/1999/xlink" viewBox="0 0 500 500">
  <defs>
    <style>
      .f {
        fill: #00c9ad;
      }

      .g {
        fill: #fff;
      }

      .h {
        fill: #e0e0e0;
      }

      .i {
        fill: #f2f2f2;
      }

      .j {
        fill: #c00;
      }

      .k {
        fill: #00b596;
      }

      .l {
        fill: #009e80;
      }

      .m {
        fill: #00af91;
      }

      .n {
        clip-path: url(#d);
      }

      .o {
        clip-path: url(#e);
      }

      .p {
        fill: #e00000;
      }

      .q {
        fill: #4f4033;
      }

      .r {
        clip-path: url(#c);
      }
    </style>
    <clipPath id="c">
      <path class="f" d="M112.52,237.73h274.97l-33.99,184.6c-1.74,9.43-9.96,16.28-19.55,16.28h-167.78c-9.59,0-17.81-6.84-19.55-16.27l-34.1-184.61Z"/>
    </clipPath>
    <clipPath id="d">
      <path class="g" d="M419.04,254.74c0,32.55-26.38,58.94-58.93,58.94-25.13,0-46.59-15.73-55.05-37.89-8.47,22.16-29.93,37.89-55.06,37.89s-46.59-15.73-55.06-37.89c-8.46,22.16-29.92,37.89-55.05,37.89-32.55,0-58.93-26.39-58.93-58.94s22.3-50.01,44.93-54.93c.33-.07,2.85-72.78,71.84-78.58,22.65-1.9,42.45,12.86,52.27,31.71,9.82-18.85,29.54-31.65,52.27-31.71,65.44-.17,58.2,70.16,56.82,75.15.34-.01,59.95,25.82,59.95,58.36Z"/>
    </clipPath>
    <clipPath id="e">
      <circle class="p" cx="250" cy="127.03" r="40.83"/>
    </clipPath>
  </defs>
  <g>
    <g>
      <path class="f" d="M112.52,237.73h274.97l-33.99,184.6c-1.74,9.43-9.96,16.28-19.55,16.28h-167.78c-9.59,0-17.81-6.84-19.55-16.27l-34.1-184.61Z"/>
      <g class="r">
        <rect class="m" x="250.77" y="-.56" width="171.94" height="549.92"/>
        <g>
          <path class="k" d="M207.64,478.17c-2.53,0-4.7-1.91-4.97-4.48l-13.8-131.19c-.29-2.75,1.7-5.21,4.45-5.5,2.74-.3,5.21,1.7,5.5,4.45l13.8,131.19c.29,2.75-1.7,5.21-4.45,5.5-.18.02-.35.03-.53.03Z"/>
          <path class="l" d="M292.36,478.17c-.17,0-.35,0-.53-.03-2.75-.29-4.74-2.75-4.45-5.5l13.8-131.19c.29-2.75,2.75-4.74,5.5-4.45,2.75.29,4.74,2.75,4.45,5.5l-13.8,131.19c-.27,2.57-2.44,4.48-4.97,4.48Z"/>
        </g>
      </g>
    </g>
    <g>
      <g>
        <path class="g" d="M419.04,254.74c0,32.55-26.38,58.94-58.93,58.94-25.13,0-46.59-15.73-55.05-37.89-8.47,22.16-29.93,37.89-55.06,37.89s-46.59-15.73-55.06-37.89c-8.46,22.16-29.92,37.89-55.05,37.89-32.55,0-58.93-26.39-58.93-58.94s22.3-50.01,44.93-54.93c.33-.07,2.85-72.78,71.84-78.58,22.65-1.9,42.45,12.86,52.27,31.71,9.82-18.85,29.54-31.65,52.27-31.71,65.44-.17,58.2,70.16,56.82,75.15.34-.01,59.95,25.82,59.95,58.36Z"/>
        <g class="n">
          <rect class="i" x="250.77" y="46.47" width="195.79" height="411.46"/>
        </g>
      </g>
      <g>
        <circle class="g" cx="140.56" cy="253.85" r="59.82"/>
        <circle class="h" cx="359.44" cy="253.85" r="59.82"/>
      </g>
      <ellipse class="i" cx="250" cy="253.85" rx="58.93" ry="59.82"/>
    </g>
    <g>
      <circle class="p" cx="250" cy="127.03" r="40.83"/>
      <g class="o">
        <rect class="j" x="250.44" y="39.84" width="92.76" height="164.32"/>
      </g>
    </g>
    <path class="q" d="M257.19,107.7l-8.77-2.03c6.31-27.27,33.01-43.6,34.15-44.28l4.64,7.71c-.24.15-24.58,15.1-30.02,38.6Z"/>
  </g>
  <g>
    <g>
      <polygon points="355.01 438.7 145.96 438.7 124.3 315.01 133.17 313.46 153.52 429.7 347.52 429.7 366.84 324.42 375.69 326.05 355.01 438.7"/>
      <polygon points="294.13 438.7 206.87 438.7 199.46 349.61 208.43 348.86 215.15 429.7 285.85 429.7 289.04 391.34 298.01 392.09 294.13 438.7"/>
      <rect x="287.26" y="353.75" width="18.09" height="9" transform="translate(-85.27 623.83) rotate(-85.24)"/>
    </g>
    <g>
      <path d="M360.11,318.74c-22.83,0-43.88-12.51-55.05-31.93-11.18,19.43-32.24,31.93-55.06,31.93s-43.88-12.51-55.06-31.93c-11.17,19.43-32.23,31.93-55.05,31.93-34.98,0-63.43-28.46-63.43-63.44s26-60.91,58.85-63.27c-.67-3.71-1.01-7.5-1.01-11.31,0-34.98,28.46-63.43,63.43-63.43,3.46,0,6.92.28,10.31.83l-1.45,8.88c-2.91-.48-5.89-.72-8.86-.72-30.01,0-54.43,24.42-54.43,54.43,0,4.92.66,9.79,1.95,14.46l1.63,5.88-6.1-.18c-.29,0-.59,0-.88,0-30.01,0-54.43,24.42-54.43,54.43s24.42,54.44,54.43,54.44c22.42,0,42.86-14.06,50.85-35l4.2-11,4.21,11c8,20.93,28.44,35,50.86,35s42.86-14.06,50.86-35l4.21-11,4.2,11c7.99,20.93,28.42,35,50.85,35,30.01,0,54.43-24.42,54.43-54.44s-24.42-54.43-54.43-54.43c-.3,0-.59,0-.88,0l-6.1.18,1.63-5.88c1.29-4.67,1.95-9.54,1.95-14.46,0-30.01-24.42-54.43-54.43-54.43-3.35,0-6.7.31-9.97.91l-1.64-8.85c3.8-.7,7.71-1.06,11.6-1.06,34.98,0,63.43,28.45,63.43,63.43,0,3.81-.34,7.6-1.01,11.31,32.84,2.36,58.85,29.83,58.85,63.27s-28.45,63.44-63.43,63.44Z"/>
      <path d="M301.49,292.36l-7.3-5.26c6.7-9.3,10.25-20.29,10.25-31.8,0-10.15-2.81-20.05-8.13-28.63l7.65-4.74c6.2,10,9.48,21.54,9.48,33.37,0,13.4-4.13,26.22-11.95,37.06Z"/>
      <path d="M177.43,215.89c-10.16-9.69-23.5-15.02-37.55-15.02v-9c16.37,0,31.91,6.22,43.75,17.51l-6.21,6.51Z"/>
    </g>
    <path d="M250,172.92c-25,0-45.33-20.34-45.33-45.33s20.33-45.33,45.33-45.33,45.33,20.34,45.33,45.33-20.33,45.33-45.33,45.33ZM250,91.26c-20.03,0-36.33,16.3-36.33,36.33s16.3,36.33,36.33,36.33,36.33-16.3,36.33-36.33-16.3-36.33-36.33-36.33Z"/>
    <path d="M257.19,108.26l-8.77-2.03c6.31-27.27,33.01-43.6,34.15-44.28l4.64,7.71c-.24.15-24.58,15.1-30.02,38.6Z"/>
  </g>
</svg>