<svg version="1.2" xmlns="http://www.w3.org/2000/svg" viewBox="0 0 500 500">
	<defs>
		<clipPath clipPathUnits="userSpaceOnUse" id="cp1">
			<path d="m439.32 250.05c0 27.85-9.13 53.97-25.1 76.5q-0.01 0.01-0.03 0.04c-31.54 44.49-89.76 74.96-156.93 77.03-1.09 0.04-13.55 0.04-14.64 0-67.17-2.07-125.39-32.53-156.93-77.03q-0.04-0.03-0.03-0.04c-15.97-22.53-25.1-48.65-25.1-76.5 0-27.85 9.13-53.97 25.1-76.5q0.01-0.01 0.03-0.04c31.54-44.49 89.76-74.96 156.93-77.03 1.09-0.04 13.55-0.04 14.64 0 67.17 2.07 125.39 32.53 156.93 77.03q0.04 0.04 0.03 0.04c15.97 22.53 25.1 48.65 25.1 76.5zm-119.47-42.85c-16.28-11.15-41.54-18.3-69.91-18.3-28.37 0-53.63 7.15-69.91 18.3 16.28 11.13 41.54 18.29 69.91 18.29 28.37 0 53.63-7.15 69.91-18.29z"/>
		</clipPath>
	</defs>
	<style>
		.s0 { fill: #e5c698 }
		.s1 { fill: #d1ae80 }
		.s2 { fill: #f17a7a }
		.s3 { fill: #d96f6f }
		.s4 { fill: #000000 }
		.s5 { fill: #ffffff }
		.s6 { fill: #e82ef1 }
		.s7 { fill: #ff9c00 }
		.s8 { fill: #ff0000 }
		.s9 { fill: #f3ff00 }
	</style>
	<g>
		<g>
			<path class="s0" d="m414.2 173.6q0-0.1 0-0.1c-31.5-44.5-89.8-74.9-156.9-77-1.1-0.1-13.6-0.1-14.7 0-67.1 2.1-125.4 32.5-156.9 77q0 0 0 0.1c-16 22.5-25.1 48.6-25.1 76.5 0 27.8 9.1 53.9 25.1 76.5q0 0 0 0c31.5 44.5 89.8 75 156.9 77 1.1 0.1 13.6 0.1 14.7 0 67.1-2 125.4-32.5 156.9-77q0 0 0 0c16-22.6 25.1-48.7 25.1-76.5 0-27.9-9.1-54-25.1-76.5zm-164.3 51.9c-28.3 0-53.6-7.2-69.9-18.3 16.3-11.1 41.6-18.3 69.9-18.3 28.4 0 53.7 7.2 70 18.3-16.3 11.1-41.6 18.3-70 18.3z"/>
			<g id="Clip-Path" clip-path="url(#cp1)">
				<g>
					<path fill-rule="evenodd" class="s1" d="m249.9 10.6h234.6v469.1h-234.6z"/>
				</g>
			</g>
		</g>
		<g>
			<path id="edited" class="s2" d="m434 213.8c-4.2-14.3-11-27.8-19.8-40.3q0 0 0 0c-31.5-44.5-89.8-74.9-156.9-77q-1.7-0.1-3.3-0.1-2 0-4 0-2.1-0.1-4.1 0-1.6 0-3.3 0.1c-67.1 2-125.3 32.5-156.9 77q0 0 0 0c-13.6 19.2-22.3 41-24.5 64.3q-0.6 6.1-0.6 12.3c0 3-3 36.8 31.3 23.8 47.1-17.8 56.5 49.2 89 61.5 30.5 11.6 41.3-18.6 69.1-17.8 22.9 0.7 47.2 33.4 80.9 21.3 38-13.8 33.6-63.2 63.6-52.2 28.8 10.6 44.4-27.5 44.4-47.2-0.7-8.7-2.4-17.3-4.8-25.7zm-184.1 11.7c-28.4 0-53.7-7.2-69.9-18.3 16.2-11.1 41.5-18.3 69.9-18.3 28.3 0 53.6 7.2 69.9 18.3-16.3 11.1-41.6 18.3-69.9 18.3z"/>
			<path id="edited copy" fill-rule="evenodd" class="s3" d="m434.1 213.8c2.4 8.4 4.1 17 4.8 25.7 0 19.7-15.6 57.8-44.4 47.2-30-11-25.6 38.4-63.6 52.2-33.7 12.1-58-20.6-80.9-21.3v-92.1c28.3 0 53.6-7.2 69.9-18.3-16.3-11.1-41.6-18.3-69.9-18.3v-92.5q2 0 4 0 1.6 0 3.3 0.1c67.1 2.1 125.4 32.5 156.9 77q0 0 0 0c8.8 12.5 15.6 26 19.8 40.3z"/>
			<path id="outline" fill-rule="evenodd" class="s4" d="m250 92.8c91.4 0 155.4 49.3 179.6 97.7 13.8 27.6 20.2 68-4.8 93.2-5.3 5.4-13 7.8-20.5 8.3-7.9 0.5-19.1-6.4-25.8 0.8-20.1 21.6-26.3 52.9-63 52.2-25.5-0.4-43.9-23.6-67.3-23.1-17 0.4-29.1 13.9-44.7 18.7-9.4 2.8-17.6 0.7-26.5-2.7-23.5-8.9-33-41.1-51.7-56.1-14.8-11.9-27.8-2.9-43.8-1.2-8 0.9-19.1-2.3-21.9-11.1-5.9-18.6-1.7-40.9 2.9-59.4 9.4-37.8 67.2-117.3 187.5-117.3zm-21.5 101.6c-4.9 0.7-12.8 2.3-17.5 3.6-4.7 1.3-11.9 3.9-16 5.8l-7.5 3.4c10.8 5.1 18.3 7.7 23.5 9.1 5.2 1.4 12.9 3.1 17 3.7 4.1 0.6 14 1.1 22 1.1 8 0 17.9-0.5 22-1.1 4.1-0.6 11.8-2.3 17-3.7 5.2-1.4 12.6-4 16.5-5.8l7-3.2c-6.2-3.1-11.4-5.3-15.5-6.7-4.1-1.5-11.8-3.6-17-4.7-6.5-1.4-14.8-2.1-26-2.4-10.6-0.3-19.7 0-25.5 0.9zm-13.5-91.4c-61.9 10.4-132.7 50.2-146.6 117-2.6 12.1-6 33.4-2.9 44.9 1.9 6.7 10.2 8.2 12 8.1 20.2-0.6 29.9-12.1 50 0.8 15.4 9.9 22.2 23.8 31.7 38.7 3.8 5.9 13.6 15.8 21.3 18.5 28.7 9.9 41.8-17.3 68.7-17 22.2 0.2 36.2 16.2 53.7 21.3 10.5 3.1 17.9 2.7 28.2-0.7 14.5-4.8 21.3-19.7 29.3-31.2 5.2-7.4 11.3-19.4 21.8-21.5 16.8-3.3 25.9 9.8 39.6-7.5 22.8-28.8 9.6-64.9-7.7-92.9-28.4-45.8-84.7-73.3-136.6-79.4-18.1-2.2-46.5-1.8-62.5 0.9zm33.5 82.1c6 0 15 0.4 20 1 4.9 0.5 13.9 2.2 20 3.7 7.7 1.8 14.3 4.3 22 8.2 8.8 4.4 11.2 6.1 12 8.3 0.9 2.5 0.7 3.1-1.5 4.7-1.4 1.1-5.8 3.5-9.8 5.5-3.9 1.9-10.7 4.6-15 6-4.2 1.4-10.9 3.2-14.7 4.1-4.3 1-14.4 1.8-26.5 2.1-14.7 0.4-22 0.1-29.5-1.1-5.5-0.8-13.9-2.6-18.8-4-4.8-1.5-12-4.2-16-6.1-3.9-1.9-8.7-4.3-10.5-5.5-2.5-1.6-3.1-2.6-3-4.7 0.2-1.9 1.5-3.6 4.3-5.5 2.2-1.5 7.6-4.3 12-6.1 4.4-1.9 12.7-4.6 18.5-6.1 5.8-1.4 13.9-3 18-3.5 4.1-0.5 12.4-0.9 18.5-1z"/>
		</g>
	</g>
	<g>
		<g>
			<path class="s4" d="m322.4 210.9l-5.1-7.4c3.9-2.7 7.2-5.5 9.8-8.5l6.8 5.9c-3.1 3.5-7 6.9-11.5 10z"/>
			<path class="s4" d="m249.9 230c-28.3 0-54.7-7-72.4-19.1l-5.4-3.7 5.4-3.7c17.7-12.1 44.1-19.1 72.4-19.1 28.4 0 54.8 7 72.5 19.1l5.4 3.7-5.4 3.7c-17.7 12.1-44.1 19.1-72.4 19.1zm-61.4-22.8c16 8.8 37.9 13.8 61.4 13.8 23.4 0 45.3-5 61.3-13.8-16-8.8-37.9-13.8-61.3-13.8-23.5 0-45.4 5-61.4 13.8z"/>
			<path class="s4" d="m177.5 210.9c-4.5-3.1-8.4-6.5-11.5-10l6.8-6c2.6 3.1 5.9 5.9 9.8 8.6l-5.1 7.4z"/>
		</g>
		<path class="s4" d="m250 408.1c-3.5 0-6.9 0-7.5 0-33.1-1-65.5-9-93.7-23.1-27.4-13.7-50.4-32.9-66.6-55.5l-0.1-0.1-0.2-0.4c-16.9-23.9-25.8-51.2-25.8-79 0-27.7 8.9-55 25.8-78.9l0.2-0.3 0.1-0.2c16.2-22.6 39.2-41.8 66.6-55.5 28.1-14.1 60.6-22.1 93.7-23.1 1.1-0.1 13.7-0.1 14.9 0 33.1 1 65.5 9 93.7 23.1 27.4 13.7 50.4 32.9 66.5 55.5l0.2 0.2 0.2 0.3c1.7 10-0.3 11-7.3 5.3l-0.1-0.2-0.2-0.2c-32-45-89.2-73-153.3-75-1 0-13.3 0-14.3 0-64.1 2-121.4 30-153.3 75l-0.2 0.3-0.2 0.2c-15.7 22.3-24 47.7-24 73.6 0 25.8 8.3 51.2 24 73.6l0.2 0.1 0.1 0.3c32 45 89.3 73 153.4 75 1 0.1 13.3 0 14.3 0 64-2 121.3-30 153.3-75l0.3-0.4c4.8-6.8 8.9-13.9 12.3-21.2l8.2 3.8c-3.6 7.8-8.1 15.4-13.2 22.7l-0.2 0.3-0.2 0.2c-16.1 22.6-39.1 41.8-66.5 55.5-28.2 14.1-60.6 22.1-93.7 23.1-0.6 0-4 0-7.4 0z"/>
		<g>
			<path fill-rule="evenodd" class="s5" d="m311.1 268.2c3 2 3.8 6 1.8 9l-15 22.3c-2 3-6 3.8-8.9 1.8-3-2-3.7-6-1.8-8.9l15-22.4c2-2.9 6-3.7 8.9-1.8z"/>
			<path class="s4" d="m292.5 306.9c-2.1 0-4.2-0.6-6-1.8-2.4-1.7-4.1-4.1-4.6-7-0.6-2.9 0-5.8 1.6-8.2l15-22.4c1.6-2.4 4.1-4 6.9-4.6 2.9-0.6 5.8 0 8.2 1.6 5 3.4 6.4 10.2 3 15.2l-15 22.4c-1.6 2.4-4.1 4-6.9 4.6q-1.1 0.2-2.2 0.2zm15-35.2q-0.2 0-0.3 0c-0.3 0.1-0.9 0.3-1.3 0.8l-15 22.4c-0.3 0.6-0.3 1.2-0.2 1.4 0 0.3 0.2 0.9 0.8 1.3 0.5 0.4 1.1 0.3 1.4 0.3 0.3-0.1 0.9-0.3 1.2-0.9l15-22.3c0.6-0.9 0.4-2.1-0.5-2.7-0.4-0.3-0.8-0.3-1.1-0.3z"/>
		</g>
		<g>
			<path fill-rule="evenodd" class="s6" d="m212.6 258.3c-1.3 3.3-5 5-8.3 3.7l-25.2-9.5c-3.3-1.2-5-4.9-3.8-8.2 1.3-3.4 5-5 8.3-3.8l25.2 9.5c3.3 1.2 5 4.9 3.8 8.3z"/>
			<path class="s4" d="m206.5 266.9q-1.9 0-3.8-0.7l-25.2-9.4c-5.7-2.2-8.5-8.5-6.4-14.1 2.1-5.6 8.4-8.5 14.1-6.4l25.2 9.5c2.7 1 4.9 3.1 6.1 5.7 1.2 2.7 1.3 5.6 0.3 8.4-1.1 2.7-3.1 4.9-5.8 6.1-1.4 0.6-2.9 0.9-4.5 0.9zm-27-21c-0.4 0.9 0.2 2.1 1.1 2.4l25.2 9.5c0.7 0.3 1.2 0.1 1.5 0 0.3-0.2 0.8-0.5 1-1.1 0.3-0.6 0.1-1.2 0-1.5-0.2-0.2-0.5-0.7-1.1-1l-25.2-9.5c-0.7-0.2-1.2 0-1.5 0.1-0.3 0.1-0.8 0.4-1 1.1z"/>
		</g>
		<g>
			<path fill-rule="evenodd" class="s7" d="m324.8 165.1h-0.1c-1.2 3.3-4.9 5-8.2 3.7l-25.2-9.5c-3.4-1.2-5-4.9-3.8-8.2 1.3-3.3 5-5 8.3-3.8l25.2 9.5c3.3 1.3 5 5 3.8 8.3z"/>
			<path class="s4" d="m318.7 173.8q-1.9 0-3.8-0.8l-25.2-9.4c-2.7-1.1-4.9-3.1-6.1-5.7-1.2-2.7-1.3-5.7-0.3-8.4 2.1-5.6 8.5-8.5 14.1-6.4l25.2 9.5c2.7 1 4.9 3.1 6.1 5.7 1.2 2.7 1.3 5.7 0.3 8.4-1.1 2.7-3.1 4.9-5.7 6.1-1.5 0.6-3 1-4.6 1zm-27-21.1c-0.2 0.6 0 1.2 0.1 1.4 0.1 0.3 0.4 0.8 1.1 1.1l25.2 9.4c0.9 0.4 2.1-0.1 2.5-1.1 0.2-0.6 0-1.2-0.1-1.5-0.1-0.2-0.4-0.7-1.1-1l-25.2-9.5c-1-0.3-2.1 0.2-2.5 1.2z"/>
		</g>
		<g>
			<path fill-rule="evenodd" class="s6" d="m260.2 142.6c-2.6-2.4-2.9-6.4-0.6-9.1l17.8-20.2c2.3-2.7 6.4-3 9-0.6 2.7 2.3 3 6.4 0.6 9l-17.7 20.3c-2.3 2.7-6.4 2.9-9.1 0.6z"/>
			<path class="s4" d="m264.4 148.7c-2.5 0-5.1-0.9-7.1-2.7-2.2-1.9-3.5-4.6-3.7-7.5-0.2-2.9 0.7-5.8 2.7-7.9l17.7-20.3c4-4.5 10.9-5 15.4-1 2.2 1.9 3.5 4.6 3.7 7.5 0.2 2.9-0.8 5.7-2.7 7.9l-17.7 20.3c-2.2 2.4-5.2 3.7-8.2 3.7zm17.7-33.1c-0.5 0-1.1 0.2-1.4 0.6l-17.8 20.3c-0.4 0.5-0.5 1.1-0.4 1.4 0 0.3 0.1 0.9 0.6 1.3 0.8 0.7 2 0.6 2.7-0.2l17.8-20.2c0.4-0.6 0.4-1.1 0.4-1.4 0-0.3-0.1-0.9-0.6-1.4-0.4-0.3-0.8-0.4-1.3-0.4z"/>
		</g>
		<g>
			<path fill-rule="evenodd" class="s8" d="m161.5 136.1c1.6-3.2 5.4-4.6 8.6-3l24.3 11.6c3.2 1.5 4.5 5.3 3 8.5-1.5 3.2-5.3 4.6-8.5 3.1l-24.4-11.6c-3.2-1.6-4.5-5.4-3-8.6z"/>
			<path class="s4" d="m191.6 161.4c-1.6 0-3.2-0.4-4.7-1.1l-24.3-11.6c-2.6-1.2-4.6-3.4-5.6-6.2-1-2.8-0.8-5.7 0.4-8.3 1.3-2.7 3.5-4.7 6.3-5.6 2.7-1 5.7-0.8 8.3 0.4l24.3 11.6c2.7 1.3 4.6 3.5 5.6 6.2 1 2.8 0.8 5.8-0.4 8.4-1.3 2.6-3.5 4.6-6.2 5.6q-1.8 0.6-3.7 0.6zm-24.3-24.5c-0.2 0-0.5 0.1-0.6 0.2-0.3 0.1-0.8 0.3-1.1 0.9-0.3 0.7-0.2 1.2-0.1 1.5 0.1 0.3 0.4 0.8 1 1.1l24.3 11.6c0.6 0.3 1.2 0.2 1.5 0.1 0.3-0.1 0.8-0.4 1.1-1 0.3-0.6 0.1-1.2 0-1.5-0.1-0.3-0.3-0.8-0.9-1.1l-24.3-11.6c-0.3-0.1-0.6-0.2-0.9-0.2z"/>
		</g>
		<g>
			<path fill-rule="evenodd" class="s9" d="m362.6 211.6c2.9 1.9 3.7 5.9 1.8 8.9l-15 22.4c-2 2.9-6 3.7-8.9 1.7-3-1.9-3.8-5.9-1.8-8.9l15-22.4c1.9-2.9 5.9-3.7 8.9-1.7z"/>
			<path class="s4" d="m344 250.2c-2.2 0-4.3-0.6-6.1-1.8-5-3.4-6.3-10.2-3-15.2l15-22.4c1.6-2.4 4.1-4 7-4.6 2.8-0.6 5.8 0 8.2 1.6 2.4 1.7 4 4.1 4.6 7 0.6 2.9 0 5.8-1.6 8.2l-15 22.4c-1.6 2.4-4.1 4.1-7 4.6q-1 0.2-2.1 0.2zm-1.1-9.3c0.6 0.4 1.2 0.4 1.5 0.3 0.3-0.1 0.8-0.2 1.2-0.8l15-22.4c0.4-0.6 0.3-1.2 0.3-1.4-0.1-0.3-0.3-0.9-0.8-1.3-0.6-0.4-1.2-0.3-1.5-0.3-0.3 0.1-0.8 0.3-1.2 0.9l-15 22.3c-0.6 0.9-0.3 2.1 0.5 2.7z"/>
		</g>
		<g>
			<path fill-rule="evenodd" class="s7" d="m116.8 218.8c-3.3 1.2-7-0.6-8.2-3.9l-9.2-25.3c-1.2-3.3 0.5-7 3.8-8.2 3.4-1.2 7 0.5 8.3 3.8l9.2 25.3c1.2 3.4-0.5 7-3.9 8.3z"/>
			<path class="s4" d="m114.7 223.6c-4.5 0-8.7-2.7-10.3-7.2l-9.2-25.3c-1-2.7-0.9-5.7 0.3-8.3 1.3-2.7 3.4-4.7 6.2-5.7 2.7-1 5.7-0.8 8.3 0.4 2.7 1.2 4.7 3.4 5.7 6.2l9.2 25.3c2.1 5.6-0.9 11.9-6.5 14q-1.9 0.6-3.8 0.6zm-9.2-38.1q-0.3 0-0.6 0.1c-0.7 0.2-1 0.7-1.1 1-0.2 0.3-0.3 0.8-0.1 1.5l9.2 25.3c0.4 1 1.5 1.5 2.5 1.1 1-0.3 1.5-1.5 1.1-2.4l-9.2-25.4c-0.2-0.6-0.7-0.9-1-1-0.2-0.1-0.4-0.2-0.8-0.2z"/>
		</g>
		<g>
			<path fill-rule="evenodd" class="s8" d="m408.4 186.7c3.6 0.2 6.3 3.2 6.2 6.7l-1.2 26.9c-0.1 3.6-3.1 6.3-6.7 6.2-3.5-0.2-6.3-3.2-6.1-6.7l1.1-26.9c0.2-3.6 3.2-6.3 6.7-6.2z"/>
			<path class="s4" d="m407 231q-0.2 0-0.5 0c-2.9-0.1-5.6-1.4-7.5-3.6-2-2.1-3-4.9-2.9-7.8l1.1-26.9c0.1-2.9 1.4-5.6 3.6-7.6 2.1-2 4.9-3 7.8-2.9 2.9 0.1 5.6 1.4 7.6 3.6 2 2.1 3 4.9 2.9 7.8l-1.2 26.9c-0.1 2.9-1.4 5.6-3.5 7.6-2 1.9-4.6 2.9-7.4 2.9zm1.1-39.8c-0.6 0-1 0.3-1.2 0.5-0.3 0.2-0.6 0.7-0.7 1.4l-1.1 26.9c0 0.7 0.3 1.1 0.5 1.4 0.2 0.2 0.7 0.6 1.3 0.6 0.7 0 1.2-0.3 1.4-0.5 0.2-0.2 0.6-0.7 0.6-1.4l1.2-26.9c0-0.6-0.3-1.1-0.5-1.3-0.2-0.3-0.7-0.6-1.4-0.7q0 0 0 0z"/>
		</g>
	</g>
</svg>
