<?xml version="1.0" encoding="UTF-8"?>
<svg id="b" data-name="Finished icons" xmlns="http://www.w3.org/2000/svg" xmlns:xlink="http://www.w3.org/1999/xlink" viewBox="0 0 500 500">
  <defs>
    <style>
      .f {
        fill: red;
      }

      .g {
        fill: #d89f00;
      }

      .h {
        fill: #ffa300;
      }

      .i {
        clip-path: url(#d);
      }

      .j {
        clip-path: url(#e);
      }

      .k {
        fill: #ffc200;
      }

      .l {
        clip-path: url(#c);
      }
    </style>
    <clipPath id="c">
      <path class="k" d="M526.35-471.02l32.67,100.55c2.55,7.84,9.86,13.15,18.1,13.15h105.73c16.66,0,23.58,21.32,10.11,31.11l-85.54,62.15c-6.67,4.85-9.46,13.44-6.92,21.28l32.67,100.55c5.15,15.84-12.99,29.02-26.46,19.23l-85.54-62.15c-6.67-4.85-15.71-4.85-22.38,0l-85.54,62.15c-13.48,9.79-31.61-3.38-26.46-19.23l32.67-100.55c2.55-7.84-.24-16.44-6.92-21.28l-85.54-62.15c-13.48-9.79-6.55-31.11,10.11-31.11h105.73c8.25,0,15.56-5.31,18.1-13.15l32.67-100.55c5.15-15.84,27.56-15.84,32.71,0Z"/>
    </clipPath>
    <clipPath id="d">
      <polygon class="k" points="370.75 -94.66 421.14 -255.91 510 -283.95 509.69 -190.77 370.75 -94.66"/>
    </clipPath>
    <clipPath id="e">
      <polygon class="k" points="649.25 -94.66 598.86 -255.91 510 -283.95 509.69 -190.77 649.25 -94.66"/>
    </clipPath>
  </defs>
  <g>
    <path class="k" d="M526.35-471.02l32.67,100.55c2.55,7.84,9.86,13.15,18.1,13.15h105.73c16.66,0,23.58,21.32,10.11,31.11l-85.54,62.15c-6.67,4.85-9.46,13.44-6.92,21.28l32.67,100.55c5.15,15.84-12.99,29.02-26.46,19.23l-85.54-62.15c-6.67-4.85-15.71-4.85-22.38,0l-85.54,62.15c-13.48,9.79-31.61-3.38-26.46-19.23l32.67-100.55c2.55-7.84-.24-16.44-6.92-21.28l-85.54-62.15c-13.48-9.79-6.55-31.11,10.11-31.11h105.73c8.25,0,15.56-5.31,18.1-13.15l32.67-100.55c5.15-15.84,27.56-15.84,32.71,0Z"/>
    <g class="l">
      <g>
        <polygon class="k" points="370.75 -94.66 421.14 -255.91 510 -283.95 509.69 -190.77 370.75 -94.66"/>
        <g class="i">
          <rect class="g" x="483.12" y="-431.5" width="223.78" height="441.28" transform="translate(-9.23 -393.6) rotate(36.34)"/>
        </g>
      </g>
      <g>
        <polygon class="k" points="649.25 -94.66 598.86 -255.91 510 -283.95 509.69 -190.77 649.25 -94.66"/>
        <g class="j">
          <rect class="g" x="313.1" y="-431.5" width="223.78" height="441.28" transform="translate(642.37 -632.56) rotate(143.66)"/>
        </g>
      </g>
    </g>
  </g>
  <g>
    <polygon class="k" points="259.54 145.76 255.04 337.38 250.54 145.76 259.54 145.76 259.54 145.76"/>
    <g>
      <path class="h" d="M349.14,187.16c-52.54,49.56-80.26,119.57-93.8,189.39,2.73-17.82,6.3-35.54,10.93-53.02,9.28-35.04,22.93-69.12,42.58-99.77,9.84-15.36,21.19-29.83,33.97-43,0,0,6.32,6.41,6.32,6.41h0Z"/>
      <path class="k" d="M327.98,286.52c-38.06,35.42-61.35,83.86-72.28,134.37,4.16-25.72,11.16-51.15,22.02-75.12,10.86-24.06,25.67-46.43,43.9-65.63,0,0,6.35,6.38,6.35,6.38h0Z"/>
      <path class="f" d="M395.29,320.47c-50,5.52-75.46,22.7-109.83,58.1,6.97-8.19,14.16-16.22,21.88-23.79,15.38-15.37,33.96-28.04,54.78-34.96,10.39-3.6,21.07-6.08,31.73-8.22,0,0,1.45,8.88,1.45,8.88h0Z"/>
      <path class="f" d="M372.07,375.32c-4.68,0-8.48-3.81-8.48-8.48s3.81-8.48,8.48-8.48,8.48,3.81,8.48,8.48-3.81,8.48-8.48,8.48ZM372.07,366.32c-.29,0-.52.23-.52.52s.23.52.52.52.52-.23.52-.52-.23-.52-.52-.52Z"/>
      <path class="h" d="M387.12,228.85c-4.44,0-8.05-3.61-8.05-8.05s3.61-8.05,8.05-8.05,8.05,3.61,8.05,8.05-3.61,8.05-8.05,8.05ZM387.12,219.85c-.52,0-.95.43-.95.95s.43.95.95.95.95-.43.95-.95-.43-.95-.95-.95Z"/>
      <path class="f" d="M281.95,170.54c-4.42,0-8.01-3.59-8.01-8.01s3.59-8.01,8.01-8.01,8.01,3.59,8.01,8.01-3.59,8.01-8.01,8.01ZM281.95,161.54c-.55,0-.99.44-.99.99s.44.99.99.99.99-.44.99-.99-.44-.99-.99-.99Z"/>
    </g>
    <g>
      <path class="f" d="M168.23,180.75c51.28,52.53,76.72,124.43,87.48,195.79-10.34-52.67-28.14-104.85-59.11-149.03-10.23-14.59-21.82-28.17-34.68-40.36,0,0,6.32-6.41,6.32-6.41h0Z"/>
      <path class="k" d="M189.42,280.14c36.64,38.16,57.89,89.05,65.93,140.75-5.63-25.44-14.06-50.26-26.07-73.15-11.92-22.8-27.49-43.65-46.21-61.22,0,0,6.35-6.38,6.35-6.38h0Z"/>
      <path class="h" d="M121.97,312.39c47.82,9.36,73,29.69,103.62,66.17-7.26-7.39-14.69-14.61-22.51-21.33-24.62-21.77-50.28-32-82.66-35.98,0,0,1.56-8.86,1.56-8.86h0Z"/>
      <path class="h" d="M203.66,403.59c-4.68,0-8.48-3.81-8.48-8.48s3.81-8.48,8.48-8.48,8.48,3.81,8.48,8.48-3.81,8.48-8.48,8.48ZM203.66,394.59c-.29,0-.52.23-.52.52s.23.52.52.52.52-.23.52-.52-.23-.52-.52-.52Z"/>
      <path class="f" d="M91.73,265.33c-4.44,0-8.05-3.61-8.05-8.05s3.61-8.05,8.05-8.05,8.05,3.61,8.05,8.05-3.61,8.05-8.05,8.05ZM91.73,256.33c-.53,0-.95.43-.95.95s.43.95.95.95.95-.43.95-.95-.43-.95-.95-.95Z"/>
      <path class="h" d="M227.07,227.33c-4.42,0-8.01-3.59-8.01-8.01s3.59-8.01,8.01-8.01,8.01,3.59,8.01,8.01-3.59,8.01-8.01,8.01ZM227.07,218.33c-.55,0-.99.44-.99.99s.44.99.99.99.99-.44.99-.99-.44-.99-.99-.99Z"/>
    </g>
    <g>
      <path class="k" d="M244.31,130.78l-3.18,2.24c-1.84,1.29-4.25-.52-3.53-2.65l4.61-13.49c.36-1.05,0-2.22-.89-2.88l-11.4-8.56c-1.8-1.35-.82-4.21,1.43-4.17l14.25.22c1.11.02,2.11-.68,2.47-1.74l4.61-13.49c.73-2.13,3.75-2.08,4.41.07l4.2,13.63c.33,1.06,1.3,1.79,2.41,1.81l14.25.22c2.25.03,3.14,2.92,1.3,4.22l-11.66,8.2c-.91.64-1.3,1.79-.98,2.86l4.2,13.63c.66,2.15-1.81,3.89-3.61,2.54l-11.4-8.56c-.89-.67-2.11-.69-3.02-.05l-1.79,1.26-6.69,4.7Z"/>
      <path class="k" d="M369.01,186.71l-2.55,1.8c-1.47,1.04-3.42-.42-2.83-2.12l3.7-10.83c.29-.84,0-1.78-.71-2.31l-9.15-6.87c-1.44-1.08-.66-3.38,1.15-3.35l11.44.18c.89.01,1.69-.55,1.98-1.39l3.7-10.83c.58-1.71,3.01-1.67,3.54.05l3.37,10.94c.26.85,1.04,1.44,1.94,1.45l11.44.18c1.8.03,2.52,2.35,1.04,3.38l-9.36,6.58c-.73.51-1.05,1.44-.78,2.29l3.37,10.94c.53,1.72-1.45,3.12-2.9,2.04l-9.15-6.87c-.71-.54-1.69-.55-2.42-.04l-1.44,1.01-5.37,3.77Z"/>
      <path class="f" d="M328.86,268.83l-4.26.55c-2.46.32-3.89-2.7-2.08-4.4l11.46-10.81c.89-.84,1.14-2.17.62-3.28l-6.74-14.24c-1.06-2.24,1.37-4.53,3.54-3.34l13.82,7.56c1.08.59,2.41.42,3.31-.43l11.46-10.81c1.81-1.7,4.73-.1,4.28,2.34l-2.92,15.48c-.23,1.21.35,2.42,1.43,3.01l13.82,7.56c2.18,1.19,1.56,4.47-.9,4.79l-15.62,2.01c-1.22.16-2.2,1.08-2.43,2.29l-2.92,15.48c-.46,2.44-3.77,2.86-4.83.62l-6.74-14.24c-.53-1.11-1.71-1.76-2.92-1.6l-2.4.31-8.96,1.15Z"/>
      <path class="k" d="M432.9,327.9l2.55,1.8c1.47,1.04,3.42-.42,2.83-2.12l-3.7-10.83c-.29-.84,0-1.78.71-2.31l9.15-6.87c1.44-1.08.66-3.38-1.15-3.35l-11.44.18c-.89.01-1.69-.55-1.98-1.39l-3.7-10.83c-.58-1.71-3.01-1.67-3.54.05l-3.37,10.94c-.26.85-1.04,1.44-1.94,1.45l-11.44.18c-1.8.03-2.52,2.35-1.04,3.38l9.36,6.58c.73.51,1.05,1.44.78,2.29l-3.37,10.94c-.53,1.72,1.45,3.12,2.9,2.04l9.15-6.87c.71-.54,1.69-.55,2.42-.04l1.44,1.01,5.37,3.77Z"/>
      <path class="f" d="M141.56,193.4l2.79,2.9c1.61,1.67,4.42.31,4.1-1.99l-2.02-14.61c-.16-1.14.44-2.25,1.47-2.75l13.27-6.44c2.09-1.01,1.66-4.11-.63-4.52l-14.52-2.59c-1.13-.2-2.01-1.11-2.16-2.25l-2.02-14.61c-.32-2.3-3.4-2.85-4.49-.8l-6.95,13.01c-.54,1.01-1.68,1.56-2.81,1.36l-14.52-2.59c-2.29-.41-3.76,2.35-2.15,4.02l10.22,10.63c.8.83.97,2.08.43,3.09l-6.95,13.01c-1.09,2.05,1.07,4.3,3.16,3.29l13.27-6.44c1.03-.5,2.28-.28,3.07.55l1.57,1.63,5.86,6.09Z"/>
      <path class="k" d="M170.55,271.75l2.55,1.8c1.47,1.04,3.42-.42,2.83-2.12l-3.7-10.83c-.29-.84,0-1.78.71-2.31l9.15-6.87c1.44-1.08.66-3.38-1.15-3.35l-11.44.18c-.89.01-1.69-.55-1.98-1.39l-3.7-10.83c-.58-1.71-3.01-1.67-3.54.05l-3.37,10.94c-.26.85-1.04,1.44-1.94,1.45l-11.44.18c-1.8.03-2.52,2.35-1.04,3.38l9.36,6.58c.73.51,1.05,1.44.78,2.29l-3.37,10.94c-.53,1.72,1.45,3.12,2.9,2.04l9.15-6.87c.71-.54,1.69-.55,2.42-.04l1.44,1.01,5.37,3.77Z"/>
      <path class="k" d="M77.59,333.88l-3.15,2.62c-1.82,1.51-4.51-.19-3.93-2.48l3.7-14.55c.29-1.13-.19-2.33-1.18-2.95l-12.69-8.01c-2-1.26-1.22-4.35,1.14-4.5l14.98-.98c1.17-.08,2.15-.9,2.44-2.03l3.7-14.55c.58-2.29,3.76-2.5,4.63-.3l5.56,13.94c.43,1.09,1.52,1.77,2.69,1.7l14.98-.98c2.36-.15,3.54,2.8,1.72,4.31l-11.54,9.6c-.9.75-1.22,1.99-.78,3.08l5.56,13.94c.88,2.2-1.57,4.23-3.57,2.97l-12.69-8.01c-.99-.62-2.27-.54-3.17.21l-1.78,1.48-6.62,5.5Z"/>
    </g>
    <g>
      <path d="M271.14,143.32c-1.54,0-3.09-.49-4.39-1.47l-13.04-9.78-13.33,9.38c-2.6,1.83-6.05,1.78-8.6-.13-2.54-1.91-3.56-5.21-2.53-8.22l5.27-15.42-13.04-9.78c-2.54-1.91-3.56-5.21-2.53-8.22,1.02-2.97,3.79-4.95,6.92-4.95.04,0,.08,0,.12,0l16.29.25,5.27-15.42c1.03-3.01,3.82-4.99,7.03-4.95,3.18.05,5.94,2.12,6.88,5.16l4.8,15.57,16.3.25c3.18.05,5.94,2.12,6.88,5.16s-.18,6.31-2.78,8.14l-13.33,9.38,4.8,15.57c.93,3.04-.18,6.31-2.78,8.14-1.27.89-2.74,1.34-4.21,1.34ZM253.74,122.74c1.61,0,3.21.51,4.57,1.53l9.69,7.27-3.57-11.58c-.97-3.17.19-6.57,2.9-8.47l9.91-6.97-12.11-.19c-3.31-.05-6.18-2.21-7.16-5.37l-3.57-11.58-3.92,11.46c-1.06,3.09-3.95,5.15-7.2,5.15-.04,0-.08,0-.12,0l-12.12-.19,9.69,7.27c2.65,1.98,3.71,5.42,2.63,8.55l-3.92,11.46,9.91-6.97c1.32-.93,2.85-1.39,4.38-1.39Z"/>
      <path d="M388.51,193.7c-1.34,0-2.68-.43-3.82-1.28l-7.74-5.8-7.91,5.56c-2.26,1.59-5.26,1.54-7.48-.11-2.21-1.66-3.1-4.53-2.2-7.15l3.13-9.15-7.74-5.8c-2.21-1.66-3.1-4.53-2.2-7.15.88-2.58,3.29-4.3,6.02-4.3.03,0,.07,0,.1,0l9.67.15,3.13-9.15c.88-2.58,3.29-4.3,6.02-4.3.03,0,.07,0,.1,0,2.76.04,5.17,1.85,5.98,4.49l2.85,9.24,9.67.15c2.76.04,5.17,1.85,5.98,4.49.81,2.64-.16,5.48-2.42,7.07l-7.91,5.56,2.85,9.24c.81,2.64-.16,5.49-2.42,7.08-1.1.78-2.38,1.16-3.66,1.16ZM377,177.04c1.38,0,2.77.44,3.94,1.32l2.66,2-.98-3.17c-.84-2.72.16-5.66,2.5-7.3l2.72-1.91-3.32-.05c-2.85-.04-5.33-1.9-6.17-4.63l-.98-3.17-1.07,3.14c-.91,2.67-3.4,4.44-6.21,4.44-.03,0-.07,0-.1,0l-3.32-.05,2.66,1.99c2.28,1.71,3.19,4.67,2.27,7.37l-1.08,3.14,2.72-1.91c1.14-.8,2.46-1.2,3.77-1.2Z"/>
      <path d="M352.22,289.98c-2.73,0-5.25-1.56-6.44-4.08l-6.43-13.59-14.92,1.92c-3.08.39-6.03-1.22-7.36-4.02-1.33-2.8-.7-6.12,1.55-8.24l10.94-10.32-6.43-13.59c-1.33-2.8-.7-6.11,1.55-8.24,2.26-2.13,5.6-2.56,8.32-1.07l13.2,7.22,10.94-10.32c2.26-2.13,5.6-2.56,8.32-1.07,2.72,1.49,4.16,4.53,3.59,7.58l-2.79,14.78,13.2,7.22c2.72,1.49,4.16,4.53,3.59,7.58-.57,3.05-3.03,5.36-6.1,5.75l-14.92,1.92-2.79,14.78c-.57,3.05-3.02,5.36-6.1,5.75-.31.04-.62.06-.92.06ZM340.3,263.17c2.84,0,5.45,1.62,6.69,4.25l4.47,9.44,1.94-10.27c.59-3.17,3.14-5.57,6.34-5.98l10.36-1.33-9.17-5.01c-2.83-1.55-4.33-4.71-3.73-7.88l1.94-10.27-7.6,7.17c-2.35,2.21-5.82,2.66-8.65,1.11l-9.16-5.01,4.47,9.44c1.38,2.91.73,6.36-1.62,8.57l-7.6,7.17,10.36-1.33c.32-.04.64-.06.96-.06Z"/>
      <path d="M413.4,334.9c-1.28,0-2.56-.39-3.66-1.16-2.26-1.59-3.23-4.43-2.42-7.08l2.85-9.24-7.91-5.56c-2.26-1.59-3.23-4.43-2.42-7.08.81-2.64,3.22-4.45,5.98-4.49l9.67-.15,2.85-9.24c.82-2.64,3.22-4.45,5.98-4.49h.1c2.72,0,5.13,1.72,6.02,4.3l3.13,9.15,9.67-.15s.07,0,.1,0c2.72,0,5.13,1.72,6.02,4.3.89,2.62,0,5.49-2.2,7.15l-7.73,5.8,3.13,9.15c.89,2.62,0,5.49-2.2,7.15-2.21,1.66-5.22,1.7-7.48.11l-7.91-5.56-7.73,5.8c-1.13.85-2.48,1.28-3.82,1.28ZM414.08,309.17l2.72,1.91c2.33,1.64,3.33,4.57,2.5,7.3l-.98,3.17,2.66-1.99c2.29-1.71,5.38-1.75,7.71-.12l2.72,1.91-1.08-3.14c-.92-2.7-.01-5.66,2.27-7.37l2.66-1.99-3.32.05c-2.85.09-5.38-1.74-6.31-4.43l-1.08-3.14-.98,3.17c-.84,2.72-3.32,4.58-6.17,4.63l-3.32.05ZM431.79,299.89h0,0Z"/>
      <path d="M149.33,204.36c-1.79,0-3.56-.67-4.93-1.95l-11.48-10.73-13.76,7.6c-2.75,1.52-6.14,1.1-8.44-1.05-2.29-2.15-2.94-5.5-1.61-8.35l6.66-14.24-11.48-10.73c-2.29-2.15-2.94-5.5-1.61-8.34,1.33-2.85,4.31-4.5,7.44-4.11l15.6,1.94,6.66-14.24c1.33-2.85,4.32-4.5,7.44-4.11,3.12.39,5.61,2.72,6.21,5.8l2.98,15.43,15.6,1.94c3.12.39,5.61,2.72,6.21,5.8.6,3.09-.85,6.18-3.6,7.7l-13.75,7.6,2.98,15.43c.6,3.08-.85,6.18-3.6,7.7-1.1.61-2.31.91-3.5.91ZM133.14,182.33c1.86,0,3.7.69,5.13,2.03l8.29,7.75-2.15-11.14c-.62-3.21.88-6.43,3.75-8.01l9.93-5.49-11.26-1.4c-3.24-.4-5.84-2.83-6.46-6.04l-2.15-11.14-4.81,10.28c-1.39,2.96-4.5,4.68-7.74,4.28l-11.26-1.4,8.29,7.75c2.39,2.23,3.06,5.72,1.68,8.68l-4.81,10.28,9.93-5.49c1.15-.63,2.4-.94,3.64-.94Z"/>
      <path d="M151.06,278.74c-1.28,0-2.56-.39-3.66-1.16-2.26-1.59-3.24-4.43-2.42-7.08l2.85-9.24-7.91-5.56c-2.26-1.59-3.23-4.43-2.42-7.08.81-2.64,3.22-4.45,5.98-4.49l9.67-.15,2.85-9.24c.81-2.64,3.22-4.45,5.98-4.49h.1c2.72,0,5.13,1.72,6.02,4.3l3.13,9.15,9.67-.15s.07,0,.1,0c2.72,0,5.13,1.72,6.01,4.3.9,2.62.01,5.49-2.2,7.15l-7.74,5.8,3.13,9.15c.89,2.62,0,5.49-2.2,7.15-2.21,1.66-5.21,1.71-7.48.12l-7.91-5.56-7.74,5.8c-1.13.85-2.47,1.28-3.82,1.28ZM151.73,253.01l2.72,1.91c2.33,1.64,3.33,4.57,2.5,7.3l-.98,3.17,2.66-1.99c2.28-1.71,5.38-1.76,7.71-.12l2.72,1.91-1.08-3.14c-.92-2.7-.01-5.66,2.27-7.37l2.66-1.99-3.32.05c-2.85.04-5.38-1.74-6.31-4.44l-1.07-3.14-.98,3.17c-.84,2.72-3.32,4.58-6.17,4.63l-3.32.05Z"/>
      <path d="M70.51,345.29c-1.35,0-2.7-.37-3.9-1.13-2.68-1.69-3.96-4.9-3.18-7.97l3.99-15.71-13.71-8.65c-2.68-1.69-3.96-4.9-3.18-7.97.78-3.08,3.43-5.28,6.6-5.49l16.18-1.06,4-15.71c.78-3.08,3.44-5.28,6.6-5.49,3.16-.21,6.08,1.64,7.26,4.58l6,15.06,16.18-1.06c3.15-.21,6.08,1.63,7.26,4.58,1.17,2.95.32,6.29-2.12,8.32l-12.47,10.36,6,15.06c1.18,2.95.33,6.29-2.12,8.32-2.44,2.03-5.88,2.25-8.56.56l-13.71-8.65-12.47,10.36c-1.35,1.12-3,1.69-4.67,1.69ZM62.93,306.99l10.15,6.41c2.79,1.76,4.12,5.1,3.31,8.3l-2.96,11.63,9.23-7.67c2.54-2.11,6.13-2.35,8.92-.58l10.15,6.41-4.45-11.15c-1.22-3.07-.34-6.55,2.2-8.66l9.23-7.67-11.98.78c-3.29.22-6.33-1.7-7.56-4.77l-4.45-11.15-2.96,11.63c-.81,3.2-3.58,5.5-6.87,5.71l-11.98.78Z"/>
    </g>
  </g>
</svg>