<?xml version="1.0" encoding="UTF-8"?>
<svg id="b" data-name="Finished icons" xmlns="http://www.w3.org/2000/svg" xmlns:xlink="http://www.w3.org/1999/xlink" viewBox="0 0 500 500">
  <defs>
    <style>
      .n {
        clip-path: url(#i);
      }

      .o {
        fill: #213f0f;
      }

      .p {
        fill: #2c5417;
      }

      .q {
        clip-path: url(#k);
      }

      .r {
        clip-path: url(#m);
      }

      .s {
        clip-path: url(#f);
      }

      .t {
        fill: #5b3b2b;
      }

      .u {
        clip-path: url(#j);
      }

      .v {
        fill: #fff;
      }

      .w {
        fill: #101e07;
      }

      .x {
        fill: none;
      }

      .y {
        clip-path: url(#h);
      }

      .z {
        fill: #ddac9e;
      }

      .aa {
        fill: #d8d8d8;
      }

      .ab {
        fill: #111e09;
      }

      .ac {
        fill: #d89f00;
      }

      .ad {
        fill: #19300b;
      }

      .ae {
        clip-path: url(#g);
      }

      .af {
        fill: #7c5947;
      }

      .ag {
        clip-path: url(#l);
      }

      .ah {
        clip-path: url(#d);
      }

      .ai {
        clip-path: url(#e);
      }

      .aj {
        fill: #eabdac;
      }

      .ak {
        fill: #704d39;
      }

      .al {
        fill: #b7b7b7;
      }

      .am {
        fill: #ffc200;
      }

      .an {
        clip-path: url(#c);
      }

      .ao {
        fill: #e8e8e8;
      }
    </style>
    <clipPath id="c">
      <polygon class="p" points="371.25 439.25 128.75 439.25 128.75 329.29 188.88 286.94 250 365.45 311.12 286.94 371.25 329.29 371.25 439.25"/>
    </clipPath>
    <clipPath id="d">
      <polygon class="v" points="311.12 286.94 250 368.84 188.88 286.94 201.19 267.85 299.6 267.85 311.12 286.94"/>
    </clipPath>
    <clipPath id="e">
      <path class="aj" d="M322.26,195.86c-.78,0-1.54.06-2.3.16-8.1-31.08-36.35-54.02-69.97-54.02s-61.87,22.94-69.97,54.02c-.75-.09-1.52-.16-2.3-.16-10.19,0-18.45,8.26-18.45,18.45s8.26,18.45,18.45,18.45c.78,0,1.54-.06,2.3-.16,8.1,31.08,36.35,54.02,69.97,54.02s61.87-22.94,69.97-54.02c.75.09,1.52.16,2.3.16,10.19,0,18.45-8.26,18.45-18.45s-8.26-18.45-18.45-18.45Z"/>
    </clipPath>
    <clipPath id="f">
      <path class="p" d="M324.26,164.12c0,14.64-33.25,26.5-74.26,26.5s-74.26-11.87-74.26-26.5"/>
    </clipPath>
    <clipPath id="g">
      <path class="p" d="M324.26,164.12l16.93-12.11c0-25.39-40.82-70.97-91.18-70.97s-91.18,45.58-91.18,70.97l16.93,12.11h148.51Z"/>
    </clipPath>
    <clipPath id="h">
      <circle class="am" cx="250" cy="110.94" r="9.87"/>
    </clipPath>
    <clipPath id="i">
      <path class="ad" d="M175.74,164.12c12.15-14.53,33.25-26.5,74.26-26.5s64.32,13.25,74.26,26.5h-148.51Z"/>
    </clipPath>
    <clipPath id="j">
      <path d="M250,195.13c-38.18,0-78.76-10.87-78.76-31h9c0,9.19,26.54,22,69.76,22s69.76-12.82,69.76-22h9c0,20.14-40.58,31-78.76,31Z"/>
    </clipPath>
    <clipPath id="k">
      <path d="M325.7,168.62h-151.4l-19.98-14.3v-2.31c0-14.25,11.08-33.24,28.23-48.38,11.46-10.12,35.46-27.09,67.46-27.09s56,16.97,67.46,27.09c17.15,15.14,28.23,34.13,28.23,48.38v2.31l-19.98,14.3ZM177.19,159.62h145.63l13.75-9.84c-1.17-11.45-10.94-26.93-25.07-39.4-10.51-9.28-32.47-24.84-61.5-24.84s-50.99,15.56-61.5,24.84c-14.12,12.47-23.9,27.96-25.07,39.4l13.75,9.84Z"/>
    </clipPath>
    <clipPath id="l">
      <path d="M250,125.31c-7.92,0-14.37-6.45-14.37-14.37s6.45-14.37,14.37-14.37,14.37,6.45,14.37,14.37-6.45,14.37-14.37,14.37ZM250,105.57c-2.96,0-5.37,2.41-5.37,5.37s2.41,5.37,5.37,5.37,5.37-2.41,5.37-5.37-2.41-5.37-5.37-5.37Z"/>
    </clipPath>
    <clipPath id="m">
      <path d="M324.26,168.62h-148.51l-3.45-7.39c15.82-18.92,41.24-28.12,77.71-28.12,51.12,0,71.48,19.79,77.86,28.3l-3.6,7.2ZM186.63,159.62h127c-9.7-7.95-28.65-17.5-63.63-17.5-28.25,0-49.11,5.74-63.37,17.5Z"/>
    </clipPath>
  </defs>
  <g>
    <g>
      <polygon class="p" points="371.25 439.25 128.75 439.25 128.75 329.29 188.88 286.94 250 365.45 311.12 286.94 371.25 329.29 371.25 439.25"/>
      <g class="an">
        <rect class="ad" x="250" y="60.83" width="189.17" height="378.33"/>
        <polygon class="ad" points="173.87 295.96 173.87 324.88 128.75 355.74 128.75 329.29 173.87 295.96"/>
        <polygon class="w" points="326.13 297.52 326.13 325.85 371.54 356.03 372.72 326.77 326.13 297.52"/>
      </g>
    </g>
    <g>
      <polygon class="v" points="311.12 286.94 250 368.84 188.88 286.94 201.19 267.85 299.6 267.85 311.12 286.94"/>
      <g class="ah">
        <rect class="ao" x="250" y="197.99" width="76.19" height="186.76"/>
        <polygon class="aa" points="229.63 302.27 209.26 316.72 225.91 337.63 237.85 311.67 229.63 302.27"/>
        <polygon class="al" points="263.88 312.74 270.78 302.27 288.87 315.94 273.85 339.91 263.88 312.74"/>
      </g>
    </g>
    <g>
      <path class="am" d="M154.09,402.45l-2.55,1.8c-1.47,1.04-3.42-.42-2.83-2.12l3.7-10.83c.29-.84,0-1.78-.71-2.31l-9.15-6.87c-1.44-1.08-.66-3.38,1.15-3.35l11.44.18c.89.01,1.69-.55,1.98-1.39l3.7-10.83c.58-1.71,3.01-1.67,3.54.05l3.37,10.94c.26.85,1.04,1.44,1.94,1.45l11.44.18c1.8.03,2.52,2.35,1.04,3.38l-9.36,6.58c-.73.51-1.05,1.44-.78,2.29l3.37,10.94c.53,1.72-1.45,3.12-2.9,2.04l-9.15-6.87c-.71-.54-1.69-.55-2.42-.04l-1.44,1.01-5.37,3.77Z"/>
      <path class="am" d="M207.19,402.45l-2.55,1.8c-1.47,1.04-3.42-.42-2.83-2.12l3.7-10.83c.29-.84,0-1.78-.71-2.31l-9.15-6.87c-1.44-1.08-.66-3.38,1.15-3.35l11.44.18c.89.01,1.69-.55,1.98-1.39l3.7-10.83c.58-1.71,3.01-1.67,3.54.05l3.37,10.94c.26.85,1.04,1.44,1.94,1.45l11.44.18c1.8.03,2.52,2.35,1.04,3.38l-9.36,6.58c-.73.51-1.05,1.44-.78,2.29l3.37,10.94c.53,1.72-1.45,3.12-2.9,2.04l-9.15-6.87c-.71-.54-1.69-.55-2.42-.04l-1.44,1.01-5.37,3.77Z"/>
      <path class="ac" d="M276.29,402.45l-2.55,1.8c-1.47,1.04-3.42-.42-2.83-2.12l3.7-10.83c.29-.84,0-1.78-.71-2.31l-9.15-6.87c-1.44-1.08-.66-3.38,1.15-3.35l11.44.18c.89.01,1.69-.55,1.98-1.39l3.7-10.83c.58-1.71,3.01-1.67,3.54.05l3.37,10.94c.26.85,1.04,1.44,1.94,1.45l11.44.18c1.8.03,2.52,2.35,1.04,3.38l-9.36,6.58c-.73.51-1.05,1.44-.78,2.29l3.37,10.94c.53,1.72-1.45,3.12-2.9,2.04l-9.15-6.87c-.71-.54-1.69-.55-2.42-.04l-1.44,1.01-5.37,3.77Z"/>
      <path class="ac" d="M329.39,402.45l-2.55,1.8c-1.47,1.04-3.42-.42-2.83-2.12l3.7-10.83c.29-.84,0-1.78-.71-2.31l-9.15-6.87c-1.44-1.08-.66-3.38,1.15-3.35l11.44.18c.89.01,1.69-.55,1.98-1.39l3.7-10.83c.58-1.71,3.01-1.67,3.54.05l3.37,10.94c.26.85,1.04,1.44,1.94,1.45l11.44.18c1.8.03,2.52,2.35,1.04,3.38l-9.36,6.58c-.73.51-1.05,1.44-.78,2.29l3.37,10.94c.53,1.72-1.45,3.12-2.9,2.04l-9.15-6.87c-.71-.54-1.69-.55-2.42-.04l-1.44,1.01-5.37,3.77Z"/>
    </g>
  </g>
  <g>
    <g>
      <polygon points="368.66 359.41 321.63 326.27 321.63 297.52 330.63 297.52 330.63 321.6 373.84 352.06 368.66 359.41"/>
      <polygon points="131.34 359.41 126.16 352.06 169.37 321.6 169.37 297.52 178.37 297.52 178.37 326.27 131.34 359.41"/>
    </g>
    <g>
      <polygon points="133.25 439.25 124.25 439.25 124.25 326.95 186.29 283.27 191.47 290.62 133.25 331.62 133.25 439.25"/>
      <polygon points="375.75 439.25 366.75 439.25 366.75 331.62 308.53 290.62 313.71 283.27 375.75 326.95 375.75 439.25"/>
    </g>
    <g>
      <polygon points="254.5 439.17 245.5 439.17 245.5 369.14 305.66 286.79 295.03 270.28 302.59 265.41 316.57 287.1 254.5 372.08 254.5 439.17"/>
      <polygon points="246.37 373.26 183.43 287.1 197.41 265.41 204.97 270.28 194.34 286.79 253.63 367.95 246.37 373.26"/>
    </g>
    <path d="M250,320.78c-13.69,0-24.82-11.13-24.82-24.82s11.13-24.82,24.82-24.82,24.82,11.13,24.82,24.82-11.13,24.82-24.82,24.82ZM250,280.14c-8.72,0-15.82,7.1-15.82,15.82s7.1,15.82,15.82,15.82,15.82-7.1,15.82-15.82-7.1-15.82-15.82-15.82Z"/>
    <g>
      <rect x="264.82" y="310.6" width="9" height="28.57" transform="translate(-103.43 127.04) rotate(-22.38)"/>
      <rect x="216.4" y="320.38" width="28.57" height="9" transform="translate(-157.57 414.45) rotate(-67.61)"/>
    </g>
    <g>
      <rect x="275.53" y="296.91" width="9" height="24.72" transform="translate(-133.48 364.75) rotate(-55.48)"/>
      <rect x="207.61" y="304.77" width="24.72" height="9" transform="translate(-136.52 179.07) rotate(-34.51)"/>
    </g>
    <path d="M348.89,409.44c-1.34,0-2.68-.43-3.82-1.28l-7.74-5.8-7.91,5.56c-2.26,1.59-5.26,1.54-7.48-.11s-3.1-4.53-2.2-7.15l3.13-9.15-7.74-5.8c-2.21-1.66-3.1-4.53-2.2-7.15.88-2.58,3.29-4.3,6.02-4.3.03,0,.07,0,.1,0l9.67.15,3.13-9.15c.89-2.62,3.38-4.33,6.12-4.3,2.76.04,5.17,1.85,5.98,4.49l2.85,9.24,9.67.15c2.76.04,5.17,1.84,5.98,4.49.81,2.64-.16,5.49-2.42,7.08l-7.91,5.56,2.85,9.24c.81,2.64-.16,5.48-2.42,7.07-1.1.78-2.38,1.16-3.66,1.16ZM337.39,392.78c1.39,0,2.77.44,3.94,1.32l2.66,1.99-.98-3.17c-.84-2.72.16-5.66,2.5-7.3l2.72-1.91-3.32-.05c-2.85-.04-5.33-1.9-6.17-4.63l-.98-3.17-1.07,3.14c-.91,2.67-3.4,4.44-6.21,4.44-.03,0-.07,0-.1,0l-3.32-.05,2.66,1.99c2.28,1.71,3.19,4.68,2.27,7.37l-1.08,3.14,2.72-1.91c1.14-.8,2.46-1.2,3.78-1.2Z"/>
    <path d="M173.59,409.44c-1.34,0-2.68-.43-3.82-1.28l-7.73-5.8-7.91,5.56c-2.26,1.59-5.26,1.54-7.48-.12-2.21-1.66-3.09-4.53-2.2-7.15l3.13-9.15-7.74-5.8c-2.21-1.66-3.1-4.53-2.2-7.15.88-2.58,3.29-4.3,6.02-4.3.03,0,.07,0,.1,0l9.67.15,3.13-9.15c.9-2.62,3.32-4.33,6.12-4.3,2.76.04,5.17,1.85,5.98,4.49l2.85,9.24,9.67.15c2.76.04,5.17,1.84,5.98,4.49.81,2.64-.16,5.49-2.42,7.08l-7.91,5.56,2.85,9.24c.81,2.64-.16,5.49-2.42,7.08-1.1.78-2.38,1.16-3.66,1.16ZM162.08,392.78c1.39,0,2.77.44,3.94,1.32l2.66,1.99-.98-3.17c-.84-2.72.16-5.65,2.49-7.29l2.72-1.91-3.32-.05c-2.85-.04-5.33-1.9-6.17-4.63l-.98-3.18-1.08,3.14c-.92,2.7-3.44,4.52-6.31,4.44l-3.32-.05,2.66,1.99c2.28,1.71,3.19,4.68,2.27,7.37l-1.08,3.14,2.72-1.91c1.14-.8,2.46-1.2,3.78-1.2Z"/>
    <path d="M226.69,409.44c-1.34,0-2.68-.43-3.82-1.28l-7.73-5.8-7.91,5.56c-2.26,1.59-5.27,1.54-7.48-.12-2.21-1.66-3.09-4.53-2.2-7.15l3.13-9.15-7.74-5.8c-2.21-1.66-3.1-4.53-2.2-7.15.88-2.58,3.29-4.3,6.02-4.3.03,0,.07,0,.1,0l9.67.15,3.13-9.15c.88-2.58,3.29-4.3,6.02-4.3h.1c2.76.04,5.17,1.85,5.98,4.49l2.85,9.24,9.67.15c2.76.04,5.17,1.84,5.98,4.49.81,2.64-.16,5.49-2.42,7.08l-7.91,5.56,2.85,9.24c.81,2.64-.16,5.49-2.42,7.08-1.1.78-2.38,1.16-3.66,1.16ZM215.19,392.78c1.39,0,2.77.44,3.94,1.32l2.66,1.99-.98-3.17c-.84-2.72.16-5.66,2.5-7.3l2.72-1.91-3.32-.05c-2.85-.04-5.33-1.9-6.17-4.63l-.98-3.18-1.08,3.14c-.91,2.66-3.39,4.44-6.21,4.44-.03,0-.07,0-.1,0l-3.32-.05,2.66,1.99c2.28,1.71,3.19,4.68,2.27,7.37l-1.08,3.14,2.72-1.91c1.14-.8,2.46-1.2,3.78-1.2Z"/>
    <path d="M295.79,409.44c-1.34,0-2.68-.43-3.82-1.28l-7.74-5.8-7.91,5.56c-2.26,1.59-5.26,1.54-7.48-.11-2.21-1.66-3.1-4.53-2.2-7.15l3.13-9.15-7.74-5.8c-2.21-1.66-3.1-4.53-2.2-7.15.88-2.58,3.29-4.3,6.02-4.3.03,0,.07,0,.1,0l9.67.15,3.13-9.15c.89-2.62,3.38-4.33,6.12-4.3,2.76.04,5.17,1.85,5.98,4.49l2.85,9.24,9.67.15c2.76.04,5.17,1.84,5.98,4.49.81,2.64-.16,5.49-2.42,7.08l-7.91,5.56,2.85,9.24c.81,2.64-.16,5.49-2.42,7.08-1.1.78-2.38,1.16-3.66,1.16ZM284.28,392.78c1.39,0,2.77.44,3.94,1.32l2.66,1.99-.98-3.17c-.84-2.72.16-5.66,2.5-7.3l2.72-1.91-3.32-.05c-2.85-.04-5.33-1.9-6.17-4.63l-.98-3.17-1.07,3.14c-.91,2.67-3.4,4.44-6.21,4.44-.03,0-.07,0-.1,0l-3.32-.05,2.66,1.99c2.28,1.71,3.19,4.68,2.27,7.37l-1.08,3.14,2.72-1.91c1.14-.8,2.46-1.2,3.78-1.2Z"/>
  </g>
  <g>
    <g>
      <g>
        <path class="aj" d="M322.26,195.86c-.78,0-1.54.06-2.3.16-8.1-31.08-36.35-54.02-69.97-54.02s-61.87,22.94-69.97,54.02c-.75-.09-1.52-.16-2.3-.16-10.19,0-18.45,8.26-18.45,18.45s8.26,18.45,18.45,18.45c.78,0,1.54-.06,2.3-.16,8.1,31.08,36.35,54.02,69.97,54.02s61.87-22.94,69.97-54.02c.75.09,1.52.16,2.3.16,10.19,0,18.45-8.26,18.45-18.45s-8.26-18.45-18.45-18.45Z"/>
        <g class="ai">
          <rect class="z" x="249.89" y="16.79" width="193.49" height="455.72"/>
        </g>
      </g>
      <path class="x" d="M321.51,197.27c-.77,0-1.53.06-2.27.16-8.02-30.76-35.98-53.46-69.24-53.46s-61.23,22.7-69.24,53.46c-.75-.09-1.5-.16-2.27-.16-10.08,0-18.26,8.17-18.26,18.26s8.17,18.26,18.26,18.26c.77,0,1.53-.06,2.27-.16,8.02,30.76,35.98,53.46,69.24,53.46s61.23-22.7,69.24-53.46c.75.09,1.5.16,2.27.16,10.08,0,18.26-8.17,18.26-18.26s-8.17-18.26-18.26-18.26Z"/>
      <g>
        <rect x="221.93" y="197.99" width="8.62" height="23.27" rx="3.14" ry="3.14"/>
        <rect x="269.45" y="197.99" width="8.62" height="23.27" rx="3.14" ry="3.14"/>
      </g>
    </g>
    <path d="M250,291.59c-33.39,0-62.74-21.75-72.6-53.33-12.05-.57-21.67-10.55-21.67-22.73s9.63-22.16,21.67-22.73c9.86-31.58,39.2-53.33,72.6-53.33s62.74,21.75,72.6,53.33c12.05.57,21.67,10.55,21.67,22.73s-9.63,22.16-21.67,22.73c-9.86,31.58-39.2,53.33-72.6,53.33ZM184.12,228.68l1,3.82c7.69,29.49,34.37,50.09,64.89,50.09s57.2-20.6,64.89-50.09l1-3.82,3.92.49c.67.08,1.21.12,1.72.12,7.59,0,13.76-6.17,13.76-13.76s-6.17-13.76-13.76-13.76c-.5,0-1.05.04-1.72.12l-3.92.49-1-3.82c-7.69-29.49-34.37-50.09-64.89-50.09s-57.2,20.6-64.89,50.09l-1,3.82-3.92-.49c-.67-.08-1.21-.12-1.72-.12-7.59,0-13.76,6.17-13.76,13.76s6.17,13.76,13.76,13.76c.5,0,1.05-.04,1.72-.12l3.92-.49Z"/>
    <g>
      <rect class="x" x="221.93" y="197.99" width="8.62" height="23.27" rx="3.14" ry="3.14"/>
      <rect class="x" x="269.45" y="197.99" width="8.62" height="23.27" rx="3.14" ry="3.14"/>
    </g>
    <g>
      <g>
        <path class="t" d="M319.97,195.84c-4.79,2.91-7.73,8.04-8.47,15.78-13.55-6.4-18.75-14.42-18.75-30.65l24.12-16.85c6.51,6.39,8.02,16.6,3.1,31.72Z"/>
        <path class="ak" d="M179.52,195.84c4.79,2.91,7.73,8.04,8.47,15.78,13.55-6.4,18.75-14.42,18.75-30.65l-22.84-16.85c-6.42,9.44-9.12,19.73-4.37,31.72Z"/>
      </g>
      <path class="x" d="M316.88,164.12c7.51,10.08,7.63,20.99,1.61,32.57-4.69,2.74-7.56,7.56-8.29,14.83-13.26-6.02-18.34-14.55-18.34-29.8"/>
      <path class="x" d="M183.9,164.12c-8.31,12.65-8.62,23.35-2.82,32.57,4.69,2.74,7.56,7.56,8.29,14.83,13.26-6.02,18.34-14.55,18.34-29.8"/>
    </g>
    <g>
      <g>
        <path class="x" d="M319.97,195.84c-4.79,2.91-7.73,8.04-8.47,15.78-13.55-6.4-18.75-14.42-18.75-30.65l24.12-16.85c6.51,6.39,8.02,16.6,3.1,31.72Z"/>
        <path class="x" d="M179.52,195.84c4.79,2.91,7.73,8.04,8.47,15.78,13.55-6.4,18.75-14.42,18.75-30.65l-22.84-16.85c-6.42,9.44-9.12,19.73-4.37,31.72Z"/>
      </g>
      <path d="M308.34,215.62c-14.71-6.67-20.98-16.81-20.98-33.89h9c0,11.48,2.88,18.07,10.62,22.99,1.52-4.82,4.21-8.56,8.04-11.16,4.82-9.93,4.25-18.69-1.76-26.75l7.22-5.38c8.36,11.23,9.03,23.79,1.99,37.34l-1.72,1.81c-3.53,2.06-5.52,5.78-6.08,11.39l-6.34,3.65Z"/>
      <path d="M191.22,215.62l-6.34-3.65c-.56-5.6-2.55-9.33-6.08-11.39l-1.54-1.49c-7.05-11.21-6.09-23.8,2.87-37.44l7.52,4.94c-6.7,10.2-7.78,19-3.28,26.86,3.92,2.6,6.66,6.38,8.2,11.27,7.74-4.93,10.62-11.51,10.62-22.99h9c0,17.08-6.27,27.22-20.98,33.89Z"/>
    </g>
    <g>
      <ellipse class="ak" cx="270.78" cy="245.28" rx="7.6" ry="22.14" transform="translate(-57.35 405.97) rotate(-68.26)"/>
      <ellipse class="af" cx="229.22" cy="245.28" rx="22.14" ry="7.6" transform="translate(-74.54 102.34) rotate(-21.74)"/>
    </g>
    <g>
      <path d="M284.54,260.6c-.46,0-.93-.01-1.43-.04-4.9-.24-10.87-1.68-16.81-4.05-5.94-2.37-11.26-5.43-14.98-8.63-6.31-5.42-6.36-9.78-5.28-12.47,1.07-2.7,4.11-5.83,12.41-5.42,4.9.24,10.87,1.68,16.81,4.05,12.32,4.91,23.36,13.34,20.26,21.1-1.01,2.54-3.75,5.45-10.98,5.45ZM255.16,239.06c1.68,2.13,6.49,5.92,14.47,9.11,7.99,3.18,14.08,3.74,16.77,3.35-1.68-2.13-6.49-5.92-14.47-9.11-7.99-3.19-14.08-3.73-16.77-3.35Z"/>
      <path d="M215.46,260.6c-7.24,0-9.97-2.92-10.98-5.45-3.09-7.76,7.95-16.19,20.27-21.1,5.94-2.37,11.91-3.81,16.81-4.05,8.3-.41,11.34,2.72,12.41,5.42,1.08,2.69,1.03,7.05-5.28,12.47-3.72,3.2-9.04,6.26-14.99,8.63-5.94,2.37-11.91,3.81-16.81,4.05-.49.02-.97.04-1.43.04ZM213.6,251.51c2.68.38,8.78-.17,16.77-3.35s12.79-6.98,14.48-9.11c-2.68-.38-8.78.17-16.77,3.35-7.99,3.18-12.79,6.98-14.48,9.11Z"/>
    </g>
    <g>
      <g>
        <path class="p" d="M324.26,164.12c0,14.64-33.25,26.5-74.26,26.5s-74.26-11.87-74.26-26.5"/>
        <g class="s">
          <rect class="o" x="250" y="60.83" width="189.17" height="378.33"/>
        </g>
      </g>
      <g>
        <path class="p" d="M324.26,164.12l16.93-12.11c0-25.39-40.82-70.97-91.18-70.97s-91.18,45.58-91.18,70.97l16.93,12.11h148.51Z"/>
        <g class="ae">
          <rect class="o" x="250" y="60.83" width="189.17" height="378.33"/>
        </g>
      </g>
      <g>
        <circle class="am" cx="250" cy="110.94" r="9.87"/>
        <g class="y">
          <rect class="ac" x="250" y="60.83" width="189.17" height="378.33"/>
        </g>
      </g>
      <g>
        <path class="ad" d="M175.74,164.12c12.15-14.53,33.25-26.5,74.26-26.5s64.32,13.25,74.26,26.5h-148.51Z"/>
        <g class="n">
          <rect class="ab" x="250" y="60.83" width="189.17" height="378.33"/>
        </g>
      </g>
    </g>
    <g>
      <g>
        <path d="M250,195.13c-38.18,0-78.76-10.87-78.76-31h9c0,9.19,26.54,22,69.76,22s69.76-12.82,69.76-22h9c0,20.14-40.58,31-78.76,31Z"/>
        <g class="u">
          <rect class="x" x="250" y="60.83" width="189.17" height="378.33"/>
        </g>
      </g>
      <g>
        <path d="M325.7,168.62h-151.4l-19.98-14.3v-2.31c0-14.25,11.08-33.24,28.23-48.38,11.46-10.12,35.46-27.09,67.46-27.09s56,16.97,67.46,27.09c17.15,15.14,28.23,34.13,28.23,48.38v2.31l-19.98,14.3ZM177.19,159.62h145.63l13.75-9.84c-1.17-11.45-10.94-26.93-25.07-39.4-10.51-9.28-32.47-24.84-61.5-24.84s-50.99,15.56-61.5,24.84c-14.12,12.47-23.9,27.96-25.07,39.4l13.75,9.84Z"/>
        <g class="q">
          <rect class="x" x="250" y="60.83" width="189.17" height="378.33"/>
        </g>
      </g>
      <g>
        <path d="M250,125.31c-7.92,0-14.37-6.45-14.37-14.37s6.45-14.37,14.37-14.37,14.37,6.45,14.37,14.37-6.45,14.37-14.37,14.37ZM250,105.57c-2.96,0-5.37,2.41-5.37,5.37s2.41,5.37,5.37,5.37,5.37-2.41,5.37-5.37-2.41-5.37-5.37-5.37Z"/>
        <g class="ag">
          <rect class="x" x="250" y="60.83" width="189.17" height="378.33"/>
        </g>
      </g>
      <g>
        <path d="M324.26,168.62h-148.51l-3.45-7.39c15.82-18.92,41.24-28.12,77.71-28.12,51.12,0,71.48,19.79,77.86,28.3l-3.6,7.2ZM186.63,159.62h127c-9.7-7.95-28.65-17.5-63.63-17.5-28.25,0-49.11,5.74-63.37,17.5Z"/>
        <g class="r">
          <rect class="x" x="250" y="60.83" width="189.17" height="378.33"/>
        </g>
      </g>
    </g>
  </g>
</svg>