<?xml version="1.0" encoding="UTF-8"?>
<svg id="b" data-name="Finished icons" xmlns="http://www.w3.org/2000/svg" xmlns:xlink="http://www.w3.org/1999/xlink" viewBox="0 0 500 500">
  <defs>
    <style>
      .i {
        fill: #414e7a;
      }

      .j {
        fill: #151d3d;
      }

      .k {
        clip-path: url(#f);
      }

      .l {
        fill: #323f63;
      }

      .m {
        fill: #fff;
      }

      .n {
        fill: none;
      }

      .o {
        fill: #1e2751;
      }

      .p {
        clip-path: url(#h);
      }

      .q {
        fill: #ddac9e;
      }

      .r {
        fill: #d89f00;
      }

      .s {
        clip-path: url(#g);
      }

      .t {
        clip-path: url(#d);
      }

      .u {
        clip-path: url(#e);
      }

      .v {
        fill: #eabdac;
      }

      .w {
        fill: #ffc200;
      }

      .x {
        clip-path: url(#c);
      }

      .y {
        fill: #e8e8e8;
      }
    </style>
    <clipPath id="c">
      <polygon class="o" points="250 72.08 94.1 126.19 250 180.3 405.9 126.19 250 72.08"/>
    </clipPath>
    <clipPath id="d">
      <path d="M251.48,184.55h-2.95l-155.9-54.11v-8.5l155.9-54.11h2.95l155.9,54.11v8.5l-155.9,54.11ZM107.82,126.19l142.17,49.34,142.17-49.34-142.17-49.34-142.17,49.34Z"/>
    </clipPath>
    <clipPath id="e">
      <polygon class="o" points="371.48 427.92 128.98 427.92 128.98 329.96 189.11 284.62 250.23 330.42 311.34 284.62 371.48 329.96 371.48 427.92"/>
    </clipPath>
    <clipPath id="f">
      <polygon class="m" points="311.34 284.62 250.23 330.42 189.11 284.62 211.42 256.52 289.83 256.52 311.34 284.62"/>
    </clipPath>
    <clipPath id="g">
      <path class="v" d="M322.49,184.53c-.78,0-1.54.06-2.3.16-8.1-31.08-36.35-54.02-69.97-54.02s-61.87,22.94-69.97,54.02c-.75-.09-1.52-.16-2.3-.16-10.19,0-18.45,8.26-18.45,18.45s8.26,18.45,18.45,18.45c.78,0,1.54-.06,2.3-.16,8.1,31.08,36.35,54.02,69.97,54.02s61.87-22.94,69.97-54.02c.75.09,1.52.16,2.3.16,10.19,0,18.45-8.26,18.45-18.45s-8.26-18.45-18.45-18.45Z"/>
    </clipPath>
    <clipPath id="h">
      <path class="i" d="M329.21,137.1c-53.47-13.13-106.09-13.13-158.22,0v27.7c52.14-13.13,104.75-13.13,158.22,0v-27.7Z"/>
    </clipPath>
  </defs>
  <g>
    <path class="r" d="M331.41,219.69s17.96,21.73,6.49,45.51c-11.48,23.77-87.89,0-87.89,0"/>
    <path class="w" d="M168.59,219.69s-17.96,21.73-6.49,45.51c11.48,23.77,87.89,0,87.89,0"/>
    <g>
      <polygon class="o" points="250 72.08 94.1 126.19 250 180.3 405.9 126.19 250 72.08"/>
      <g class="x">
        <rect class="j" x="250.23" y="49.51" width="189.17" height="378.33"/>
      </g>
    </g>
  </g>
  <g>
    <path d="M309.82,280.24c-6.13,0-13.07-.56-20.82-1.68-20.65-2.99-39.54-8.83-40.34-9.07l2.67-8.59c28.12,8.74,75.38,17.1,82.51,2.34,10.05-20.81-5.25-39.89-5.91-40.69l6.94-5.73c.81.98,19.66,24.26,7.07,50.33-4.21,8.71-14.98,13.09-32.13,13.09Z"/>
    <path d="M190.18,280.24c-17.15,0-27.92-4.38-32.13-13.09-12.59-26.07,6.26-49.35,7.07-50.33l6.94,5.73c-.66.8-15.96,19.88-5.91,40.69,7.13,14.76,54.39,6.4,82.51-2.34l2.67,8.59c-.79.25-19.68,6.08-40.34,9.07-7.75,1.12-14.69,1.68-20.82,1.68Z"/>
    <g>
      <path d="M251.48,184.55h-2.95l-155.9-54.11v-8.5l155.9-54.11h2.95l155.9,54.11v8.5l-155.9,54.11ZM107.82,126.19l142.17,49.34,142.17-49.34-142.17-49.34-142.17,49.34Z"/>
      <g class="t">
        <rect class="n" x="250.23" y="49.51" width="189.17" height="378.33"/>
      </g>
    </g>
  </g>
  <g>
    <g>
      <polygon class="o" points="371.48 427.92 128.98 427.92 128.98 329.96 189.11 284.62 250.23 330.42 311.34 284.62 371.48 329.96 371.48 427.92"/>
      <g class="u">
        <rect class="j" x="250.23" y="49.51" width="189.17" height="378.33"/>
      </g>
    </g>
    <g>
      <polygon class="m" points="311.34 284.62 250.23 330.42 189.11 284.62 211.42 256.52 289.83 256.52 311.34 284.62"/>
      <g class="k">
        <polygon class="y" points="326.42 382.42 250.23 373.42 250.23 186.66 326.42 195.66 326.42 382.42"/>
      </g>
    </g>
  </g>
  <g>
    <g>
      <polygon points="254.73 427.84 245.73 427.84 245.73 329.05 304.97 283.82 285.51 259.32 292.56 253.72 317.72 285.41 254.73 333.51 254.73 427.84"/>
      <polygon points="247.5 334.86 182.73 285.41 207.89 253.72 214.94 259.32 195.49 283.82 252.96 327.7 247.5 334.86"/>
    </g>
    <g>
      <polygon points="375.98 427.92 366.98 427.92 366.98 332.2 308.63 288.21 314.05 281.02 375.98 327.72 375.98 427.92"/>
      <polygon points="133.48 427.92 124.48 427.92 124.48 327.72 186.4 281.02 191.82 288.21 133.48 332.2 133.48 427.92"/>
    </g>
    <polygon points="270.55 315.56 249.94 286.62 229.41 314.61 222.15 309.29 250.05 271.26 277.88 310.34 270.55 315.56"/>
  </g>
  <g>
    <g>
      <path class="v" d="M322.49,184.53c-.78,0-1.54.06-2.3.16-8.1-31.08-36.35-54.02-69.97-54.02s-61.87,22.94-69.97,54.02c-.75-.09-1.52-.16-2.3-.16-10.19,0-18.45,8.26-18.45,18.45s8.26,18.45,18.45,18.45c.78,0,1.54-.06,2.3-.16,8.1,31.08,36.35,54.02,69.97,54.02s61.87-22.94,69.97-54.02c.75.09,1.52.16,2.3.16,10.19,0,18.45-8.26,18.45-18.45s-8.26-18.45-18.45-18.45Z"/>
      <g class="s">
        <rect class="q" x="250.12" y="5.47" width="193.49" height="455.72"/>
      </g>
    </g>
    <path d="M250.23,280.26c-33.39,0-62.74-21.75-72.6-53.33-12.05-.57-21.67-10.55-21.67-22.73s9.63-22.16,21.67-22.73c9.86-31.58,39.21-53.33,72.6-53.33s62.74,21.75,72.6,53.33c12.05.57,21.67,10.55,21.67,22.73s-9.63,22.16-21.67,22.73c-9.86,31.58-39.2,53.33-72.6,53.33ZM184.34,217.35l1,3.82c7.69,29.49,34.37,50.09,64.89,50.09s57.2-20.6,64.89-50.09l1-3.82,3.92.49c.67.08,1.21.12,1.72.12,7.59,0,13.76-6.17,13.76-13.76s-6.17-13.76-13.76-13.76c-.51,0-1.05.04-1.72.12l-3.92.49-1-3.82c-7.69-29.49-34.37-50.09-64.89-50.09s-57.2,20.6-64.89,50.09l-1,3.82-3.92-.49c-.66-.08-1.21-.12-1.72-.12-7.59,0-13.76,6.17-13.76,13.76s6.17,13.76,13.76,13.76c.5,0,1.05-.04,1.72-.12l3.92-.49Z"/>
    <g>
      <rect x="222.16" y="186.66" width="8.62" height="23.27" rx="3.14" ry="3.14"/>
      <rect x="269.67" y="186.66" width="8.62" height="23.27" rx="3.14" ry="3.14"/>
    </g>
    <g>
      <path class="r" d="M324.69,162.1c13.46,12.84,16.39,19.34,11.32,25.56-4.86-2.63-11.15-2.13-14.71-1.29-4.69,2.74-7.56,7.56-8.29,14.83-13.26-6.02-24.34-26.55-24.34-41.8"/>
      <path class="w" d="M175.31,162.1c-13.46,12.84-16.39,19.34-11.32,25.56,4.86-2.63,11.15-2.13,14.71-1.29,4.69,2.74,7.56,7.56,8.29,14.83,13.26-6.02,24.34-26.55,24.34-41.8"/>
    </g>
    <g>
      <path d="M316.86,207.88l-5.71-2.59c-15.9-7.21-26.98-29.98-26.98-45.89h9c0,12.17,7.62,27.23,16.76,34.59,1.7-5.11,4.75-8.96,9.1-11.5l.58-.34.65-.15c1.92-.45,7.69-1.54,13.55.01.1-2.57-2.19-7.08-12.23-16.65l6.21-6.51c10.68,10.18,20.38,21.01,11.7,31.66l-2.35,2.89-3.28-1.77c-3.18-1.72-7.67-1.64-10.85-1.02-3.18,2.12-4.99,5.74-5.52,11.04l-.62,6.24Z"/>
      <path d="M183.14,207.88l-.62-6.24c-.53-5.3-2.34-8.92-5.52-11.04-3.18-.63-7.68-.7-10.85,1.02l-3.28,1.77-2.35-2.89c-8.67-10.65,1.02-21.48,11.7-31.66l6.21,6.51c-10.04,9.57-12.33,14.07-12.23,16.65,5.86-1.55,11.62-.46,13.55-.01l.65.15.58.34c4.36,2.54,7.4,6.4,9.1,11.5,9.14-7.35,16.76-22.42,16.76-34.59h9c0,15.92-11.08,38.68-26.98,45.89l-5.71,2.59Z"/>
    </g>
  </g>
  <g>
    <path class="i" d="M329.21,137.1c-53.47-13.13-106.09-13.13-158.22,0v27.7c52.14-13.13,104.75-13.13,158.22,0v-27.7Z"/>
    <g class="p">
      <rect class="l" x="250.23" y="49.51" width="189.17" height="378.33"/>
    </g>
  </g>
  <path class="r" d="M401.71,243.99h-23.44l2-47.62c0-5.37,4.35-9.72,9.72-9.72h0c5.37,0,9.72,4.35,9.72,9.72l2,47.62Z"/>
  <g>
    <path d="M406.4,248.49h-32.82l2.19-52.22c.06-7.79,6.41-14.12,14.22-14.12s14.16,6.32,14.22,14.12l2.19,52.22ZM382.97,239.49h14.05l-1.81-43.12c0-2.88-2.34-5.22-5.22-5.22s-5.22,2.34-5.22,5.22v.19s-1.81,42.93-1.81,42.93Z"/>
    <rect x="385.49" y="131.71" width="9" height="54.95"/>
    <path d="M166.48,170.57v-36.98l3.4-.86c52.55-13.23,106.52-13.23,160.4,0l3.43.84v36.97l-5.57-1.37c-52.44-12.87-104.94-12.87-156.05,0l-5.6,1.41ZM249.6,150.51c24.94,0,50.03,2.87,75.11,8.6v-18.46c-50.13-11.77-100.3-11.78-149.22-.02v18.45c24.46-5.71,49.22-8.57,74.11-8.57Z"/>
  </g>
</svg>