<svg version="1.2" xmlns="http://www.w3.org/2000/svg" viewBox="0 0 500 500">
	<defs>
		<clipPath clipPathUnits="userSpaceOnUse" id="cp1">
			<path d="m371.25 439.33h-242.5l0.61-54.71 120.53-64.49 121.36 65.04v54.16z"/>
		</clipPath>
		<clipPath clipPathUnits="userSpaceOnUse" id="cp2">
			<path d="m355.95 325.64l1.11-14.38c0-4.57-1.81-8.95-5.04-12.18l-30.03-30.03h-143.97l-30.03 30.03c-3.23 3.23-5.04 7.61-5.04 12.18l0.03 12.8-19.12 19.33c-3.23 3.23-5.04 7.61-5.04 12.18v30.82c53.51-6.01 96.89-29.25 131.08-68.13 38.85 40.16 82.44 63.48 131.29 68.13v-30.82c0-4.57-1.81-8.95-5.04-12.18z"/>
		</clipPath>
		<clipPath clipPathUnits="userSpaceOnUse" id="cp3">
			<path d="m322.26 195.94q-1.17 0-2.3 0.16c-8.1-31.08-36.35-54.02-69.97-54.02-33.62 0-61.87 22.94-69.97 54.02q-1.13-0.15-2.3-0.16c-10.19 0-18.45 8.26-18.45 18.45 0 10.19 8.26 18.45 18.45 18.45q1.16-0.01 2.3-0.16c8.1 31.08 36.35 54.02 69.97 54.02 33.62 0 61.87-22.94 69.97-54.02q1.13 0.15 2.3 0.16c10.19 0 18.45-8.26 18.45-18.45 0-10.19-8.26-18.45-18.45-18.45z"/>
		</clipPath>
		<clipPath clipPathUnits="userSpaceOnUse" id="cp4">
			<path d="m249.89 235.7c-25.61 4.78-48.37 6.12-69.86-3.02-12.25 42.02 28.69 76.41 69.86 76.41 41.17 0 82.33-34.39 70.08-76.41-21.48 9.08-44.47 7.8-70.08 3.02z"/>
		</clipPath>
		<clipPath clipPathUnits="userSpaceOnUse" id="cp5">
			<path d="m202.69 240.97c-4.24 44.69 20.41 78.09 47.31 77.83 27.45-0.26 53.55-33.04 47.31-77.83-17.74 1.63-32.55-0.19-47.42-2.71-15.73 2.48-31.24 4.21-47.2 2.71z"/>
		</clipPath>
		<clipPath clipPathUnits="userSpaceOnUse" id="cp6">
			<path d="m183.91 184.43l-29.59-80.96c42.14 39.39 74.49 26.73 95.84-42.63 21.36 69.36 53.7 82.02 95.84 42.63l-29.44 80.96c-44.83-13.13-88.94-13.13-132.65 0z"/>
		</clipPath>
		<clipPath clipPathUnits="userSpaceOnUse" id="cp7">
			<path d="m128 250l-0.03 189.69h-12l0.03-189.69zm-21.05-58h30c5.52 0 10 4.47 10 10v30c0 5.52-4.48 10-10 10h-30c-5.52 0-10-4.48-10-10v-30c0-5.53 4.48-10 10-10z"/>
		</clipPath>
		<clipPath clipPathUnits="userSpaceOnUse" id="cp8">
			<path d="m96 414.02l26-0.02v4h19c3.87 0 7 3.13 7 7 0 3.87-3.13 7-7 7h-38c-3.87 0-7-3.13-7-7 0-3.87 0-10.98 0-10.98zm-0.04-21.98h26.07l0.05 3.94 18.92 0.02c3.87 0 7 3.13 7 7 0 3.87-3.13 7-7 7h-18.99l-0.01 4-25.97 0.01c0 0-0.03-7.14-0.03-11.01 0-4.01-0.04-11.02-0.04-10.96zm7.04-18.04h38c3.87 0 7 3.13 7 7 0 3.87-3.13 7-7 7l-18.97 0.01 0.05 4.05-26.07-0.03c0 0-0.01-7.1-0.01-11.03 0-3.87 3.13-7 7-7z"/>
		</clipPath>
	</defs>
	<style>
		.s0 { fill: #e00000 }
		.s1 { fill: #b20000 }
		.s2 { fill: #ffffff }
		.s3 { fill: #b3b3b3 }
		.s4 { fill: #723475 }
		.s5 { fill: #eabdac }
		.s6 { fill: #cc9e91 }
		.s7 { fill: #5b3b2b }
		.s8 { fill: #704d39 }
		.s9 { fill: #472b1f }
		.s10 { fill: #b5b5b5 }
		.s11 { fill: #d1d1d1 }
		.s12 { fill: #ffc200 }
		.s13 { fill: #d89f00 }
		.s14 { fill: #000000 }
		.s15 { fill: #7c5947 }
		.s16 { fill: #accceb }
		.s17 { fill: #7f9dbb }
		.s18 { fill: #365a7f }
	</style>
	<g>
		<g>
			<g>
				<path fill-rule="evenodd" class="s0" d="m371.3 439.3h-242.6l0.7-54.7 120.5-64.5 121.3 65.1v54.1z"/>
				<g id="Clip-Path" clip-path="url(#cp1)">
					<g>
						<path fill-rule="evenodd" class="s1" d="m249.9 39.9h223.8v441.2h-223.8z"/>
					</g>
				</g>
			</g>
			<g>
				<path class="s2" d="m355.9 325.6l1.2-14.3c0-4.6-1.8-9-5.1-12.2l-30-30.1h-144l-30 30.1c-3.2 3.2-5 7.6-5 12.2v12.8l-19.1 19.3c-3.3 3.2-5.1 7.6-5.1 12.2v30.8c53.5-6 96.9-29.3 131.1-68.1 38.9 40.1 82.4 63.4 131.3 68.1v-30.8c0-4.6-1.8-9-5-12.2z"/>
				<g id="Clip-Path" clip-path="url(#cp2)">
					<g>
						<path fill-rule="evenodd" class="s3" d="m249.9 16.9h193.5v455.7h-193.5z"/>
						<path fill-rule="evenodd" class="s4" d="m245.3 381.3h9.1v57.9h-9.1z"/>
					</g>
				</g>
			</g>
			<g>
				<g>
					<path class="s5" d="m322.3 195.9q-1.2 0-2.3 0.2c-8.1-31.1-36.4-54-70-54-33.6 0-61.9 22.9-70 54q-1.1-0.1-2.3-0.2c-10.2 0-18.4 8.3-18.4 18.5 0 10.2 8.2 18.4 18.4 18.4q1.2 0 2.3-0.1c8.1 31.1 36.4 54 70 54 33.6 0 61.9-22.9 70-54q1.1 0.1 2.3 0.1c10.1 0 18.4-8.2 18.4-18.4 0-10.2-8.3-18.5-18.4-18.5z"/>
					<g id="Clip-Path" clip-path="url(#cp3)">
						<g>
							<path fill-rule="evenodd" class="s6" d="m249.9 16.9h193.5v455.7h-193.5z"/>
						</g>
					</g>
				</g>
				<g>
					<path class="s7" d="m320.2 195.9c-4.8 2.9-7.7 8.1-8.5 15.8-13.5-6.4-18.7-14.4-18.7-30.6l23.1 3.5 4.1 11.3z"/>
					<path class="s8" d="m179.7 195.9c4.8 2.9 7.8 8.1 8.5 15.8 13.6-6.4 18.8-14.4 18.8-30.6l-23.2 3.5c0 0-4 11.3-4.1 11.3z"/>
				</g>
			</g>
			<g>
				<path class="s7" d="m249.9 235.7c-25.6 4.8-48.4 6.1-69.9-3-12.2 42 28.7 76.4 69.9 76.4 41.2 0 82.3-34.4 70.1-76.4-21.5 9.1-44.5 7.8-70.1 3z"/>
				<g id="Clip-Path" clip-path="url(#cp4)">
					<g>
						<path fill-rule="evenodd" class="s9" d="m249.9 108.3h193.5v262.7h-193.5z"/>
					</g>
				</g>
			</g>
			<g>
				<path class="s8" d="m202.7 241c-4.3 44.7 20.4 78.1 47.3 77.8 27.5-0.3 53.6-33 47.3-77.8-17.7 1.6-32.5-0.2-47.4-2.7-15.7 2.4-31.3 4.2-47.2 2.7z"/>
				<g id="Clip-Path" clip-path="url(#cp5)">
					<g>
						<path fill-rule="evenodd" class="s7" d="m249.9 113.6h193.5v256.6h-193.5z"/>
					</g>
				</g>
			</g>
			<g>
				<path fill-rule="evenodd" class="s10" d="m291.8 253.5c-1.6 3.9-12.1 3.4-23.6-1.2-11.5-4.5-19.5-11.4-18-15.4 1.6-3.9 12.2-3.4 23.7 1.2 11.4 4.6 19.5 11.4 17.9 15.4z"/>
				<path fill-rule="evenodd" class="s11" d="m231.9 252.3c-11.5 4.6-22.1 5.1-23.7 1.2-1.5-4 6.5-10.9 18-15.5 11.5-4.5 22-5.1 23.6-1.1 1.6 3.9-6.5 10.8-17.9 15.4z"/>
			</g>
			<g>
				<path class="s12" d="m183.9 184.4l-29.6-80.9c42.2 39.4 74.5 26.7 95.9-42.7 21.3 69.4 53.7 82.1 95.8 42.7l-29.4 80.9c-44.9-13.1-89-13.1-132.7 0z"/>
				<g id="Clip-Path" clip-path="url(#cp6)">
					<g>
						<path fill-rule="evenodd" class="s13" d="m249.9 39.9h223.8v441.2h-223.8z"/>
					</g>
				</g>
			</g>
		</g>
		<g>
			<g>
				<g>
					<path fill-rule="evenodd" class="s14" d="m360.4 325.6h-9v-19.9l-37.2-33.4 6-6.7 40.2 36.1v23.9z"/>
					<path fill-rule="evenodd" class="s14" d="m148.6 325.6h-9v-23.9l40.2-36.1 6 6.7-37.2 33.4v19.9z"/>
				</g>
				<path class="s14" d="m321.5 237.6c-1.2 0-6.7-0.6-6.7-0.6l1.1-8.9c0.9 0.1 5 0.5 5.7 0.5 7.5 0 13.7-6.1 13.7-13.7 0-7.6-6.2-13.8-13.8-13.8-0.5 0-1 0.1-1.7 0.2l-3.9 0.4-1-3.8c-1.1-3.9-2.5-7.8-4.2-11.5l8.1-3.9q2.2 4.7 3.8 9.7c12 0.5 21.7 10.5 21.7 22.7 0 12.2-10.2 22.8-22.8 22.8z"/>
				<path class="s14" d="m178.5 237.6c-12.6 0-22.8-10.2-22.8-22.7 0-12.6 9.6-22.2 21.7-22.7q1.6-5.1 3.8-9.8l8.2 3.9c-1.8 3.7-3.2 7.6-4.3 11.6l-1 3.8-3.9-0.5c-0.7 0-1.2-0.1-1.7-0.1-7.6 0-13.8 6.2-13.8 13.8 0 7.6 6.2 13.7 13.8 13.7 0.6 0 4.3-0.4 5.4-0.5l1.1 8.9c0 0-5.3 0.6-6.5 0.6z"/>
				<path class="s14" d="m213.2 305.4c-0.5-0.2-11.6-5.3-21.7-17-9.3-10.9-19.4-29.7-14.7-57.6l7.2-2.8c19.5 15.1 39.9 12.9 64.5 4.9h2.8c24.6 8 45 10.2 64.5-4.9l7.2 2.8c4.6 27.8-5.4 46.5-14.6 57.3-9.9 11.7-21 16.8-21.4 17l-3.8-8.2c1.5-0.7 34.8-16.5 31.8-57.4-21.6 13-43.9 9.1-65.1 2.4-21.2 6.7-43.5 10.6-65.1-2.4-3.1 41.1 30.6 57 32.1 57.7l-3.7 8.2z"/>
				<g>
					<g>
						<path fill-rule="evenodd" class="s8" d="m291.4 253.6c-1.6 3.9-12 3.4-23.4-1.2-11.4-4.5-19.3-11.3-17.8-15.2 1.6-3.9 12-3.4 23.4 1.1 11.4 4.6 19.3 11.4 17.8 15.3z"/>
						<path class="s14" d="m284.5 260.7q-0.6 0-1.4-0.1c-4.9-0.2-10.9-1.6-16.8-4-12.3-4.9-23.4-13.3-20.3-21.1 3.1-7.8 16.9-6.3 29.3-1.4 12.3 4.9 23.3 13.4 20.2 21.1-1 2.6-3.7 5.5-11 5.5zm-29.3-21.6c1.6 2.2 6.5 5.9 14.4 9.1 8 3.2 14.1 3.8 16.8 3.4-1.7-2.1-6.5-5.9-14.5-9.1-7.9-3.2-14-3.8-16.7-3.4z"/>
					</g>
					<g>
						<path fill-rule="evenodd" class="s15" d="m232 252.4c-11.3 4.6-21.8 5.1-23.3 1.2-1.6-3.9 6.3-10.8 17.7-15.3 11.4-4.5 21.8-5 23.4-1.1 1.6 3.9-6.4 10.7-17.8 15.2z"/>
						<path class="s14" d="m215.5 260.7c-7.3 0-10-2.9-11-5.5-1.1-2.7-1-7 5.3-12.4 3.7-3.2 9-6.3 14.9-8.7 12.4-4.9 26.2-6.3 29.3 1.4 3.1 7.8-8 16.2-20.3 21.1-5.9 2.4-11.9 3.8-16.8 4.1q-0.7 0-1.4 0zm-1.9-9.1c2.7 0.4 8.8-0.2 16.8-3.3 8-3.2 12.8-7 14.4-9.1-2.6-0.4-8.7 0.1-16.7 3.3-8 3.2-12.8 7-14.5 9.1z"/>
					</g>
				</g>
				<path fill-rule="evenodd" class="s14" d="m245.4 320.1h9v119.2h-9z"/>
				<path fill-rule="evenodd" class="s14" d="m250 321.8c-28.3 0-51.3-23.5-51.3-52.3h9c0 23.9 19 43.3 42.3 43.3 23.3 0 42.3-19.4 42.3-43.3h9c0 28.8-23 52.3-51.3 52.3zm-114-79.8l-0.1 197.6h-28l0.1-197.6z"/>
				<g>
					<path fill-rule="evenodd" class="s14" d="m225.1 197.3h2.3c1.7 0 3.2 1.4 3.2 3.2v17c0 1.7-1.5 3.1-3.2 3.1h-2.3c-1.8 0-3.2-1.4-3.2-3.1v-17c0-1.8 1.4-3.2 3.2-3.2z"/>
					<path fill-rule="evenodd" class="s14" d="m272.6 197.3h2.3c1.8 0 3.2 1.4 3.2 3.2v17c0 1.7-1.4 3.1-3.2 3.1h-2.3c-1.7 0-3.2-1.4-3.2-3.1v-17c0-1.8 1.5-3.2 3.2-3.2z"/>
				</g>
				<g>
					<path class="s14" d="m308.6 215.7c-14.8-6.7-21-16.8-21-33.9h9c0 11.5 2.9 18.1 10.6 23q1.9-5.9 6.1-9.6l-2.8-7.5 8.4-3.1 4 10.6-1.9 5.5c-3.6 2-5.5 5.7-6.1 11.4l-6.4 3.6z"/>
					<path class="s14" d="m191.4 215.7l-6.3-3.7c-0.6-5.6-2.6-9.3-6.1-11.3l-1.9-5.5 3.9-10.6 8.5 3.1-2.8 7.4q4.2 3.8 6.1 9.7c7.7-4.9 10.6-11.5 10.6-23h9c0 17.1-6.3 27.2-21 33.9z"/>
				</g>
			</g>
			<path class="s14" d="m315.3 188.8c-43.7-12.9-87.5-12.9-130.1-0.1l-5.5-2.7-29.6-81 7.3-4.8c17.9 16.8 33.7 23.5 47 20 16.5-4.4 30.4-24.8 41.5-60.7h8.6c11 35.9 25 56.3 41.5 60.7 13.2 3.5 29-3.2 46.9-20l7.3 4.8-29.4 81-5.5 2.8zm-65.5-18.6c21.3 0 42.6 2.9 64 8.8l22.3-61.5c-15.3 11-29.6 14.8-42.4 11.4-17.7-4.7-32-22.4-43.5-53.9-11.5 31.5-25.8 49.2-43.5 53.9-12.9 3.4-27.1-0.4-42.5-11.4l22.5 61.5c20.8-5.9 41.9-8.8 63.1-8.8z"/>
			<path class="s14" d="m384.3 391.7l-5.2-0.9c-56.8-9.2-100.1-32-132.5-69.6l6.8-5.9c30 34.8 69.9 56.3 121.9 65.8v-29.7l-37.8-37.8 6.4-6.4 40.4 40.5v44z"/>
			<g>
				<path fill-rule="evenodd" class="s14" d="m366.8 380h8.9v59.3h-9z"/>
				<path fill-rule="evenodd" class="s14" d="m124.3 380h9v59.3h-9z"/>
			</g>
			<path class="s14" d="m115.9 391.7v-44.1l40.4-40.4 6.4 6.4-37.8 37.8v29.6c52-9.4 91.9-30.9 121.9-65.7l6.8 5.9c-32.4 37.6-75.7 60.4-132.5 69.6l-5.2 0.9z"/>
		</g>
		<g id="jewel">
			<path id="Shape 3 copy" class="s14" d="m122 197l-32.4-21.6 16.6-16.4h32.6l15 16.5z"/>
			<path id="Shape 3" class="s16" d="m122 189l-22-14.7 7.3-7.3h29.4l7.3 7.3z"/>
			<path id="Shape 3 copy 2" class="s17" d="m122 189v-22h14.7l7.3 7.3z"/>
			<path id="Shape 4" class="s17" d="m121.3 187.7l-16.8-12.6h11.2z"/>
			<path id="Shape 4 copy" class="s18" d="m122.7 187.6l8.5-12.5h9.3z"/>
			<path id="Shape 5 copy" class="s2" d="m116 173.7l1.6-5.7-8.1 0.1-5.1 5.6z"/>
			<path id="Shape 5 copy 3" class="s16" d="m141.5 173.7l-5.3-5.7-4.7 5.7z"/>
			<path id="Shape 5 copy 2" class="s2" d="m136.2 168h-6.8l2.1 5.7z"/>
		</g>
		<path id="Shape 2" fill-rule="evenodd" class="s14" d="m107 184h30c9.9 0 18 8.1 18 18v30c0 9.9-8.1 18-18 18h-30c-9.9 0-18-8.1-18-18v-30c0-9.9 8.1-18 18-18z"/>
		<g clip-path="url(#cp7)">
			<path id="Shape 1" class="s12" d="m128 250v189.7h-12v-189.7zm-21.1-58h30c5.6 0 10 4.5 10 10v30c0 5.5-4.4 10-10 10h-30c-5.5 0-10-4.5-10-10v-30c0-5.5 4.5-10 10-10z"/>
			<path id="Shape 5" fill-rule="evenodd" class="s13" d="m174 172v274h-52v-274z"/>
		</g>
		<path id="q" class="s14" aria-label="q"  d="m136.4 239.6h-16.3v-5.1l4.4-1v-7q-1.1 1.5-2.7 2.3-1.5 0.7-3.6 0.7-3.3 0-5.7-1.7-2.3-1.7-3.5-4.7-1.3-3.1-1.3-7.3v-0.5q0-4.3 1.3-7.5 1.2-3.2 3.5-5 2.4-1.8 5.6-1.8 2.5 0 4.1 1.1 1.6 1 2.8 2.9l0.7-3.5h7.8v32l2.9 0.8zm-15.5-16.8q1.2 0 2.1-0.4 1-0.4 1.5-1.3v-11.2q-0.5-1-1.5-1.5-0.9-0.6-2-0.6-1.6 0-2.6 1-0.9 0.9-1.4 2.6-0.4 1.7-0.4 3.9v0.6q0 3.3 0.9 5.1 1 1.8 3.4 1.8z"/>
	</g>
	<path id="Shape 6" fill-rule="evenodd" class="s14" d="m88 410h53c8.3 0 15 6.7 15 15 0 8.3-6.7 15-15 15h-38c-8.3 0-15-6.7-15-15 0-8.3 0-15 0-15z"/>
	<path id="Shape 6 copy 2" fill-rule="evenodd" class="s14" d="m88 388h53c8.3 0 15 6.7 15 15 0 8.3-6.7 15-15 15h-53c0 0 0-9.2 0-15 0-8.3 0-15 0-15z"/>
	<path id="Shape 6 copy 4" fill-rule="evenodd" class="s14" d="m103 366h38c8.3 0 15 6.7 15 15 0 8.3-6.7 15-15 15h-53c0 0 0-6.7 0-15 0-8.3 6.7-15 15-15z"/>
	<g clip-path="url(#cp8)">
		<path id="Shape 6 copy" class="s5" d="m96 414h26v4h19c3.9 0 7 3.1 7 7 0 3.9-3.1 7-7 7h-38c-3.9 0-7-3.1-7-7 0-3.9 0-11 0-11zm0-22h26l0.1 4h18.9c3.9 0 7 3.1 7 7 0 3.9-3.1 7-7 7h-19v4h-26c0 0 0-7.1 0-11 0-4 0-11 0-11zm7-18h38c3.9 0 7 3.1 7 7 0 3.9-3.1 7-7 7h-19l0.1 4.1-26.1-0.1c0 0 0-7.1 0-11 0-3.9 3.1-7 7-7z"/>
		<path id="Shape 7" fill-rule="evenodd" class="s6" d="m164 358v98h-42v-98z"/>
	</g>
</svg>
