<?xml version="1.0" encoding="UTF-8"?>
<svg id="b" data-name="Finished icons" xmlns="http://www.w3.org/2000/svg" xmlns:xlink="http://www.w3.org/1999/xlink" viewBox="0 0 500 500">
  <defs>
    <style>
      .l {
        fill: #472b1f;
      }

      .m {
        clip-path: url(#i);
      }

      .n {
        clip-path: url(#k);
      }

      .o {
        clip-path: url(#f);
      }

      .p {
        fill: #5b3b2b;
      }

      .q {
        clip-path: url(#j);
      }

      .r {
        fill: #fff;
      }

      .s {
        fill: #cecece;
      }

      .t {
        fill: #723475;
      }

      .u {
        clip-path: url(#h);
      }

      .v {
        fill: #ddac9e;
      }

      .w {
        fill: #d89f00;
      }

      .x {
        fill: #ffd150;
      }

      .y {
        clip-path: url(#g);
      }

      .z {
        fill: #7c5947;
      }

      .aa {
        fill: #b20000;
      }

      .ab {
        clip-path: url(#d);
      }

      .ac {
        clip-path: url(#e);
      }

      .ad {
        fill: #eabdac;
      }

      .ae {
        fill: #704d39;
      }

      .af {
        fill: #e00000;
      }

      .ag {
        fill: #ffc200;
      }

      .ah {
        clip-path: url(#c);
      }

      .ai {
        fill: #d1d1d1;
      }

      .aj {
        fill: #b5b5b5;
      }
    </style>
    <clipPath id="c">
      <polygon class="af" points="371.25 439.33 128.75 439.33 129.36 384.62 249.89 320.13 371.25 385.17 371.25 439.33"/>
    </clipPath>
    <clipPath id="d">
      <path class="r" d="M355.95,325.64l1.11-14.38c0-4.57-1.81-8.95-5.04-12.18l-30.03-30.03h-143.97l-30.03,30.03c-3.23,3.23-5.04,7.61-5.04,12.18l.03,12.8-19.12,19.33c-3.23,3.23-5.04,7.61-5.04,12.18v30.82c53.51-6.01,96.89-29.25,131.08-68.13,38.85,40.16,82.44,63.48,131.29,68.13v-30.82c0-4.57-1.81-8.95-5.04-12.18l-20.2-17.75Z"/>
    </clipPath>
    <clipPath id="e">
      <path class="ad" d="M322.26,195.94c-.78,0-1.54.06-2.3.16-8.1-31.08-36.35-54.02-69.97-54.02s-61.87,22.94-69.97,54.02c-.75-.09-1.52-.16-2.3-.16-10.19,0-18.45,8.26-18.45,18.45s8.26,18.45,18.45,18.45c.78,0,1.54-.06,2.3-.16,8.1,31.08,36.35,54.02,69.97,54.02s61.87-22.94,69.97-54.02c.75.09,1.52.16,2.3.16,10.19,0,18.45-8.26,18.45-18.45s-8.26-18.45-18.45-18.45Z"/>
    </clipPath>
    <clipPath id="f">
      <path class="p" d="M249.89,235.7c-25.61,4.78-48.37,6.12-69.86-3.02-12.25,42.02,28.69,76.41,69.86,76.41,41.17,0,82.33-34.39,70.08-76.41-21.48,9.08-44.47,7.8-70.08,3.02Z"/>
    </clipPath>
    <clipPath id="g">
      <path class="ae" d="M202.69,240.97c-4.24,44.69,20.41,78.09,47.31,77.83,27.45-.26,53.55-33.04,47.31-77.83-17.74,1.63-32.55-.19-47.42-2.71-15.73,2.48-31.24,4.21-47.2,2.71Z"/>
    </clipPath>
    <clipPath id="h">
      <path class="ag" d="M183.91,184.43l-29.59-80.96c42.14,39.39,74.49,26.73,95.84-42.63,21.36,69.36,53.7,82.02,95.84,42.63l-29.44,80.96c-44.83-13.13-88.94-13.13-132.65,0Z"/>
    </clipPath>
    <clipPath id="i">
      <path class="ag" d="M786.35,80.25l32.67,100.55c2.55,7.84,9.86,13.15,18.1,13.15h105.73c16.66,0,23.58,21.32,10.11,31.11l-85.54,62.15c-6.67,4.85-9.46,13.44-6.92,21.28l32.67,100.55c5.15,15.84-12.99,29.02-26.46,19.23l-85.54-62.15c-6.67-4.85-15.71-4.85-22.38,0l-85.54,62.15c-13.48,9.79-31.61-3.38-26.46-19.23l32.67-100.55c2.55-7.84-.24-16.44-6.92-21.28l-85.54-62.15c-13.48-9.79-6.55-31.11,10.11-31.11h105.73c8.25,0,15.56-5.31,18.1-13.15l32.67-100.55c5.15-15.84,27.56-15.84,32.71,0Z"/>
    </clipPath>
    <clipPath id="j">
      <polygon class="x" points="546.06 196.09 714.96 192.13 770 267.32 681.64 296.89 546.06 196.09"/>
    </clipPath>
    <clipPath id="k">
      <polygon class="ag" points="909.25 456.61 858.86 295.35 770 267.32 769.69 360.5 909.25 456.61"/>
    </clipPath>
  </defs>
  <g>
    <g>
      <g>
        <polygon class="af" points="371.25 439.33 128.75 439.33 129.36 384.62 249.89 320.13 371.25 385.17 371.25 439.33"/>
        <g class="ah">
          <rect class="aa" x="249.89" y="39.86" width="223.78" height="441.28"/>
        </g>
      </g>
      <g>
        <path class="r" d="M355.95,325.64l1.11-14.38c0-4.57-1.81-8.95-5.04-12.18l-30.03-30.03h-143.97l-30.03,30.03c-3.23,3.23-5.04,7.61-5.04,12.18l.03,12.8-19.12,19.33c-3.23,3.23-5.04,7.61-5.04,12.18v30.82c53.51-6.01,96.89-29.25,131.08-68.13,38.85,40.16,82.44,63.48,131.29,68.13v-30.82c0-4.57-1.81-8.95-5.04-12.18l-20.2-17.75Z"/>
        <g class="ab">
          <rect class="s" x="249.89" y="16.88" width="193.49" height="455.72"/>
          <rect class="t" x="245.34" y="381.28" width="9.09" height="57.89"/>
        </g>
      </g>
      <g>
        <g>
          <path class="ad" d="M322.26,195.94c-.78,0-1.54.06-2.3.16-8.1-31.08-36.35-54.02-69.97-54.02s-61.87,22.94-69.97,54.02c-.75-.09-1.52-.16-2.3-.16-10.19,0-18.45,8.26-18.45,18.45s8.26,18.45,18.45,18.45c.78,0,1.54-.06,2.3-.16,8.1,31.08,36.35,54.02,69.97,54.02s61.87-22.94,69.97-54.02c.75.09,1.52.16,2.3.16,10.19,0,18.45-8.26,18.45-18.45s-8.26-18.45-18.45-18.45Z"/>
          <g class="ac">
            <rect class="v" x="249.89" y="16.88" width="193.49" height="455.72"/>
          </g>
        </g>
        <g>
          <path class="p" d="M320.19,195.93c-4.79,2.91-7.73,8.04-8.47,15.78-13.55-6.4-18.75-14.42-18.75-30.65l23.15,3.54,4.06,11.33Z"/>
          <path class="ae" d="M179.74,195.93c4.79,2.91,7.73,8.04,8.47,15.78,13.55-6.4,18.75-14.42,18.75-30.65l-23.15,3.54-4.06,11.33Z"/>
        </g>
      </g>
      <g>
        <path class="p" d="M249.89,235.7c-25.61,4.78-48.37,6.12-69.86-3.02-12.25,42.02,28.69,76.41,69.86,76.41,41.17,0,82.33-34.39,70.08-76.41-21.48,9.08-44.47,7.8-70.08,3.02Z"/>
        <g class="o">
          <rect class="l" x="249.89" y="108.25" width="193.49" height="262.76"/>
        </g>
      </g>
      <g>
        <path class="ae" d="M202.69,240.97c-4.24,44.69,20.41,78.09,47.31,77.83,27.45-.26,53.55-33.04,47.31-77.83-17.74,1.63-32.55-.19-47.42-2.71-15.73,2.48-31.24,4.21-47.2,2.71Z"/>
        <g class="y">
          <rect class="p" x="249.89" y="113.59" width="193.49" height="256.64"/>
        </g>
      </g>
      <g>
        <ellipse class="aj" cx="271" cy="245.19" rx="7.68" ry="22.37" transform="translate(-57.12 406.11) rotate(-68.26)"/>
        <ellipse class="ai" cx="229" cy="245.19" rx="22.37" ry="7.68" transform="translate(-74.52 102.25) rotate(-21.74)"/>
      </g>
      <g>
        <path class="ag" d="M183.91,184.43l-29.59-80.96c42.14,39.39,74.49,26.73,95.84-42.63,21.36,69.36,53.7,82.02,95.84,42.63l-29.44,80.96c-44.83-13.13-88.94-13.13-132.65,0Z"/>
        <g class="u">
          <rect class="w" x="249.89" y="39.86" width="223.78" height="441.28"/>
        </g>
      </g>
    </g>
    <g>
      <g>
        <g>
          <polygon points="360.44 325.64 351.44 325.64 351.44 305.69 314.23 272.33 320.24 265.63 360.44 301.68 360.44 325.64"/>
          <polygon points="148.55 325.64 139.55 325.64 139.55 301.68 179.76 265.63 185.77 272.33 148.55 305.69 148.55 325.64"/>
        </g>
        <path d="M321.52,237.64c-1.26,0-6.67-.62-6.72-.62l1.11-8.93c.91.11,4.96.53,5.66.56,7.53,0,13.71-6.17,13.71-13.76s-6.17-13.76-13.76-13.76c-.5,0-1.05.04-1.72.12l-3.92.49-1-3.82c-1.03-3.96-2.44-7.86-4.19-11.57l8.14-3.83c1.47,3.12,2.73,6.34,3.76,9.64,12.05.57,21.68,10.55,21.68,22.73s-10.21,22.76-22.76,22.76Z"/>
        <path d="M178.48,237.64c-12.55,0-22.76-10.21-22.76-22.76s9.63-22.17,21.68-22.73c1.04-3.33,2.32-6.59,3.81-9.74l8.14,3.85c-1.77,3.74-3.19,7.66-4.24,11.66l-1,3.82-3.91-.49c-.67-.08-1.21-.12-1.72-.12-7.59,0-13.76,6.17-13.76,13.76s6.17,13.76,13.76,13.76c.62-.02,4.35-.42,5.41-.55l1.11,8.93c-.05,0-5.26.62-6.52.62Z"/>
        <path d="M213.19,305.43c-.47-.21-11.6-5.33-21.65-17.07-9.3-10.87-19.4-29.67-14.71-57.54l7.19-2.81c19.49,15.06,39.88,12.84,64.5,4.88h2.77c24.62,7.96,45.01,10.18,64.49-4.88l7.19,2.81c4.67,27.74-5.33,46.46-14.54,57.28-9.95,11.69-20.98,16.79-21.45,17l-3.74-8.19c1.5-.69,34.77-16.53,31.72-57.44-21.55,13.05-43.9,9.14-65.07,2.42-21.17,6.71-43.52,10.63-65.07-2.42-3.07,41.15,30.57,57.07,32.08,57.76l-3.72,8.2Z"/>
        <g>
          <g>
            <ellipse class="ae" cx="270.78" cy="245.37" rx="7.6" ry="22.14" transform="translate(-57.42 406.02) rotate(-68.26)"/>
            <path d="M284.54,260.69c-.46,0-.93-.01-1.43-.04-4.9-.24-10.87-1.68-16.81-4.05-12.32-4.91-23.36-13.34-20.27-21.1,3.1-7.76,16.91-6.28,29.23-1.37,12.32,4.91,23.36,13.34,20.27,21.1-1.01,2.54-3.75,5.45-10.98,5.45ZM255.16,239.14c1.68,2.13,6.49,5.92,14.48,9.11,7.99,3.18,14.09,3.74,16.77,3.35-1.68-2.13-6.49-5.92-14.47-9.11-7.99-3.18-14.08-3.73-16.77-3.35Z"/>
          </g>
          <g>
            <ellipse class="z" cx="229.22" cy="245.37" rx="22.14" ry="7.6" transform="translate(-74.57 102.34) rotate(-21.74)"/>
            <path d="M215.46,260.69c-7.24,0-9.97-2.92-10.98-5.45h0c-1.08-2.7-1.03-7.05,5.28-12.47,3.72-3.2,9.04-6.26,14.98-8.63,12.32-4.91,26.13-6.39,29.23,1.37,3.09,7.76-7.95,16.19-20.27,21.1-5.94,2.37-11.91,3.81-16.81,4.05-.49.02-.97.04-1.43.04ZM213.6,251.6c2.68.38,8.78-.17,16.77-3.35,7.99-3.19,12.79-6.98,14.47-9.11-2.68-.38-8.78.17-16.77,3.35-7.99,3.18-12.79,6.98-14.48,9.11Z"/>
          </g>
        </g>
        <rect x="245.39" y="320.13" width="9" height="119.2"/>
        <path d="M250,321.76c-28.3,0-51.32-23.42-51.32-52.21h9c0,23.82,18.99,43.21,42.32,43.21s42.32-19.38,42.32-43.21h9c0,28.79-23.02,52.21-51.32,52.21Z"/>
        <g>
          <rect x="221.93" y="197.33" width="8.62" height="23.27" rx="3.14" ry="3.14"/>
          <rect x="269.45" y="197.33" width="8.62" height="23.27" rx="3.14" ry="3.14"/>
        </g>
        <g>
          <path d="M308.56,215.7c-14.71-6.67-20.98-16.81-20.98-33.89h9c0,11.48,2.88,18.07,10.62,22.99,1.25-3.96,3.28-7.18,6.09-9.65l-2.78-7.44,8.43-3.15,3.97,10.64-1.95,5.46c-3.53,2.06-5.51,5.78-6.08,11.39l-6.34,3.65Z"/>
          <path d="M191.44,215.7l-6.34-3.65c-.56-5.61-2.55-9.33-6.08-11.39l-1.95-5.46,3.97-10.64,8.43,3.15-2.78,7.44c2.81,2.47,4.84,5.69,6.09,9.65,7.74-4.93,10.62-11.51,10.62-22.99h9c0,17.08-6.27,27.22-20.98,33.89Z"/>
        </g>
      </g>
      <path d="M315.3,188.75c-43.72-12.8-87.49-12.8-130.09,0l-5.52-2.76-29.59-80.96,7.3-4.83c17.94,16.77,33.74,23.5,46.96,19.98,16.51-4.39,30.48-24.8,41.51-60.65h8.6c11.04,35.85,25,56.25,41.51,60.65,13.22,3.52,29.01-3.21,46.96-19.98l7.3,4.83-29.44,80.96-5.49,2.78ZM249.82,170.14c21.24,0,42.59,2.94,63.95,8.82l22.36-61.49c-15.36,10.99-29.6,14.82-42.47,11.39-17.71-4.71-32-22.38-43.5-53.86-11.5,31.48-25.79,49.15-43.5,53.86-12.86,3.42-27.08-.4-42.43-11.36l22.46,61.44c20.83-5.86,41.92-8.79,63.13-8.79Z"/>
      <path d="M384.33,391.68l-5.22-.85c-56.78-9.26-100.12-32.04-132.51-69.63l6.82-5.88c29.96,34.77,69.88,56.3,121.92,65.73v-29.66l-37.8-37.8,6.36-6.36,40.44,40.44v44.03Z"/>
      <g>
        <rect x="366.75" y="380.04" width="9" height="59.29"/>
        <rect x="124.25" y="380.04" width="9" height="59.29"/>
      </g>
      <path d="M115.86,391.68v-44.03l40.44-40.44,6.36,6.36-37.8,37.8v29.66c52.04-9.42,91.96-30.96,121.92-65.73l6.82,5.88c-32.39,37.59-75.73,60.37-132.51,69.63l-5.22.85Z"/>
    </g>
    <path d="M249.87,160.39c-3.87,0-7.34-.89-10.43-2.67-3.09-1.78-5.52-4.34-7.31-7.68s-2.68-7.36-2.68-12.07.89-8.76,2.68-12.11,4.22-5.91,7.31-7.69c3.09-1.78,6.56-2.67,10.43-2.67s7.34.89,10.41,2.67,5.51,4.34,7.29,7.69,2.68,7.39,2.68,12.11-.89,8.74-2.68,12.08-4.22,5.91-7.29,7.68-6.55,2.65-10.41,2.65ZM249.87,152.45c2.27,0,4.25-.56,5.95-1.67s3.02-2.75,3.97-4.91,1.42-4.79,1.42-7.9-.47-5.77-1.42-7.94-2.27-3.81-3.97-4.92-3.68-1.67-5.95-1.67-4.22.56-5.93,1.68c-1.71,1.12-3.04,2.76-3.98,4.92-.95,2.16-1.42,4.8-1.42,7.92s.47,5.73,1.42,7.88c.95,2.15,2.27,3.78,3.98,4.91,1.71,1.12,3.69,1.68,5.93,1.68ZM246.94,144.77h7.65l4.04,5.19,3.6,4.22,7.32,9.23h-8.32l-4.95-6.21-2.52-3.46-6.83-8.96Z"/>
  </g>
  <g>
    <path class="ag" d="M786.35,80.25l32.67,100.55c2.55,7.84,9.86,13.15,18.1,13.15h105.73c16.66,0,23.58,21.32,10.11,31.11l-85.54,62.15c-6.67,4.85-9.46,13.44-6.92,21.28l32.67,100.55c5.15,15.84-12.99,29.02-26.46,19.23l-85.54-62.15c-6.67-4.85-15.71-4.85-22.38,0l-85.54,62.15c-13.48,9.79-31.61-3.38-26.46-19.23l32.67-100.55c2.55-7.84-.24-16.44-6.92-21.28l-85.54-62.15c-13.48-9.79-6.55-31.11,10.11-31.11h105.73c8.25,0,15.56-5.31,18.1-13.15l32.67-100.55c5.15-15.84,27.56-15.84,32.71,0Z"/>
    <g class="m">
      <g>
        <polygon class="x" points="546.06 196.09 714.96 192.13 770 267.32 681.64 296.89 546.06 196.09"/>
        <g class="q">
          <rect class="ag" x="616.13" y="150.63" width="223.78" height="441.28" transform="translate(1302.49 -209.97) rotate(107.64)"/>
        </g>
      </g>
      <g>
        <polygon class="ag" points="909.25 456.61 858.86 295.35 770 267.32 769.69 360.5 909.25 456.61"/>
        <g class="n">
          <rect class="w" x="573.1" y="119.76" width="223.78" height="441.28" transform="translate(1438.48 208.68) rotate(143.66)"/>
        </g>
      </g>
    </g>
  </g>
</svg>