<?xml version="1.0" encoding="UTF-8"?>
<svg id="b" data-name="Finished icons" xmlns="http://www.w3.org/2000/svg" xmlns:xlink="http://www.w3.org/1999/xlink" viewBox="0 0 500 500">
  <defs>
    <style>
      .g {
        clip-path: url(#f);
      }

      .h {
        fill: #5b3b2b;
      }

      .i {
        fill: #6dbc3f;
      }

      .j {
        fill: #fff;
      }

      .k {
        fill: #42722b;
      }

      .l {
        fill: #376022;
      }

      .m {
        fill: #3f1b09;
      }

      .n {
        clip-path: url(#d);
      }

      .o {
        clip-path: url(#e);
      }

      .p {
        fill: #704d39;
      }

      .q {
        clip-path: url(#c);
      }

      .r {
        fill: #61a833;
      }
    </style>
    <clipPath id="c">
      <path class="h" d="M257.69,154.4l-127.52,178.76h276.29s-127.52-178.76-127.52-178.76c-5.21-7.3-16.05-7.3-21.26,0Z"/>
    </clipPath>
    <clipPath id="d">
      <path class="p" d="M281.24,333.16H93.53s86.63-135.64,86.63-135.64c3.54-5.54,10.9-5.54,14.44,0l86.63,135.64Z"/>
    </clipPath>
    <clipPath id="e">
      <polygon class="k" points="362.07 219.37 335.35 306.13 388.8 306.13 362.07 219.37"/>
    </clipPath>
    <clipPath id="f">
      <circle class="i" cx="322.1" cy="286.18" r="26.5"/>
    </clipPath>
  </defs>
  <g>
    <g>
      <path class="h" d="M257.69,154.4l-127.52,178.76h276.29s-127.52-178.76-127.52-178.76c-5.21-7.3-16.05-7.3-21.26,0Z"/>
      <g class="q">
        <polygon class="j" points="224.48 197.16 250.76 183.18 247.67 219.4 273.73 186.27 301.45 207.26 298.03 178.88 275.83 148.18 262.96 147.62 249.55 162.31 224.48 197.16"/>
      </g>
    </g>
    <g>
      <path class="p" d="M281.24,333.16H93.53s86.63-135.64,86.63-135.64c3.54-5.54,10.9-5.54,14.44,0l86.63,135.64Z"/>
      <g class="n">
        <polygon class="j" points="154.25 235.18 179.42 195.33 188.26 190.8 197.87 197.16 217.08 230.56 209.11 247.54 185.66 223.86 166.2 247.92 160.41 231.14 154.25 235.18"/>
      </g>
    </g>
    <rect class="m" x="317.6" y="296.18" width="9" height="37.4"/>
    <rect class="m" x="357.58" y="291.18" width="9" height="42.4"/>
    <g>
      <polygon class="k" points="362.07 219.37 335.35 306.13 388.8 306.13 362.07 219.37"/>
      <g class="o">
        <rect class="l" x="362.07" y="201.94" width="43.43" height="119.71"/>
      </g>
    </g>
    <g>
      <circle class="i" cx="322.1" cy="286.18" r="26.5"/>
      <g class="g">
        <rect class="r" x="322.1" y="254.06" width="35.04" height="65.37"/>
      </g>
    </g>
  </g>
  <g>
    <g>
      <path d="M347.17,260.47l-71.88-100.77c-1.63-2.28-4.17-3.59-6.96-3.59s-5.34,1.31-6.97,3.59l-7.33-5.23c3.34-4.68,8.55-7.36,14.29-7.36h0c5.75,0,10.95,2.68,14.29,7.36l71.88,100.77-7.33,5.23Z"/>
      <polygon points="415.21 340.34 130.17 340.34 130.17 331.34 397.73 331.34 384.4 312.66 391.72 307.43 415.21 340.34"/>
      <path d="M247.03,223.71l3.16-36.97-27.36,14.56,26.32-36.59,13.61-14.9,13.34.57,22.41,31,3.58,29.68-28.27-21.4-26.79,34.06ZM251.34,185l-3.03,35.47,25.33-32.2,27.17,20.57-3.27-27.08-21.98-30.4-12.39-.53-13.26,14.51-23.78,33.07,25.2-13.41Z"/>
      <path d="M245.62,229.04v-34.05c-7.55,3.59-14.71,6.95-15.71,7.28l-2.79-8.56-.13.04c1.22-.48,11.83-5.49,21.19-9.96l6.44-3.08v25.14l18.8-20.55,21.29,16.32-2.27-18.84,8.94-1.08,4.83,40.07-31.71-24.31-28.87,31.57Z"/>
      <path d="M215.01,224.67l-7.33-5.23,46.34-64.97c3.34-4.68,8.55-7.36,14.29-7.36h0c5.75,0,10.95,2.68,14.29,7.36l-7.33,5.23c-1.63-2.28-4.17-3.59-6.96-3.59-2.8,0-5.34,1.31-6.97,3.59l-46.34,64.97Z"/>
    </g>
    <g>
      <path d="M282.15,336.34H92.62l.49-.77,86.63-135.64c1.78-2.79,4.57-4.38,7.64-4.38s5.86,1.6,7.64,4.38l51.21,80.18-.84.54-51.21-80.18c-1.59-2.49-4.07-3.92-6.8-3.92s-5.21,1.43-6.8,3.92l-86.14,134.87h185.88l-12.43-19.46.84-.54,13.41,21Z"/>
      <path d="M213.42,255.24l-28.56-28.22-18.14,21.14-6.73-13.32-7.35,4.62,26.43-41.83,9.22-4.72,9.95,6.59.06.1,19.31,33.55-4.18,22.09ZM184.81,225.55l27.98,27.66,3.77-19.88-19.06-33.13-9.27-6.14-8.45,4.33-23.93,37.87,4.54-2.86,6.55,12.96,17.86-20.82Z"/>
      <polygon points="216.04 259.86 184.95 231.45 166.14 251.22 156.28 233.86 164.1 229.41 167.98 236.23 184.5 218.86 209.07 241.3 210.21 231.13 219.15 232.14 216.04 259.86"/>
      <path d="M289.45,340.34H85.32l91.06-142.56c2.49-3.9,6.61-6.23,11.01-6.23s8.52,2.33,11.01,6.23l51.21,80.18-7.58,4.84-51.21-80.18c-.84-1.32-2.09-2.08-3.43-2.08s-2.59.76-3.43,2.08l-82.21,128.72h171.28l-8.5-13.31,7.59-4.84,17.34,27.15Z"/>
      <rect x="252.77" y="291.83" width="9" height="12.97" transform="translate(-120.12 185.36) rotate(-32.56)"/>
    </g>
    <polygon points="394.89 313.31 340.57 313.31 340.57 304.31 382.7 304.31 362.08 237.34 350.07 276.3 341.47 273.65 362.08 206.77 394.89 313.31"/>
    <path d="M322.1,319.87c-17.09,0-31-13.91-31-31s13.91-31,31-31,31,13.91,31,31-13.91,31-31,31ZM322.1,266.87c-12.13,0-22,9.87-22,22s9.87,22,22,22,22-9.87,22-22-9.87-22-22-22Z"/>
    <rect x="317.6" y="298.87" width="9" height="37.41"/>
    <rect x="357.58" y="293.87" width="9" height="42.41"/>
    <g>
      <rect class="i" x="60.83" y="342.08" width="378.33" height="9" rx="4.5" ry="4.5"/>
      <path d="M434.67,342.08c2.49,0,4.5,2.01,4.5,4.5s-2.01,4.5-4.5,4.5H65.33c-2.49,0-4.5-2.01-4.5-4.5s2.01-4.5,4.5-4.5h369.33M434.67,332.08H65.33c-8,0-14.5,6.5-14.5,14.5s6.5,14.5,14.5,14.5h369.33c8,0,14.5-6.5,14.5-14.5s-6.5-14.5-14.5-14.5h0Z"/>
    </g>
  </g>
</svg>