<svg version="1.2" xmlns="http://www.w3.org/2000/svg" viewBox="0 0 500 500" width="500" height="500">
	<title>Mountain</title>
	<defs>
		<clipPath clipPathUnits="userSpaceOnUse" id="cp1">
			<path d="m257.69 232.4l-127.52 178.76h276.29l-127.52-178.76c-5.21-7.3-16.05-7.3-21.25 0z"/>
		</clipPath>
		<clipPath clipPathUnits="userSpaceOnUse" id="cp2">
			<path d="m281.24 411.16h-187.71l86.63-135.64c3.54-5.54 10.9-5.54 14.44 0 0 0 86.63 135.64 86.64 135.64z"/>
		</clipPath>
		<clipPath clipPathUnits="userSpaceOnUse" id="cp3">
			<path d="m362.07 297.37l-26.72 86.76h53.45l-26.73-86.76z"/>
		</clipPath>
		<clipPath clipPathUnits="userSpaceOnUse" id="cp4">
			<path d="m322.1 390.68c-14.65 0-26.5-11.85-26.5-26.5 0-14.65 11.85-26.5 26.5-26.5 14.65 0 26.5 11.85 26.5 26.5 0 14.65-11.85 26.5-26.5 26.5z"/>
		</clipPath>
	</defs>
	<style>
		.s0 { fill: #000000 } 
		.s1 { fill: #61bdd2 } 
		.s2 { fill: #5b3b2b } 
		.s3 { fill: #ffffff } 
		.s4 { fill: #704d39 } 
		.s5 { fill: #3f1b09 } 
		.s6 { fill: #42722b } 
		.s7 { fill: #376022 } 
		.s8 { fill: #6dbc3f } 
		.s9 { fill: #61a833 } 
	</style>
	<path id="Shape 1" fill-rule="evenodd" class="s0" d="m66 61h368c8.3 0 15 6.7 15 15v348c0 8.3-6.7 15-15 15h-368c-8.3 0-15-6.7-15-15v-348c0-8.3 6.7-15 15-15z"/>
	<path id="Shape 1 copy" fill-rule="evenodd" class="s1" d="m69 71h362c4.4 0 8 3.6 8 8v342c0 4.4-3.6 8-8 8h-362c-4.4 0-8-3.6-8-8v-342c0-4.4 3.6-8 8-8z"/>
	<g>
		<g>
			<path class="s2" d="m257.7 232.4l-127.5 178.8h276.3l-127.6-178.8c-5.2-7.3-16-7.3-21.2 0z"/>
			<g id="Clip-Path" clip-path="url(#cp1)">
				<g>
					<path fill-rule="evenodd" class="s3" d="m224.5 275.2l26.3-14-3.1 36.2 26-33.1 27.7 21-3.4-28.4-22.2-30.7-12.8-0.6-13.4 14.7-25.1 34.9z"/>
				</g>
			</g>
		</g>
		<g>
			<path class="s4" d="m281.2 411.2h-187.7l86.7-135.7c3.5-5.5 10.9-5.5 14.4 0 0 0 86.6 135.7 86.6 135.7z"/>
			<g id="Clip-Path" clip-path="url(#cp2)">
				<g>
					<path fill-rule="evenodd" class="s3" d="m154.3 313.2l25.1-39.9 8.9-4.5 9.6 6.4 19.2 33.4-8 16.9-23.4-23.6-19.5 24-5.8-16.8-6.2 4.1z"/>
				</g>
			</g>
		</g>
		<path fill-rule="evenodd" class="s5" d="m317.6 374.2h9v37.4h-9z"/>
		<path fill-rule="evenodd" class="s5" d="m357.6 369.2h9v42.4h-9z"/>
		<g>
			<path fill-rule="evenodd" class="s6" d="m362.1 297.4l-26.8 86.7h53.5l-26.7-86.7z"/>
			<g id="Clip-Path" clip-path="url(#cp3)">
				<g>
					<path fill-rule="evenodd" class="s7" d="m362.1 279.9h43.4v119.8h-43.4z"/>
				</g>
			</g>
		</g>
		<g>
			<path fill-rule="evenodd" class="s8" d="m322.1 390.7c-14.7 0-26.5-11.9-26.5-26.5 0-14.7 11.8-26.5 26.5-26.5 14.7 0 26.5 11.8 26.5 26.5 0 14.6-11.8 26.5-26.5 26.5z"/>
			<g id="Clip-Path" clip-path="url(#cp4)">
				<g>
					<path fill-rule="evenodd" class="s9" d="m322.1 332.1h35v65.3h-35z"/>
				</g>
			</g>
		</g>
	</g>
	<g>
		<g>
			<path class="s0" d="m347.2 338.5l-71.9-100.8c-1.6-2.3-4.2-3.6-7-3.6-2.8 0-5.3 1.3-6.9 3.6l-7.4-5.2c3.4-4.7 8.6-7.4 14.3-7.4 5.8 0 11 2.7 14.3 7.4l71.9 100.7c0 0-7.3 5.3-7.3 5.3z"/>
			<path fill-rule="evenodd" class="s0" d="m415.2 418.3h-285v-9h267.5l-13.3-18.6 7.3-5.3 23.5 32.9z"/>
			<path class="s0" d="m247 301.7l3.2-37-27.4 14.6 26.3-36.6 13.7-14.9 13.3 0.6 22.4 31 3.6 29.7-28.3-21.4c0 0-26.8 34-26.8 34zm4.3-38.7l-3 35.5 25.3-32.2 27.2 20.5-3.3-27-21.9-30.4-12.4-0.6-13.3 14.5-23.8 33.1c0 0 25.2-13.4 25.2-13.4z"/>
			<path class="s0" d="m245.6 307v-34c-7.5 3.6-14.7 6.9-15.7 7.3l-2.8-8.6h-0.1c1.2-0.4 11.8-5.4 21.2-9.9l6.4-3.1v25.1l18.8-20.5 21.3 16.3-2.3-18.8 9-1.1 4.8 40.1-31.7-24.3-28.9 31.5z"/>
			<path class="s0" d="m215 302.7l-7.3-5.3 46.3-64.9c3.4-4.7 8.6-7.4 14.3-7.4 5.8 0 11 2.7 14.3 7.4l-7.3 5.2c-1.7-2.3-4.2-3.6-7-3.6-2.8 0-5.3 1.3-7 3.6 0 0-46.3 65-46.3 65z"/>
		</g>
		<g>
			<path class="s0" d="m282.1 414.3h-189.5l0.5-0.7 86.6-135.7c1.8-2.8 4.6-4.4 7.7-4.4 3 0 5.8 1.6 7.6 4.4l51.2 80.2-0.8 0.6-51.2-80.2c-1.6-2.5-4.1-3.9-6.8-3.9-2.8 0-5.2 1.4-6.8 3.9l-86.2 134.8h185.9l-12.4-19.4 0.8-0.6 13.4 21z"/>
			<path class="s0" d="m213.4 333.2l-28.5-28.2-18.2 21.2-6.7-13.4-7.4 4.7 26.5-41.9 9.2-4.7 9.9 6.6 0.1 0.1 19.3 33.6c0 0-4.2 22-4.2 22zm-28.6-29.6l28 27.6 3.8-19.9-19.1-33.1-9.3-6.1-8.4 4.3-24 37.9 4.6-2.9 6.5 13 17.9-20.9z"/>
			<path fill-rule="evenodd" class="s0" d="m216 337.9l-31.1-28.4-18.8 19.7-9.8-17.3 7.8-4.5 3.9 6.8 16.5-17.3 24.6 22.4 1.1-10.2 8.9 1-3.1 27.8z"/>
			<path class="s0" d="m289.4 418.3h-204.1l91.1-142.5c2.5-3.9 6.6-6.3 11-6.3 4.4 0 8.5 2.4 11 6.3l51.2 80.2-7.6 4.8-51.2-80.2c-0.8-1.3-2.1-2.1-3.4-2.1-1.4 0-2.6 0.8-3.4 2.1l-82.3 128.7h171.3l-8.5-13.3 7.6-4.8c0 0 17.4 27.1 17.3 27.1z"/>
			<path fill-rule="evenodd" class="s0" d="m250 373.3l7.6-4.9 6.9 11-7.5 4.8z"/>
		</g>
		<path fill-rule="evenodd" class="s0" d="m394.9 391.3h-54.3v-9h42.1l-20.6-67-12 39-8.6-2.7 20.6-66.8 32.8 106.5z"/>
		<path class="s0" d="m322.1 397.9c-17.1 0-31-13.9-31-31 0-17.1 13.9-31 31-31 17.1 0 31 13.9 31 31 0 17.1-13.9 31-31 31zm0-53c-12.1 0-22 9.8-22 22 0 12.1 9.9 22 22 22 12.1 0 22-9.9 22-22 0-12.2-9.9-22-22-22z"/>
		<path fill-rule="evenodd" class="s0" d="m317.6 376.9h9v37.4h-9z"/>
		<path fill-rule="evenodd" class="s0" d="m357.6 371.9h9v42.4h-9z"/>
		<g>
			<path fill-rule="evenodd" class="s8" d="m65.3 420.1h369.4c2.4 0 4.5 2 4.5 4.5 0 2.5-2.1 4.5-4.5 4.5h-369.4c-2.5 0-4.5-2-4.5-4.5 0-2.5 2-4.5 4.5-4.5z"/>
			<path class="s0" d="m434.7 410.1h-369.4c-8 0-14.5 6.5-14.5 14.5 0 8 6.5 14.5 14.5 14.5h369.4c8 0 14.5-6.5 14.5-14.5 0-8-6.5-14.5-14.5-14.5zm0 10c2.4 0 4.5 2 4.5 4.5 0 2.5-2.1 4.5-4.5 4.5h-369.4c-2.5 0-4.5-2-4.5-4.5 0-2.5 2-4.5 4.5-4.5h369.3"/>
		</g>
	</g>
</svg>