<?xml version="1.0" encoding="UTF-8"?>
<svg id="b" data-name="Finished icons" xmlns="http://www.w3.org/2000/svg" viewBox="0 0 500 500">
  <defs>
    <style>
      .c {
        fill: #d89f00;
      }

      .d {
        fill: #ffd150;
      }

      .e {
        fill: #ffc200;
      }
    </style>
  </defs>
  <g>
    <path class="c" d="M300.83,120.46l-4.12,2.89c-2.38,1.67-5.5-.67-4.56-3.42l5.97-17.45c.47-1.36,0-2.87-1.15-3.73l-14.75-11.07c-2.32-1.74-1.06-5.44,1.85-5.4l18.44.28c1.44.02,2.73-.88,3.19-2.25l5.97-17.45c.94-2.75,4.85-2.69,5.71.09l5.43,17.63c.42,1.37,1.68,2.32,3.12,2.34l18.44.28c2.91.04,4.06,3.78,1.68,5.45l-15.09,10.61c-1.18.83-1.69,2.32-1.26,3.69l5.43,17.63c.86,2.78-2.34,5.03-4.67,3.28l-14.75-11.07c-1.15-.86-2.73-.89-3.9-.06l-2.32,1.63-8.65,6.08Z"/>
    <path class="d" d="M102.76,328.74l-2.86,4.2c-1.65,2.43-5.44,1.32-5.53-1.61l-.57-18.62c-.04-1.45-1.02-2.71-2.41-3.12l-17.89-5.22c-2.82-.82-2.94-4.77-.18-5.76l17.54-6.29c1.37-.49,2.26-1.81,2.22-3.26l-.57-18.62c-.09-2.93,3.63-4.27,5.43-1.95l11.41,14.73c.89,1.15,2.42,1.6,3.79,1.1l17.54-6.29c2.76-.99,5.18,2.13,3.53,4.56l-10.49,15.4c-.82,1.2-.77,2.79.12,3.94l11.41,14.73c1.8,2.32-.43,5.59-3.24,4.76l-17.89-5.22c-1.4-.41-2.89.13-3.71,1.33l-1.61,2.37-6.01,8.83Z"/>
    <path class="d" d="M359.92,350.65l-4.58,3.86c-2.64,2.23-6.59-.23-5.76-3.59l5.27-21.3c.41-1.66-.29-3.4-1.75-4.3l-18.63-11.59c-2.94-1.83-1.82-6.34,1.63-6.59l21.89-1.57c1.71-.12,3.14-1.33,3.55-2.99l5.27-21.3c.83-3.36,5.47-3.69,6.77-.49l8.26,20.33c.64,1.59,2.24,2.58,3.94,2.45l21.89-1.57c3.45-.25,5.2,4.06,2.55,6.29l-16.78,14.13c-1.31,1.1-1.76,2.92-1.12,4.51l8.26,20.33c1.3,3.2-2.26,6.2-5.19,4.37l-18.63-11.59c-1.45-.9-3.32-.77-4.63.33l-2.58,2.17-9.62,8.1Z"/>
    <path class="c" d="M204.29,433.31l-3.58,2.02c-2.07,1.16-4.42-1-3.43-3.16l6.28-13.7c.49-1.07.24-2.33-.63-3.13l-11.09-10.21c-1.75-1.61-.42-4.51,1.94-4.24l14.97,1.74c1.17.14,2.29-.5,2.78-1.56l6.28-13.7c.99-2.16,4.16-1.79,4.63.54l2.97,14.77c.23,1.15,1.18,2.02,2.35,2.16l14.97,1.74c2.36.27,2.99,3.41.92,4.57l-13.13,7.39c-1.02.58-1.56,1.75-1.33,2.9l2.97,14.77c.47,2.33-2.32,3.89-4.06,2.29l-11.09-10.21c-.86-.8-2.14-.95-3.17-.37l-2.02,1.14-7.53,4.24Z"/>
    <path class="e" d="M240.33,270.43l-3.52,2.47c-2.03,1.43-4.7-.58-3.9-2.93l5.1-14.91c.4-1.16,0-2.45-.98-3.19l-12.61-9.46c-1.99-1.49-.91-4.65,1.58-4.61l15.76.24c1.23.02,2.33-.76,2.73-1.92l5.1-14.91c.8-2.35,4.15-2.3,4.88.08l4.64,15.06c.36,1.18,1.44,1.98,2.67,2l15.76.24c2.48.04,3.47,3.23,1.44,4.66l-12.89,9.07c-1.01.71-1.44,1.98-1.08,3.16l4.64,15.06c.73,2.37-2,4.3-3.99,2.81l-12.61-9.46c-.98-.74-2.33-.76-3.34-.05l-1.98,1.39-7.39,5.2Z"/>
    <path class="e" d="M185.62,219.5c-6.43,2.06-13.29,3.17-20.4,3.17-37,0-67-29.99-67-67s29.99-67.01,67-67.01c7.11,0,13.97,1.11,20.4,3.17-27.02,8.62-46.6,33.95-46.6,63.84s19.57,55.21,46.6,63.83Z"/>
    <circle class="e" cx="347.32" cy="209.44" r="4.83"/>
    <circle class="d" cx="237.71" cy="162.98" r="4.71"/>
    <circle class="c" cx="228.92" cy="319.58" r="4.88"/>
    <circle class="d" cx="244.91" cy="304.89" r="2.48"/>
    <circle class="c" cx="333.83" cy="408.96" r="5.83"/>
    <circle class="d" cx="380.25" cy="424.27" r="3.12"/>
    <circle class="d" cx="150.7" cy="410.04" r="6.91"/>
    <circle class="e" cx="69.39" cy="368.6" r="4.88"/>
    <circle class="d" cx="73.57" cy="218.45" r="4.18"/>
  </g>
  <g>
    <path d="M332.25,128.97c-1.58,0-3.16-.5-4.5-1.5l-14.07-10.56-14.38,10.12c-2.67,1.87-6.21,1.82-8.82-.14-2.61-1.96-3.65-5.34-2.59-8.43l5.69-16.64-14.07-10.55c-2.61-1.96-3.65-5.34-2.6-8.43,1.04-3.05,3.88-5.07,7.09-5.07.04,0,.08,0,.12,0l17.58.27,5.69-16.64c1.05-3.08,3.99-5.12,7.21-5.07,3.26.05,6.09,2.18,7.05,5.29l5.18,16.81,17.58.27c3.26.05,6.09,2.17,7.05,5.29.96,3.12-.19,6.47-2.85,8.34l-14.39,10.12,5.18,16.81c.96,3.11-.19,6.47-2.85,8.34-1.3.91-2.81,1.37-4.32,1.37ZM313.71,107.63c1.65,0,3.3.52,4.69,1.57l11.06,8.3-4.07-13.21c-1-3.25.19-6.74,2.97-8.7l11.31-7.95-13.83-.21c-3.4-.05-6.36-2.27-7.35-5.52l-4.07-13.21-4.47,13.08c-1.09,3.18-4.05,5.29-7.4,5.29-.04,0-.08,0-.12,0l-13.83-.21,11.06,8.3c2.72,2.04,3.8,5.57,2.71,8.79l-4.47,13.08,11.31-7.95c1.36-.95,2.93-1.43,4.5-1.43Z"/>
    <path d="M97.4,338.77c-.7,0-1.42-.1-2.12-.3-3.14-.92-5.32-3.73-5.42-7l-.54-17.79-17.09-4.98c-3.14-.92-5.32-3.73-5.42-7-.1-3.27,1.9-6.21,4.98-7.32l16.75-6.01-.54-17.79c-.1-3.27,1.9-6.21,4.98-7.32,3.08-1.11,6.5-.11,8.5,2.48l10.9,14.08,16.75-6.01c3.08-1.11,6.5-.11,8.5,2.48,2,2.59,2.11,6.14.27,8.85l-10.02,14.71,10.9,14.08c2,2.59,2.11,6.14.27,8.85s-5.19,3.9-8.33,2.99l-17.09-4.98-10.02,14.71c-1.43,2.1-3.77,3.29-6.21,3.29ZM79.1,301.32l13.55,3.95c3.28.96,5.55,3.89,5.65,7.3l.43,14.1,7.94-11.66c1.92-2.82,5.41-4.07,8.69-3.12l13.55,3.95-8.64-11.16c-2.09-2.7-2.2-6.41-.28-9.23l7.94-11.66-13.28,4.77c-3.21,1.16-6.78.12-8.87-2.59l-8.64-11.16.43,14.11c.11,3.41-1.98,6.48-5.2,7.63l-13.28,4.77Z"/>
    <path d="M353.05,359.85c-1.47,0-2.95-.4-4.27-1.22-2.98-1.85-4.41-5.38-3.57-8.79l5.17-20.91-18.29-11.38c-2.98-1.85-4.41-5.38-3.57-8.79s3.76-5.86,7.26-6.11l21.49-1.54,5.17-20.91c.84-3.4,3.76-5.86,7.25-6.11,3.49-.26,6.73,1.76,8.05,5.01l8.11,19.96,21.49-1.54c3.5-.26,6.73,1.76,8.05,5.01s.41,6.95-2.28,9.21l-16.48,13.88,8.11,19.96c1.32,3.25.4,6.95-2.28,9.21-2.68,2.26-6.48,2.53-9.46.68l-18.29-11.38-16.48,13.88c-1.5,1.26-3.34,1.9-5.2,1.9ZM339.28,311.42l16.19,10.08c3.12,1.94,4.62,5.64,3.74,9.2l-4.58,18.52,14.59-12.29c2.81-2.37,6.79-2.65,9.91-.71l16.2,10.08-7.18-17.67c-1.38-3.4-.42-7.28,2.39-9.64l14.59-12.29-19.03,1.37c-3.66.25-7.05-1.85-8.43-5.25l-7.18-17.67-4.58,18.52c-.88,3.57-3.94,6.14-7.6,6.4l-19.02,1.37Z"/>
    <path d="M229.75,443.66c-1.7,0-3.39-.63-4.71-1.84l-10.13-9.33-12,6.75c-2.63,1.48-5.89,1.1-8.12-.94-2.22-2.05-2.87-5.27-1.61-8.01l5.74-12.52-10.13-9.33c-2.22-2.05-2.87-5.27-1.61-8.01,1.26-2.75,4.11-4.36,7.12-4.01l13.68,1.59,5.74-12.52c1.26-2.75,4.12-4.35,7.12-4.01,3,.35,5.42,2.57,6.01,5.53l2.71,13.5,13.68,1.59c3,.35,5.42,2.57,6.01,5.53.59,2.96-.77,5.95-3.41,7.43l-12,6.75,2.71,13.5c.59,2.96-.77,5.95-3.41,7.43-1.07.6-2.25.9-3.41.9ZM215.18,423.08c1.77,0,3.51.65,4.88,1.91l6.45,5.94-1.73-8.59c-.62-3.07.8-6.17,3.54-7.71l7.64-4.3-8.71-1.01c-3.11-.36-5.62-2.67-6.24-5.74l-1.73-8.59-3.65,7.97c-1.31,2.85-4.27,4.52-7.39,4.16l-8.7-1.01,6.45,5.94c2.3,2.12,2.98,5.46,1.67,8.31l-3.66,7.97,7.64-4.3c1.11-.62,2.33-.93,3.54-.93Z"/>
    <path d="M267.19,278.37c-1.49,0-2.98-.47-4.24-1.42l-11.64-8.73-11.91,8.37c-2.51,1.77-5.85,1.71-8.3-.13s-3.44-5.03-2.44-7.94l4.71-13.77-11.64-8.74c-2.46-1.84-3.44-5.03-2.44-7.94.98-2.87,3.66-4.78,6.68-4.78.04,0,.07,0,.11,0l14.55.22,4.71-13.77c.99-2.91,3.77-4.83,6.79-4.78,3.07.05,5.74,2.05,6.64,4.99l4.28,13.91,14.55.22c3.07.05,5.74,2.05,6.64,4.98.9,2.93-.18,6.09-2.69,7.86l-11.91,8.37,4.29,13.91c.9,2.94-.18,6.09-2.69,7.86-1.22.86-2.64,1.29-4.06,1.29ZM251.34,258.82c1.55,0,3.1.49,4.4,1.47l7.84,5.88-2.89-9.37c-.94-3.05.18-6.33,2.79-8.16l8.02-5.64-9.8-.15c-3.19-.05-5.96-2.13-6.9-5.17l-2.89-9.37-3.17,9.28c-1.03,3.02-3.85,5.03-7.05,4.96l-9.8-.15,7.84,5.88c2.55,1.92,3.57,5.23,2.54,8.24l-3.17,9.28,8.02-5.64c1.27-.89,2.75-1.34,4.22-1.34Z"/>
    <path d="M165.22,227.17c-39.42,0-71.5-32.07-71.5-71.5s32.07-71.51,71.5-71.51c7.44,0,14.76,1.14,21.77,3.38v8.57c-26,8.29-43.47,32.22-43.47,59.55s17.47,51.25,43.46,59.54v8.57c-7.01,2.25-14.33,3.38-21.77,3.38ZM165.22,93.17c-34.46,0-62.5,28.04-62.5,62.51s28.04,62.5,62.5,62.5c1.86,0,3.72-.08,5.56-.24-22.15-12.47-36.26-35.99-36.26-62.25s14.11-49.79,36.26-62.26c-1.84-.16-3.7-.24-5.56-.24Z"/>
  </g>
  <path class="e" d="M390.93,194.36l-4.22.83c-2.44.48-4.06-2.44-2.37-4.26l10.72-11.55c.84-.9,1-2.24.4-3.31l-7.67-13.77c-1.21-2.17,1.06-4.62,3.32-3.57l14.3,6.63c1.12.52,2.44.26,3.27-.64l10.72-11.55c1.69-1.82,4.72-.41,4.42,2.05l-1.89,15.65c-.15,1.22.51,2.4,1.62,2.91l14.3,6.63c2.25,1.04,1.85,4.36-.58,4.84l-15.47,3.04c-1.21.24-2.12,1.22-2.27,2.45l-1.89,15.65c-.3,2.47-3.58,3.11-4.78.94l-7.67-13.77c-.6-1.07-1.82-1.64-3.03-1.4l-2.38.47-8.87,1.74Z"/>
  <path d="M415.11,213.13c-2.53,0-4.89-1.35-6.16-3.63l-7.09-12.71-14.28,2.81c-3,.6-6.04-.81-7.53-3.49-1.49-2.68-1.09-6,.99-8.25l9.9-10.67-7.08-12.71c-1.49-2.68-1.09-5.99.99-8.24,2.09-2.25,5.36-2.89,8.15-1.6l13.21,6.12,9.9-10.67c2.09-2.25,5.36-2.89,8.15-1.6s4.41,4.21,4.04,7.25l-1.74,14.45,13.21,6.12c2.79,1.29,4.41,4.21,4.04,7.25-.37,3.05-2.64,5.49-5.65,6.09l-14.28,2.81-1.74,14.45c-.37,3.05-2.64,5.5-5.65,6.09-.46.09-.92.13-1.37.13ZM402.74,187.59c2.62,0,5.08,1.41,6.4,3.77l4.77,8.56,1.17-9.73c.38-3.17,2.74-5.71,5.87-6.32l9.62-1.89-8.89-4.12c-2.89-1.34-4.58-4.37-4.2-7.54l1.17-9.73-6.67,7.18c-2.17,2.34-5.57,3-8.46,1.67l-8.9-4.12,4.77,8.56c1.55,2.79,1.14,6.23-1.03,8.56l-6.67,7.19,9.62-1.89c.48-.09.96-.14,1.43-.14Z"/>
</svg>