<?xml version="1.0" encoding="UTF-8"?>
<svg id="b" data-name="Finished icons" xmlns="http://www.w3.org/2000/svg" xmlns:xlink="http://www.w3.org/1999/xlink" viewBox="0 0 500 500">
  <defs>
    <style>
      .k {
        clip-path: url(#i);
      }

      .l {
        fill: #141414;
      }

      .m {
        clip-path: url(#f);
      }

      .n {
        clip-path: url(#j);
      }

      .o {
        clip-path: url(#h);
      }

      .p {
        fill: #ddac9e;
      }

      .q {
        fill: #3a3a3a;
      }

      .r {
        fill: #212121;
      }

      .s {
        fill: #d89f00;
      }

      .t {
        clip-path: url(#g);
      }

      .u {
        clip-path: url(#d);
      }

      .v {
        clip-path: url(#e);
      }

      .w {
        fill: #eabdac;
      }

      .x {
        fill: #565656;
      }

      .y {
        fill: #ffc200;
      }

      .z {
        clip-path: url(#c);
      }
    </style>
    <clipPath id="c">
      <path class="y" d="M6.35-471.02l32.67,100.55c2.55,7.84,9.86,13.15,18.1,13.15h105.73c16.66,0,23.58,21.32,10.11,31.11l-85.54,62.15c-6.67,4.85-9.46,13.44-6.92,21.28l32.67,100.55c5.15,15.84-12.99,29.02-26.46,19.23L1.19-185.14c-6.67-4.85-15.71-4.85-22.38,0l-85.54,62.15c-13.48,9.79-31.61-3.38-26.46-19.23l32.67-100.55c2.55-7.84-.24-16.44-6.92-21.28l-85.54-62.15c-13.48-9.79-6.55-31.11,10.11-31.11h105.73c8.25,0,15.56-5.31,18.1-13.15l32.67-100.55c5.15-15.84,27.56-15.84,32.71,0Z"/>
    </clipPath>
    <clipPath id="d">
      <polygon class="y" points="-149.25 -94.66 -98.86 -255.91 -10 -283.95 -10.31 -190.77 -149.25 -94.66"/>
    </clipPath>
    <clipPath id="e">
      <polygon class="y" points="129.25 -94.66 78.86 -255.91 -10 -283.95 -10.31 -190.77 129.25 -94.66"/>
    </clipPath>
    <clipPath id="f">
      <path class="r" d="M380.88,438.75H120.12s8.09-89.29,8.09-89.29l84.2-60.63c7.79,43.96,20.58,83.87,38.14,119.92,20.22-41.02,34.61-81.17,39.41-119.92l81.81,61.79,9.09,88.13Z"/>
    </clipPath>
    <clipPath id="g">
      <polygon class="w" points="283.3 276.13 288.58 288.82 250.5 406.07 212.42 288.82 218.43 276.13 283.3 276.13"/>
    </clipPath>
    <clipPath id="h">
      <path class="w" d="M323.26,193.12c-.78,0-1.54.06-2.3.16-8.1-31.08-36.35-54.02-69.97-54.02s-61.87,22.94-69.97,54.02c-.75-.09-1.52-.16-2.3-.16-10.19,0-18.45,8.26-18.45,18.45s8.26,18.45,18.45,18.45c.78,0,1.54-.06,2.3-.16,8.1,31.08,36.35,54.02,69.97,54.02s61.87-22.94,69.97-54.02c.75.09,1.52.16,2.3.16,10.19,0,18.45-8.26,18.45-18.45s-8.26-18.45-18.45-18.45Z"/>
    </clipPath>
    <clipPath id="i">
      <path class="r" d="M317.27,179.05c-43.53-13.39-87.92-12.91-133.17,1.18l-2.36,15.61s26.29,37.27,44.07,35.79c17.77-1.48,10.13-10.17,24.85-11.05,14.72-.88,11.48,12.37,25.32,13.1,24.59.74,26.64-38.87,44.31-39.09l-3.02-15.54ZM237.54,217.88c0,3.42-2.77,6.18-6.18,6.18h-11.26c-3.42,0-6.18-2.77-6.18-6.18v-24.29c0-3.42,2.77-6.18,6.18-6.18h11.26c3.42,0,6.18,2.77,6.18,6.18v24.29ZM286.09,217.88c0,3.42-2.77,6.18-6.18,6.18h-11.26c-3.42,0-6.18-2.77-6.18-6.18v-24.29c0-3.42,2.77-6.18,6.18-6.18h11.26c3.42,0,6.18,2.77,6.18,6.18v24.29Z"/>
    </clipPath>
    <clipPath id="j">
      <path class="x" d="M315.92,177.13c-43.41-10.47-87.15-10.32-131.23,0,0,0,8.2-44.9,66.31-44.9s64.92,44.9,64.92,44.9Z"/>
    </clipPath>
  </defs>
  <g>
    <path class="y" d="M6.35-471.02l32.67,100.55c2.55,7.84,9.86,13.15,18.1,13.15h105.73c16.66,0,23.58,21.32,10.11,31.11l-85.54,62.15c-6.67,4.85-9.46,13.44-6.92,21.28l32.67,100.55c5.15,15.84-12.99,29.02-26.46,19.23L1.19-185.14c-6.67-4.85-15.71-4.85-22.38,0l-85.54,62.15c-13.48,9.79-31.61-3.38-26.46-19.23l32.67-100.55c2.55-7.84-.24-16.44-6.92-21.28l-85.54-62.15c-13.48-9.79-6.55-31.11,10.11-31.11h105.73c8.25,0,15.56-5.31,18.1-13.15l32.67-100.55c5.15-15.84,27.56-15.84,32.71,0Z"/>
    <g class="z">
      <g>
        <polygon class="y" points="-149.25 -94.66 -98.86 -255.91 -10 -283.95 -10.31 -190.77 -149.25 -94.66"/>
        <g class="u">
          <rect class="s" x="-36.88" y="-431.5" width="223.78" height="441.28" transform="translate(-110.37 -85.46) rotate(36.34)"/>
        </g>
      </g>
      <g>
        <polygon class="y" points="129.25 -94.66 78.86 -255.91 -10 -283.95 -10.31 -190.77 129.25 -94.66"/>
        <g class="v">
          <rect class="s" x="-206.9" y="-431.5" width="223.78" height="441.28" transform="translate(-296.49 -324.41) rotate(143.66)"/>
        </g>
      </g>
    </g>
  </g>
  <g>
    <g>
      <g>
        <g>
          <path class="r" d="M380.88,438.75H120.12s8.09-89.29,8.09-89.29l84.2-60.63c7.79,43.96,20.58,83.87,38.14,119.92,20.22-41.02,34.61-81.17,39.41-119.92l81.81,61.79,9.09,88.13Z"/>
          <g class="m">
            <rect class="l" x="250.56" y="58.33" width="188.18" height="378.33"/>
          </g>
        </g>
        <path class="q" d="M343.21,350.66l-54.63-61.84c-8.25,43.04-20.95,82.37-37.58,118.45l92.21-56.61Z"/>
        <path class="x" d="M157.79,350.66l54.63-58.83c6.87,39.97,20.35,78.29,38.58,115.44l-93.21-56.61Z"/>
        <g>
          <polygon class="w" points="283.3 276.13 288.58 288.82 250.5 406.07 212.42 288.82 218.43 276.13 283.3 276.13"/>
          <g class="t">
            <rect class="p" x="250.89" y="14.06" width="193.49" height="455.72"/>
          </g>
        </g>
      </g>
      <g>
        <path d="M385.36,439.12l-8.97-.75c2.1-24.94-3.19-52.67-8.31-79.48-.44-2.29-.87-4.57-1.3-6.86l-80.87-59.58,5.34-7.25,83.72,61.68.33,1.74c.54,2.86,1.08,5.72,1.63,8.58,5.23,27.41,10.63,55.75,8.43,81.92Z"/>
        <polygon points="260.12 381.62 243.02 362.8 270.97 345.57 275.69 353.24 256.97 364.77 266.78 375.57 260.12 381.62"/>
        <path d="M115.64,439.12c-2.2-26.18,3.21-54.52,8.43-81.93.55-2.86,1.09-5.71,1.63-8.57l.33-1.74,83.72-61.68,5.34,7.25-80.87,59.58c-.43,2.28-.87,4.57-1.3,6.85-5.12,26.81-10.4,54.54-8.31,79.49l-8.97.75Z"/>
        <polygon points="250.5 411.31 150.83 351.74 209.05 285.84 215.79 291.8 164.75 349.58 250.5 400.83 336.25 349.58 285.21 291.8 291.95 285.84 350.17 351.74 250.5 411.31"/>
        <path d="M254.47,408.19h-7.94c-17.69-33.14-30.3-71.93-38.54-118.58l.05-1.79,3.17-13.84,8.77,2.01-2.97,12.95c7.44,41.72,18.42,76.93,33.49,107.3,15.07-30.37,26.05-65.58,33.49-107.3l-2.97-12.95,8.77-2.01,3.17,13.84.05,1.79c-8.24,46.65-20.85,85.44-38.54,118.58Z"/>
        <polygon points="240.88 381.62 234.22 375.57 244.02 364.77 225.31 353.24 230.03 345.57 257.97 362.8 240.88 381.62"/>
      </g>
    </g>
    <g>
      <g>
        <path class="q" d="M330.94,241.42s9.68-10.19,24.03-10.19,33.13,20.77,33.13,20.77c-20.43,7.83-39.67,5.92-57.16-10.58Z"/>
        <path class="q" d="M330.89,244.75s13.76,2.84,21.34,15.03-.15,39.1-.15,39.1c-17.43-13.21-25.97-30.57-21.19-54.13Z"/>
        <circle class="q" cx="318.82" cy="241.36" r="12.13"/>
      </g>
      <g>
        <path d="M368.1,260.92c-14,0-26.8-5.42-38.25-16.23l-3.28-3.1,3.11-3.27c.45-.47,11.19-11.59,27.29-11.59s34.41,19.98,36.47,22.25l4.4,4.87-6.13,2.35c-8.2,3.14-16.08,4.71-23.61,4.71ZM339.89,241.5c12.4,9.94,26.19,12.74,41.88,8.5-6.68-6.22-17.1-14.28-24.79-14.28s-13.46,3.23-17.09,5.78Z"/>
        <path d="M354.59,306.44l-5.23-3.96c-20-15.16-27.7-34.88-22.88-58.62l.9-4.42,4.42.91c.64.13,15.75,3.39,24.25,17.06,8.39,13.5,1.2,39.77.35,42.72l-1.81,6.31ZM334.49,250.67c-1.9,15.79,3,28.99,14.89,40.08,1.75-8.96,3.1-22.06-.96-28.59-3.94-6.35-9.86-9.77-13.92-11.49Z"/>
        <path d="M318.82,257.98c-9.17,0-16.63-7.46-16.63-16.63s7.46-16.63,16.63-16.63,16.63,7.46,16.63,16.63-7.46,16.63-16.63,16.63ZM318.82,233.73c-4.21,0-7.63,3.42-7.63,7.63s3.42,7.63,7.63,7.63,7.63-3.42,7.63-7.63-3.42-7.63-7.63-7.63Z"/>
      </g>
    </g>
    <g>
      <g>
        <path class="w" d="M323.26,193.12c-.78,0-1.54.06-2.3.16-8.1-31.08-36.35-54.02-69.97-54.02s-61.87,22.94-69.97,54.02c-.75-.09-1.52-.16-2.3-.16-10.19,0-18.45,8.26-18.45,18.45s8.26,18.45,18.45,18.45c.78,0,1.54-.06,2.3-.16,8.1,31.08,36.35,54.02,69.97,54.02s61.87-22.94,69.97-54.02c.75.09,1.52.16,2.3.16,10.19,0,18.45-8.26,18.45-18.45s-8.26-18.45-18.45-18.45Z"/>
        <g class="o">
          <rect class="p" x="250.89" y="14.06" width="193.49" height="455.72"/>
        </g>
      </g>
      <g>
        <rect x="221.51" y="194.75" width="8.62" height="23.27" rx="3.14" ry="3.14"/>
        <rect x="269.02" y="194.75" width="8.62" height="23.27" rx="3.14" ry="3.14"/>
        <path d="M250,288.85c-33.39,0-62.74-21.75-72.6-53.33-12.05-.57-21.67-10.55-21.67-22.73s9.63-22.17,21.67-22.73c9.86-31.58,39.2-53.33,72.6-53.33s62.74,21.75,72.6,53.33c12.05.57,21.67,10.55,21.67,22.73s-9.63,22.16-21.67,22.73c-9.86,31.58-39.2,53.33-72.6,53.33ZM184.12,225.94l1,3.82c7.69,29.49,34.37,50.09,64.89,50.09s57.2-20.6,64.89-50.09l1-3.82,3.92.49c.67.08,1.21.12,1.72.12,7.59,0,13.76-6.17,13.76-13.76s-6.17-13.76-13.76-13.76c-.5,0-1.05.04-1.72.12l-3.92.49-1-3.82c-7.69-29.49-34.37-50.09-64.89-50.09s-57.2,20.6-64.89,50.09l-1,3.82-3.92-.49c-.67-.08-1.21-.12-1.72-.12-7.59,0-13.76,6.17-13.76,13.76s6.17,13.76,13.76,13.76c.5,0,1.05-.04,1.72-.12l3.92-.49Z"/>
      </g>
    </g>
    <g>
      <g>
        <path class="r" d="M317.27,179.05c-43.53-13.39-87.92-12.91-133.17,1.18l-2.36,15.61s26.29,37.27,44.07,35.79c17.77-1.48,10.13-10.17,24.85-11.05,14.72-.88,11.48,12.37,25.32,13.1,24.59.74,26.64-38.87,44.31-39.09l-3.02-15.54ZM237.54,217.88c0,3.42-2.77,6.18-6.18,6.18h-11.26c-3.42,0-6.18-2.77-6.18-6.18v-24.29c0-3.42,2.77-6.18,6.18-6.18h11.26c3.42,0,6.18,2.77,6.18,6.18v24.29ZM286.09,217.88c0,3.42-2.77,6.18-6.18,6.18h-11.26c-3.42,0-6.18-2.77-6.18-6.18v-24.29c0-3.42,2.77-6.18,6.18-6.18h11.26c3.42,0,6.18,2.77,6.18,6.18v24.29Z"/>
        <g class="k">
          <rect class="l" x="250.89" y="14.06" width="193.49" height="455.72"/>
        </g>
      </g>
      <g>
        <path class="x" d="M315.92,177.13c-43.41-10.47-87.15-10.32-131.23,0,0,0,8.2-44.9,66.31-44.9s64.92,44.9,64.92,44.9Z"/>
        <g class="n">
          <rect class="q" x="250.89" y="14.06" width="193.49" height="455.72"/>
        </g>
      </g>
      <g>
        <path d="M275.25,236.15c-8.04,0-12.19-3.46-15.51-6.25-2.79-2.33-4.63-3.87-8.74-3.87s-6.8,1.8-9.97,4.08c-3.75,2.69-8.42,6.04-16.28,6.04-20.94,0-29.38-15.18-35.54-26.27-3.06-5.5-5.94-10.69-8.71-10.69h-5.01l.53-4.98c2.01-18.76,9.22-34.8,20.85-46.37,13.35-13.28,31.56-20.05,54.11-20.11,41.88.12,68.48,24.35,72.99,66.48l.53,4.98h-5.01c-2.76,0-5.65,5.19-8.71,10.69-6.16,11.09-14.6,26.27-35.54,26.27ZM251,217.03c7.38,0,11.33,3.31,14.51,5.97,2.88,2.41,4.96,4.15,9.74,4.15,15.64,0,22.03-11.5,27.67-21.64,3.38-6.07,6.61-11.89,11.6-14.23-3.27-21.96-16.14-54.41-63.54-54.54-36.07.1-60.31,20.4-65.51,54.55,4.99,2.35,8.22,8.16,11.6,14.23,5.64,10.14,12.03,21.64,27.67,21.64,4.96,0,7.64-1.92,11.03-4.36,3.77-2.7,8.03-5.77,15.22-5.77Z"/>
        <path d="M231.36,226.06h-11.26c-4.51,0-8.18-3.67-8.18-8.18v-24.29c0-4.51,3.67-8.18,8.18-8.18h11.26c4.51,0,8.18,3.67,8.18,8.18v24.29c0,4.51-3.67,8.18-8.18,8.18ZM220.1,189.4c-2.31,0-4.18,1.88-4.18,4.18v24.29c0,2.31,1.88,4.18,4.18,4.18h11.26c2.31,0,4.18-1.88,4.18-4.18v-24.29c0-2.31-1.88-4.18-4.18-4.18h-11.26Z"/>
        <path d="M279.9,226.06h-11.26c-4.51,0-8.18-3.67-8.18-8.18v-24.29c0-4.51,3.67-8.18,8.18-8.18h11.26c4.51,0,8.18,3.67,8.18,8.18v24.29c0,4.51-3.67,8.18-8.18,8.18ZM268.64,189.4c-2.31,0-4.18,1.88-4.18,4.18v24.29c0,2.31,1.88,4.18,4.18,4.18h11.26c2.31,0,4.18-1.88,4.18-4.18v-24.29c0-2.31-1.88-4.18-4.18-4.18h-11.26Z"/>
        <path d="M184.34,186.18l-3.03-8.48c45.95-16.41,92.21-16.41,137.5,0l-3.07,8.46c-43.26-15.69-87.47-15.68-131.4,0Z"/>
      </g>
    </g>
  </g>
</svg>