<?xml version="1.0" encoding="UTF-8"?>
<svg id="b" data-name="Finished icons" xmlns="http://www.w3.org/2000/svg" xmlns:xlink="http://www.w3.org/1999/xlink" viewBox="0 0 500 500">
  <defs>
    <style>
      .f {
        fill: #e26a6a;
      }

      .g {
        fill: #ddac9e;
      }

      .h {
        fill: #6490ff;
      }

      .i {
        fill: #d89f00;
      }

      .j {
        clip-path: url(#d);
      }

      .k {
        clip-path: url(#e);
      }

      .l {
        fill: #eabdac;
      }

      .m {
        fill: #ffc200;
      }

      .n {
        clip-path: url(#c);
      }

      .o {
        fill: #f17a7a;
      }
    </style>
    <clipPath id="c">
      <rect class="o" x="61.5" y="152.33" width="378.33" height="87.17" rx="12" ry="12"/>
    </clipPath>
    <clipPath id="d">
      <path class="m" d="M241.8,213.07l-2.53,1.78c-1.46,1.03-3.38-.41-2.8-2.1l3.67-10.72c.29-.84,0-1.76-.71-2.29l-9.07-6.8c-1.43-1.07-.65-3.35,1.13-3.32l11.33.17c.88.01,1.68-.54,1.96-1.38l3.67-10.72c.58-1.69,2.98-1.65,3.51.05l3.34,10.83c.26.84,1.03,1.43,1.92,1.44l11.33.17c1.79.03,2.49,2.32,1.03,3.35l-9.27,6.52c-.72.51-1.04,1.42-.78,2.27l3.34,10.83c.53,1.71-1.44,3.09-2.87,2.02l-9.07-6.8c-.71-.53-1.68-.55-2.4-.04l-1.43,1-5.32,3.74Z"/>
    </clipPath>
    <clipPath id="e">
      <path class="l" d="M262.99,314.16c-5.08-11.96,1.04-18.62-1.27-29.36s-15.12-16.89-17.37,0c-3.52,13.84-11.13,22.21-24.02,29.36h0v58.1h54.02c12.53,0,23.57-8.23,27.15-20.23l4.66-27.63c.62-5.79-3.3-10.24-8.63-10.24h-34.53Z"/>
    </clipPath>
  </defs>
  <g>
    <g>
      <g>
        <rect class="o" x="61.5" y="152.33" width="378.33" height="87.17" rx="12" ry="12"/>
        <g class="n">
          <rect class="f" x="250.3" y="77.83" width="189.53" height="378.33"/>
        </g>
      </g>
      <path class="m" d="M93.18,213.07l-2.53,1.78c-1.46,1.03-3.38-.41-2.8-2.1l3.67-10.72c.29-.84,0-1.76-.71-2.29l-9.07-6.8c-1.43-1.07-.65-3.35,1.13-3.32l11.33.17c.88.01,1.68-.54,1.96-1.38l3.67-10.72c.58-1.69,2.98-1.65,3.51.05l3.34,10.83c.26.84,1.03,1.43,1.92,1.44l11.33.17c1.79.03,2.49,2.32,1.03,3.35l-9.27,6.52c-.72.51-1.04,1.42-.78,2.27l3.34,10.83c.53,1.71-1.44,3.09-2.87,2.02l-9.07-6.8c-.71-.53-1.68-.55-2.4-.04l-1.43,1-5.32,3.74Z"/>
      <path class="i" d="M390.42,213.07l-2.53,1.78c-1.46,1.03-3.38-.41-2.8-2.1l3.67-10.72c.29-.84,0-1.76-.71-2.29l-9.07-6.8c-1.43-1.07-.65-3.35,1.13-3.32l11.33.17c.88.01,1.68-.54,1.96-1.38l3.67-10.72c.58-1.69,2.98-1.65,3.51.05l3.34,10.83c.26.84,1.03,1.43,1.92,1.44l11.33.17c1.79.03,2.49,2.32,1.03,3.35l-9.27,6.52c-.72.51-1.04,1.42-.78,2.27l3.34,10.83c.53,1.71-1.44,3.09-2.87,2.02l-9.07-6.8c-.71-.53-1.68-.55-2.4-.04l-1.43,1-5.32,3.74Z"/>
      <g>
        <path class="m" d="M241.8,213.07l-2.53,1.78c-1.46,1.03-3.38-.41-2.8-2.1l3.67-10.72c.29-.84,0-1.76-.71-2.29l-9.07-6.8c-1.43-1.07-.65-3.35,1.13-3.32l11.33.17c.88.01,1.68-.54,1.96-1.38l3.67-10.72c.58-1.69,2.98-1.65,3.51.05l3.34,10.83c.26.84,1.03,1.43,1.92,1.44l11.33.17c1.79.03,2.49,2.32,1.03,3.35l-9.27,6.52c-.72.51-1.04,1.42-.78,2.27l3.34,10.83c.53,1.71-1.44,3.09-2.87,2.02l-9.07-6.8c-.71-.53-1.68-.55-2.4-.04l-1.43,1-5.32,3.74Z"/>
        <g class="j">
          <rect class="i" x="250.3" y="77.83" width="189.53" height="378.33"/>
        </g>
      </g>
      <path class="m" d="M167.49,213.07l-2.53,1.78c-1.46,1.03-3.38-.41-2.8-2.1l3.67-10.72c.29-.84,0-1.76-.71-2.29l-9.07-6.8c-1.43-1.07-.65-3.35,1.13-3.32l11.33.17c.88.01,1.68-.54,1.96-1.38l3.67-10.72c.58-1.69,2.98-1.65,3.51.05l3.34,10.83c.26.84,1.03,1.43,1.92,1.44l11.33.17c1.79.03,2.49,2.32,1.03,3.35l-9.27,6.52c-.72.51-1.04,1.42-.78,2.27l3.34,10.83c.53,1.71-1.44,3.09-2.87,2.02l-9.07-6.8c-.71-.53-1.68-.55-2.4-.04l-1.43,1-5.32,3.74Z"/>
      <path class="i" d="M316.11,213.07l-2.53,1.78c-1.46,1.03-3.38-.41-2.8-2.1l3.67-10.72c.29-.84,0-1.76-.71-2.29l-9.07-6.8c-1.43-1.07-.65-3.35,1.13-3.32l11.33.17c.88.01,1.68-.54,1.96-1.38l3.67-10.72c.58-1.69,2.98-1.65,3.51.05l3.34,10.83c.26.84,1.03,1.43,1.92,1.44l11.33.17c1.79.03,2.49,2.32,1.03,3.35l-9.27,6.52c-.72.51-1.04,1.42-.78,2.27l3.34,10.83c.53,1.71-1.44,3.09-2.87,2.02l-9.07-6.8c-.71-.53-1.68-.55-2.4-.04l-1.43,1-5.32,3.74Z"/>
    </g>
    <g>
      <g>
        <path class="l" d="M262.99,314.16c-5.08-11.96,1.04-18.62-1.27-29.36s-15.12-16.89-17.37,0c-3.52,13.84-11.13,22.21-24.02,29.36h0v58.1h54.02c12.53,0,23.57-8.23,27.15-20.23l4.66-27.63c.62-5.79-3.3-10.24-8.63-10.24h-34.53Z"/>
        <g class="k">
          <rect class="g" x="250.3" y="77.83" width="189.53" height="378.33"/>
        </g>
      </g>
      <rect class="h" x="195.83" y="305.83" width="24.49" height="75.84"/>
    </g>
  </g>
  <g>
    <g>
      <path d="M115.91,222.91c-1.4,0-2.79-.44-3.97-1.33l-9.19-6.89-9.39,6.61c-2.35,1.66-5.48,1.61-7.78-.12s-3.22-4.72-2.29-7.44l3.72-10.87-9.19-6.89c-2.3-1.73-3.22-4.72-2.29-7.44.92-2.69,3.43-4.48,6.26-4.48.04,0,.07,0,.11,0l11.48.18,3.72-10.87c.92-2.69,3.43-4.48,6.26-4.48h.1c2.88.04,5.38,1.92,6.23,4.67l3.38,10.98,11.48.18c2.88.04,5.38,1.92,6.23,4.67s-.17,5.71-2.52,7.37l-9.39,6.61,3.38,10.98c.85,2.75-.17,5.71-2.52,7.37-1.15.81-2.48,1.21-3.81,1.21ZM102.79,205.18c1.45,0,2.89.46,4.11,1.38l4.58,3.44-1.69-5.47c-.88-2.84.17-5.9,2.6-7.62l4.69-3.3-5.73-.09c-2.97-.04-5.56-1.99-6.44-4.83l-1.69-5.48-1.85,5.42c-.95,2.78-3.55,4.63-6.48,4.63-.04,0-.07,0-.11,0l-5.73-.09,4.58,3.44c2.38,1.79,3.33,4.88,2.37,7.69l-1.85,5.42,4.69-3.3c1.19-.83,2.56-1.25,3.94-1.25Z"/>
      <path d="M409.68,222.91c-1.4,0-2.79-.44-3.97-1.33l-9.19-6.89-9.39,6.61c-2.35,1.66-5.48,1.61-7.78-.12-2.3-1.73-3.22-4.72-2.29-7.44l3.72-10.87-9.19-6.89c-2.3-1.73-3.22-4.72-2.29-7.44.92-2.69,3.43-4.48,6.26-4.48.04,0,.07,0,.11,0l11.48.18,3.72-10.87c.92-2.69,3.43-4.48,6.26-4.48h.1c2.88.04,5.38,1.92,6.23,4.67l3.38,10.98,11.48.18c2.88.04,5.38,1.92,6.23,4.67.85,2.75-.17,5.71-2.52,7.36l-9.39,6.61,3.38,10.97c.85,2.75-.17,5.71-2.52,7.37-1.15.81-2.48,1.21-3.81,1.21ZM396.56,205.18c1.45,0,2.89.46,4.11,1.38l4.58,3.44-1.69-5.47c-.87-2.85.17-5.91,2.6-7.62l4.69-3.3-5.73-.09c-2.97-.04-5.56-1.99-6.44-4.83l-1.69-5.47-1.85,5.42c-.95,2.78-3.55,4.63-6.48,4.63-.04,0-.07,0-.11,0l-5.73-.09,4.58,3.44c2.38,1.79,3.33,4.88,2.37,7.69l-1.85,5.42,4.69-3.3c1.19-.83,2.56-1.25,3.94-1.25Z"/>
      <path d="M262.8,222.91c-1.4,0-2.79-.44-3.97-1.33l-9.19-6.89-9.39,6.61c-2.35,1.66-5.48,1.61-7.78-.12-2.3-1.73-3.22-4.72-2.29-7.44l3.72-10.87-9.19-6.89c-2.3-1.73-3.22-4.72-2.29-7.44.92-2.69,3.43-4.48,6.26-4.48.04,0,.07,0,.11,0l11.48.18,3.72-10.87c.92-2.69,3.43-4.48,6.26-4.48h.1c2.88.04,5.38,1.92,6.23,4.67l3.38,10.98,11.48.18c2.88.04,5.38,1.92,6.23,4.67.85,2.75-.17,5.71-2.52,7.37l-9.4,6.61,3.38,10.97c.85,2.75-.17,5.71-2.52,7.37-1.15.81-2.48,1.21-3.81,1.21ZM249.68,205.18c1.45,0,2.89.46,4.11,1.38l4.58,3.44-1.69-5.47c-.88-2.84.17-5.9,2.6-7.62l4.69-3.3-5.73-.09c-2.97-.04-5.56-1.99-6.44-4.83l-1.69-5.48-1.85,5.42c-.95,2.78-3.55,4.63-6.48,4.63-.04,0-.07,0-.11,0l-5.73-.09,4.58,3.44c2.38,1.79,3.33,4.88,2.37,7.69l-1.85,5.42,4.69-3.3c1.19-.83,2.56-1.25,3.94-1.25Z"/>
      <path d="M189.35,222.91c-1.4,0-2.79-.44-3.97-1.33l-9.19-6.89-9.39,6.61c-2.35,1.66-5.48,1.61-7.78-.12-2.3-1.73-3.22-4.72-2.29-7.44l3.72-10.87-9.19-6.89c-2.3-1.73-3.22-4.72-2.29-7.44.92-2.69,3.43-4.48,6.26-4.48.04,0,.07,0,.11,0l11.48.18,3.72-10.87c.92-2.69,3.43-4.48,6.26-4.48h.1c2.88.04,5.38,1.92,6.23,4.67l3.38,10.98,11.48.18c2.88.04,5.38,1.92,6.23,4.67.85,2.75-.17,5.71-2.52,7.37l-9.4,6.61,3.38,10.97c.85,2.75-.17,5.71-2.52,7.37-1.15.81-2.48,1.21-3.81,1.21ZM176.23,205.18c1.45,0,2.89.46,4.11,1.38l4.58,3.44-1.69-5.47c-.88-2.84.17-5.9,2.6-7.62l4.69-3.3-5.73-.09c-2.97-.04-5.56-1.99-6.44-4.83l-1.69-5.48-1.85,5.42c-.95,2.78-3.55,4.63-6.48,4.63-.04,0-.07,0-.11,0l-5.73-.09,4.58,3.44c2.38,1.79,3.33,4.88,2.37,7.69l-1.85,5.42,4.69-3.3c1.19-.83,2.56-1.25,3.94-1.25Z"/>
      <path d="M336.24,222.91c-1.4,0-2.79-.44-3.97-1.33l-9.19-6.89-9.39,6.61c-2.35,1.66-5.48,1.61-7.78-.12-2.3-1.73-3.22-4.72-2.29-7.44l3.72-10.87-9.19-6.89c-2.3-1.73-3.22-4.72-2.29-7.44.92-2.69,3.43-4.48,6.26-4.48.04,0,.07,0,.11,0l11.48.18,3.72-10.87c.92-2.69,3.43-4.48,6.26-4.48h.1c2.88.04,5.38,1.92,6.23,4.67l3.38,10.98,11.48.18c2.88.04,5.38,1.92,6.23,4.67.85,2.75-.17,5.71-2.52,7.36l-9.39,6.61,3.38,10.97c.85,2.75-.17,5.71-2.52,7.37-1.15.81-2.48,1.21-3.81,1.21ZM323.12,205.18c1.45,0,2.89.46,4.11,1.38l4.58,3.44-1.69-5.47c-.88-2.84.17-5.9,2.6-7.62l4.69-3.3-5.73-.09c-2.97-.04-5.56-1.99-6.44-4.83l-1.69-5.48-1.85,5.42c-.95,2.78-3.55,4.63-6.48,4.63-.04,0-.07,0-.11,0l-5.73-.09,4.58,3.44c2.38,1.79,3.33,4.88,2.37,7.69l-1.85,5.42,4.69-3.3c1.19-.83,2.56-1.25,3.94-1.25Z"/>
    </g>
    <path d="M427.83,243.99H73.5c-9.1,0-16.5-7.4-16.5-16.5v-63.17c0-9.1,7.4-16.5,16.5-16.5h232.72v9H73.5c-4.14,0-7.5,3.36-7.5,7.5v63.17c0,4.14,3.36,7.5,7.5,7.5h354.33c4.14,0,7.5-3.36,7.5-7.5v-63.17c0-4.14-3.36-7.5-7.5-7.5h-45.75v-9h45.75c9.1,0,16.5,7.4,16.5,16.5v63.17c0,9.1-7.4,16.5-16.5,16.5Z"/>
    <rect x="335.64" y="147.84" width="29.15" height="9"/>
    <g>
      <path d="M274.35,376.78h-35.45v-9h35.45c10.37,0,19.69-6.88,22.76-16.77l4.58-27.2c.14-1.53-.25-2.89-1.1-3.84-.76-.85-1.82-1.3-3.06-1.3h-37.51l-1.16-2.74c-3.39-7.98-2.5-14.07-1.72-19.44.54-3.71,1.01-6.91.19-10.73-.91-4.22-3.89-6.93-5.51-6.93-.02,0-.04,0-.06,0-.8.03-2.31,1.85-2.94,6.58l-.1.51c-3.67,14.41-11.5,24.04-26.2,32.18l-4.36-7.87c12.4-6.87,18.72-14.5,21.78-26.29,1.75-12.38,8.59-13.99,11.47-14.11,6.49-.22,12.97,5.9,14.72,14.03,1.17,5.41.5,9.93-.08,13.92-.58,4-1.1,7.54.12,11.88h31.36c3.81,0,7.28,1.52,9.76,4.29,2.6,2.9,3.79,6.78,3.35,10.93l-.04.27-4.78,28.17c-4.12,13.81-17.06,23.45-31.46,23.45Z"/>
      <path d="M224.83,386.18h-33.49v-84.84h33.49v84.84ZM200.33,377.18h15.49v-66.84h-15.49v66.84Z"/>
    </g>
  </g>
</svg>