<?xml version="1.0" encoding="UTF-8"?>
<svg id="b" data-name="Finished icons" xmlns="http://www.w3.org/2000/svg" xmlns:xlink="http://www.w3.org/1999/xlink" viewBox="0 0 500 500">
  <defs>
    <style>
      .h {
        clip-path: url(#f);
      }

      .i {
        fill: #fff;
      }

      .j {
        fill: #1e2751;
      }

      .k {
        fill: #0c1121;
      }

      .l {
        fill: #f2f2f2;
      }

      .m {
        fill: #6490ff;
      }

      .n {
        fill: #d89f00;
      }

      .o {
        clip-path: url(#g);
      }

      .p {
        clip-path: url(#d);
      }

      .q {
        clip-path: url(#e);
      }

      .r {
        fill: #e00000;
      }

      .s {
        fill: #ffc200;
      }

      .t {
        clip-path: url(#c);
      }
    </style>
    <clipPath id="c">
      <path class="i" d="M337.78,121.9h-41.07l-4.15,28.86h-84.52l-4.15-28.86h-41.07c-8.11,0-14.68,6.57-14.68,14.68v135.51c0,8.11,6.57,14.68,14.68,14.68h174.96c8.11,0,14.68-6.57,14.68-14.68v-135.51c0-8.11-6.57-14.68-14.68-14.68Z"/>
    </clipPath>
    <clipPath id="d">
      <polygon class="j" points="292.56 150.5 208.04 150.5 205.04 126.83 295.56 126.83 292.56 150.5"/>
    </clipPath>
    <clipPath id="e">
      <rect class="j" x="206.28" y="286.5" width="88.05" height="35.38"/>
    </clipPath>
    <clipPath id="f">
      <path class="i" d="M347.63,437.55v-107.9c0-4.29-3.48-7.76-7.76-7.76h-179.12c-4.29,0-7.76,3.48-7.76,7.76v107.9"/>
    </clipPath>
    <clipPath id="g">
      <polyline class="s" points="198.62 437.55 198.62 361.34 301.98 361.34 301.98 437.55"/>
    </clipPath>
  </defs>
  <g>
    <g>
      <path class="i" d="M337.78,121.9h-41.07l-4.15,28.86h-84.52l-4.15-28.86h-41.07c-8.11,0-14.68,6.57-14.68,14.68v135.51c0,8.11,6.57,14.68,14.68,14.68h174.96c8.11,0,14.68-6.57,14.68-14.68v-135.51c0-8.11-6.57-14.68-14.68-14.68Z"/>
      <g class="t">
        <rect class="l" x="250.3" y="59.13" width="189.17" height="378.42"/>
      </g>
    </g>
    <g>
      <polygon class="j" points="292.56 150.5 208.04 150.5 205.04 126.83 295.56 126.83 292.56 150.5"/>
      <g class="p">
        <rect class="k" x="250.3" y="59.13" width="189.17" height="378.42"/>
      </g>
    </g>
    <rect class="m" x="168.88" y="179.64" width="162.85" height="66.26" rx="33.13" ry="33.13"/>
    <g>
      <rect class="j" x="206.28" y="286.5" width="88.05" height="35.38"/>
      <g class="q">
        <rect class="k" x="250.3" y="59.13" width="189.17" height="378.42"/>
      </g>
    </g>
    <g>
      <path class="i" d="M347.63,437.55v-107.9c0-4.29-3.48-7.76-7.76-7.76h-179.12c-4.29,0-7.76,3.48-7.76,7.76v107.9"/>
      <g class="h">
        <rect class="l" x="250.3" y="59.13" width="189.17" height="378.42"/>
      </g>
    </g>
    <circle class="r" cx="276.4" cy="72.39" r="9.94"/>
    <g>
      <g>
        <path class="n" d="M371.25,387.26h-23.48v14.01h23.48c9.42,0,9.42-14.01,0-14.01Z"/>
        <path class="n" d="M371.25,401.27h-23.48v14.01h23.48c9.42,0,9.42-14.01,0-14.01Z"/>
        <path class="n" d="M347.77,429.29h23.48c9.42,0,9.42-14.01,0-14.01h-23.48v14.01Z"/>
        <path class="n" d="M378.32,437.46c0-3.5-2.36-8.17-7.07-8.17h-23.48v8.17"/>
      </g>
      <g>
        <path class="s" d="M129.36,387.26h23.48v14.01h-23.48c-9.42,0-9.42-14.01,0-14.01Z"/>
        <path class="s" d="M129.36,401.27h23.48v14.01h-23.48c-9.42,0-9.42-14.01,0-14.01Z"/>
        <path class="s" d="M152.84,429.29h-23.48c-9.42,0-9.42-14.01,0-14.01h23.48v14.01Z"/>
        <path class="s" d="M122.29,437.46c0-3.5,2.36-8.17,7.07-8.17h23.48v8.17"/>
      </g>
    </g>
    <g>
      <polyline class="s" points="198.62 437.55 198.62 361.34 301.98 361.34 301.98 437.55"/>
      <g class="o">
        <rect class="n" x="250.3" y="59.13" width="189.17" height="378.42"/>
      </g>
    </g>
    <g>
      <path class="k" d="M352.46,168.4v71.85c14.36,0,26-16.08,26-35.93s-11.64-35.93-26-35.93Z"/>
      <path class="j" d="M148.14,168.4v71.85c-14.36,0-26-16.08-26-35.93,0-19.84,11.64-35.93,26-35.93Z"/>
      <path class="k" d="M347.63,331.72v68.91c19.03,0,34.45-15.43,34.45-34.45s-15.43-34.45-34.45-34.45Z"/>
      <path class="j" d="M152.37,331.72v68.91c-19.03,0-34.45-15.43-34.45-34.45,0-19.03,15.43-34.45,34.45-34.45Z"/>
    </g>
  </g>
  <g>
    <path d="M296.53,155h-92.45l-4.14-32.67h100.73l-4.14,32.67ZM212.01,146h76.58l1.86-14.67h-80.3l1.86,14.67Z"/>
    <path d="M337.78,291.26h-174.96c-10.57,0-19.18-8.6-19.18-19.18v-135.51c0-10.57,8.6-19.18,19.18-19.18h44.97l4.15,28.86h76.72l4.15-28.86h44.97c10.57,0,19.18,8.6,19.18,19.18v135.51c0,10.57-8.6,19.18-19.18,19.18ZM162.82,126.4c-5.61,0-10.18,4.57-10.18,10.18v135.51c0,5.61,4.57,10.18,10.18,10.18h174.96c5.61,0,10.18-4.57,10.18-10.18v-135.51c0-5.61-4.57-10.18-10.18-10.18h-37.17l-4.15,28.86h-92.31l-4.15-28.86h-37.17Z"/>
    <path d="M298.6,250.4h-96.59c-20.75,0-37.63-16.88-37.63-37.63s16.88-37.63,37.63-37.63h96.59c20.75,0,37.63,16.88,37.63,37.63s-16.88,37.63-37.63,37.63ZM202.01,184.14c-15.79,0-28.63,12.84-28.63,28.63s12.84,28.63,28.63,28.63h96.59c15.79,0,28.63-12.84,28.63-28.63s-12.84-28.63-28.63-28.63h-96.59Z"/>
    <path d="M352.13,437.55h-9v-107.91c0-1.8-1.46-3.26-3.26-3.26h-179.12c-1.8,0-3.26,1.46-3.26,3.26v107.91h-9v-107.91c0-6.76,5.5-12.26,12.26-12.26h179.12c6.76,0,12.26,5.5,12.26,12.26v107.91Z"/>
    <path d="M298.83,326.38h-97.05v-44.38h97.05v44.38ZM210.78,317.38h79.05v-26.38h-79.05v26.38Z"/>
    <path d="M254.8,122.69l-8.99-.33c.63-17.17,12.48-39.25,25.34-47.25l4.75,7.64c-10.51,6.54-20.57,25.57-21.1,39.94Z"/>
    <path d="M276.4,86.82c-7.96,0-14.44-6.48-14.44-14.44s6.48-14.44,14.44-14.44,14.44,6.48,14.44,14.44-6.48,14.44-14.44,14.44ZM276.4,66.95c-3,0-5.44,2.44-5.44,5.44s2.44,5.44,5.44,5.44,5.44-2.44,5.44-5.44-2.44-5.44-5.44-5.44Z"/>
    <g>
      <g>
        <path d="M371.25,405.77h-27.98v-23.01h27.98c7.51,0,11.57,5.93,11.57,11.51,0,2.95-1.04,5.72-2.92,7.82-2.13,2.38-5.2,3.68-8.65,3.68ZM352.27,396.77h18.98c2.23,0,2.57-1.57,2.57-2.51s-.33-2.51-2.57-2.51h-18.98v5.01Z"/>
        <path d="M371.25,419.78h-27.98v-23.01h27.98c7.51,0,11.57,5.93,11.57,11.51,0,2.95-1.04,5.72-2.92,7.82-2.13,2.38-5.2,3.69-8.65,3.69ZM352.27,410.78h18.98c2.23,0,2.57-1.57,2.57-2.51s-.33-2.51-2.57-2.51h-18.98v5.01Z"/>
        <path d="M371.25,433.79h-27.98v-23.01h27.98c7.51,0,11.57,5.93,11.57,11.51,0,2.95-1.04,5.72-2.92,7.82-2.13,2.38-5.2,3.68-8.65,3.68ZM352.27,424.79h18.98c2.23,0,2.57-1.57,2.57-2.51s-.33-2.51-2.57-2.51h-18.98v5.01Z"/>
        <path d="M382.81,437.46h-9c0-.94-.63-3.67-2.57-3.67h-18.98v3.67h-9v-12.67h27.98c7.14,0,11.57,6.57,11.57,12.67Z"/>
      </g>
      <g>
        <path d="M157.34,405.77h-27.98c-7.51,0-11.57-5.93-11.57-11.51,0-2.95,1.04-5.72,2.92-7.82,2.13-2.38,5.2-3.68,8.65-3.68h27.98v23.01ZM129.36,391.76c-2.23,0-2.57,1.57-2.57,2.51s.33,2.51,2.57,2.51h18.98v-5.01h-18.98Z"/>
        <path d="M157.34,419.78h-27.98c-7.51,0-11.57-5.93-11.57-11.51,0-2.95,1.04-5.72,2.92-7.82,2.13-2.38,5.2-3.69,8.65-3.69h27.98v23.01ZM129.36,405.77c-2.23,0-2.57,1.57-2.57,2.51s.33,2.51,2.57,2.51h18.98v-5.01h-18.98Z"/>
        <path d="M157.34,433.79h-27.98c-7.51,0-11.57-5.93-11.57-11.51,0-2.95,1.04-5.72,2.92-7.82,2.13-2.38,5.2-3.68,8.65-3.68h27.98v23.01ZM129.36,419.78c-2.23,0-2.57,1.57-2.57,2.51s.33,2.51,2.57,2.51h18.98v-5.01h-18.98Z"/>
        <path d="M157.34,437.46h-9v-3.67h-18.98c-1.94,0-2.57,2.73-2.57,3.67h-9c0-6.09,4.42-12.67,11.57-12.67h27.98v12.67Z"/>
      </g>
    </g>
    <g>
      <rect x="198.62" y="384.7" width="103.36" height="9"/>
      <rect x="198.62" y="411.2" width="103.36" height="9"/>
    </g>
    <polygon points="306.48 437.55 297.48 437.55 297.48 365.84 203.12 365.84 203.12 437.55 194.12 437.55 194.12 356.84 306.48 356.84 306.48 437.55"/>
    <g>
      <rect x="214.74" y="201.44" width="8.62" height="23.27" rx="3.14" ry="3.14"/>
      <rect x="277.25" y="201.44" width="8.62" height="23.27" rx="3.14" ry="3.14"/>
    </g>
    <g>
      <path d="M352.46,244.75h-4.5v-80.85h4.5c16.82,0,30.5,18.14,30.5,40.43s-13.68,40.43-30.5,40.43ZM356.96,173.59v61.47c9.7-3.03,17-15.66,17-30.73s-7.3-27.7-17-30.73Z"/>
      <path d="M152.64,244.75h-4.5c-16.82,0-30.5-18.13-30.5-40.43s13.68-40.43,30.5-40.43h4.5v80.85ZM143.64,173.59c-9.7,3.03-17,15.66-17,30.73s7.3,27.7,17,30.73v-61.47Z"/>
      <path d="M347.63,405.13h-4.5v-77.91h4.5c21.48,0,38.95,17.47,38.95,38.95s-17.47,38.95-38.95,38.95ZM352.13,336.55v59.23c14.39-2.18,25.45-14.63,25.45-29.62s-11.06-27.44-25.45-29.62Z"/>
      <path d="M156.87,405.13h-4.5c-21.48,0-38.95-17.47-38.95-38.95s17.47-38.95,38.95-38.95h4.5v77.91ZM147.87,336.55c-14.39,2.18-25.45,14.63-25.45,29.62s11.06,27.44,25.45,29.62v-59.23Z"/>
    </g>
  </g>
</svg>