<?xml version="1.0" encoding="UTF-8"?>
<svg id="b" data-name="Finished icons" xmlns="http://www.w3.org/2000/svg" xmlns:xlink="http://www.w3.org/1999/xlink" viewBox="0 0 500 500">
  <defs>
    <style>
      .e {
        fill: #848484;
      }

      .f {
        fill: #fff;
      }

      .g {
        fill: #a0a0a0;
      }

      .h {
        clip-path: url(#d);
      }

      .i {
        fill: #bcbcbc;
      }

      .j {
        clip-path: url(#c);
      }
    </style>
    <clipPath id="c">
      <path class="i" d="M406.06,215.06c-4.31-19.34-12.12-37.35-22.74-53.35l14.57-14.57c4.42-4.42,4.42-11.59,0-16.01l-30.84-30.84c-4.42-4.42-11.59-4.42-16.01,0l-14.95,14.95c-15.95-10.21-33.83-17.66-52.97-21.69v-21.39c0-6.25-5.07-11.32-11.32-11.32h-43.62c-6.25,0-11.32,5.07-11.32,11.32v21.39c-19.14,4.03-37.02,11.48-52.97,21.69l-14.95-14.95c-4.42-4.42-11.59-4.42-16.01,0l-30.84,30.84c-4.42,4.42-4.42,11.59,0,16.01l14.57,14.57c-10.61,16-18.42,34.01-22.74,53.35h-19.97c-6.25,0-11.32,5.07-11.32,11.32v43.62c0,6.25,5.07,11.32,11.32,11.32h19.21c3.94,19.83,11.53,38.33,22.06,54.78l-13.14,13.14c-4.42,4.42-4.42,11.59,0,16.01l30.84,30.84c4.42,4.42,11.59,4.42,16.01,0l12.76-12.76c16.5,10.94,35.14,18.91,55.16,23.13v17.76c0,6.25,5.07,11.32,11.32,11.32h43.62c6.25,0,11.32-5.07,11.32-11.32v-17.76c20.02-4.22,38.66-12.19,55.16-23.13l12.76,12.76c4.42,4.42,11.59,4.42,16.01,0l30.84-30.84c4.42-4.42,4.42-11.59,0-16.01l-13.14-13.14c10.53-16.45,18.13-34.96,22.06-54.78h19.21c6.25,0,11.32-5.07,11.32-11.32v-43.62c0-6.25-5.07-11.32-11.32-11.32h-19.97ZM249.43,328.64c-43.42,0-78.63-35.2-78.63-78.63s35.2-78.63,78.63-78.63,78.63,35.2,78.63,78.63-35.2,78.63-78.63,78.63Z"/>
    </clipPath>
    <clipPath id="d">
      <circle class="g" cx="249.43" cy="250.02" r="136.05"/>
    </clipPath>
  </defs>
  <g>
    <path class="i" d="M406.06,215.06c-4.31-19.34-12.12-37.35-22.74-53.35l14.57-14.57c4.42-4.42,4.42-11.59,0-16.01l-30.84-30.84c-4.42-4.42-11.59-4.42-16.01,0l-14.95,14.95c-15.95-10.21-33.83-17.66-52.97-21.69v-21.39c0-6.25-5.07-11.32-11.32-11.32h-43.62c-6.25,0-11.32,5.07-11.32,11.32v21.39c-19.14,4.03-37.02,11.48-52.97,21.69l-14.95-14.95c-4.42-4.42-11.59-4.42-16.01,0l-30.84,30.84c-4.42,4.42-4.42,11.59,0,16.01l14.57,14.57c-10.61,16-18.42,34.01-22.74,53.35h-19.97c-6.25,0-11.32,5.07-11.32,11.32v43.62c0,6.25,5.07,11.32,11.32,11.32h19.21c3.94,19.83,11.53,38.33,22.06,54.78l-13.14,13.14c-4.42,4.42-4.42,11.59,0,16.01l30.84,30.84c4.42,4.42,11.59,4.42,16.01,0l12.76-12.76c16.5,10.94,35.14,18.91,55.16,23.13v17.76c0,6.25,5.07,11.32,11.32,11.32h43.62c6.25,0,11.32-5.07,11.32-11.32v-17.76c20.02-4.22,38.66-12.19,55.16-23.13l12.76,12.76c4.42,4.42,11.59,4.42,16.01,0l30.84-30.84c4.42-4.42,4.42-11.59,0-16.01l-13.14-13.14c10.53-16.45,18.13-34.96,22.06-54.78h19.21c6.25,0,11.32-5.07,11.32-11.32v-43.62c0-6.25-5.07-11.32-11.32-11.32h-19.97ZM249.43,328.64c-43.42,0-78.63-35.2-78.63-78.63s35.2-78.63,78.63-78.63,78.63,35.2,78.63,78.63-35.2,78.63-78.63,78.63Z"/>
    <g class="j">
      <rect class="g" x="249.43" y="60.83" width="189.74" height="378.33"/>
      <g>
        <circle class="g" cx="249.43" cy="250.02" r="136.05"/>
        <g class="h">
          <rect class="e" x="249.43" y="60.83" width="189.74" height="378.33"/>
        </g>
      </g>
    </g>
  </g>
  <g>
    <path class="f" d="M324.43,273.69c-1.83,5.81-4.32,11.32-7.37,16.46"/>
    <path d="M320.92,292.45l-7.73-4.6c2.91-4.89,5.24-10.11,6.95-15.51l8.58,2.71c-1.91,6.07-4.54,11.92-7.8,17.41Z"/>
  </g>
  <path d="M249.43,333.14c-45.84,0-83.13-37.29-83.13-83.13s37.29-83.12,83.13-83.12,83.13,37.29,83.13,83.12h-9c0-40.87-33.25-74.12-74.13-74.12s-74.13,33.25-74.13,74.12,33.25,74.13,74.13,74.13c20.84,0,40.83-8.85,54.86-24.27l6.66,6.05c-15.73,17.3-38.15,27.22-61.52,27.22Z"/>
  <path d="M271.81,440.04h-43.62c-8.72,0-15.82-7.1-15.82-15.82v-14.15c-17.77-4.16-34.58-11.2-50.05-20.98l-10.19,10.19c-6.17,6.17-16.2,6.17-22.37,0l-30.84-30.84c-6.17-6.17-6.17-16.2,0-22.37l10.6-10.61c-9.39-15.39-16.1-32.05-20-49.63h-15.55c-8.72,0-15.82-7.1-15.82-15.82v-43.62c0-8.72,7.1-15.82,15.82-15.82h16.4c2.62-10.64,6.32-21.03,11.02-30.93l8.13,3.86c-4.93,10.39-8.69,21.34-11.19,32.55l-.79,3.52h-23.58c-3.76,0-6.82,3.06-6.82,6.82v43.62c0,3.76,3.06,6.82,6.82,6.82h22.9l.72,3.62c3.77,18.99,10.98,36.9,21.44,53.23l1.95,3.05-15.7,15.7c-2.66,2.66-2.66,6.99,0,9.65l30.84,30.84c2.66,2.66,6.99,2.66,9.65,0l15.36-15.36,3.07,2.04c16.39,10.87,34.42,18.44,53.6,22.48l3.57.75v21.41c0,3.76,3.06,6.82,6.82,6.82h43.62c3.76,0,6.82-3.06,6.82-6.82v-21.41l3.57-.75c19.18-4.04,37.21-11.6,53.6-22.48l3.07-2.04,15.36,15.36c2.66,2.66,6.99,2.66,9.65,0l30.84-30.84c2.66-2.66,2.66-6.99,0-9.65l-15.7-15.7,1.95-3.05c10.45-16.33,17.67-34.24,21.44-53.24l.72-3.62h22.9c3.76,0,6.82-3.06,6.82-6.82v-43.62c0-3.76-3.06-6.82-6.82-6.82h-23.58l-.79-3.52c-4.13-18.53-11.56-35.97-22.09-51.84l-2.04-3.07,17.18-17.17c1.29-1.29,2-3,2-4.82s-.71-3.53-2-4.82l-30.84-30.84c-2.66-2.66-6.98-2.66-9.65,0l-17.51,17.51-3.05-1.95c-15.81-10.12-33.13-17.21-51.47-21.08l-3.57-.75v-25.04c0-3.76-3.06-6.82-6.82-6.82h-43.62c-3.76,0-6.82,3.06-6.82,6.82v25.04l-3.57.75c-18.35,3.87-35.66,10.96-51.47,21.08l-3.05,1.95-17.51-17.51c-2.66-2.66-6.98-2.66-9.65,0l-30.84,30.84c-1.29,1.29-2,3-2,4.82s.71,3.54,2,4.82l15.57,15.57-6.36,6.36-15.57-15.57c-2.99-2.99-4.63-6.96-4.63-11.19s1.65-8.2,4.63-11.19l30.84-30.84c6.17-6.17,16.2-6.17,22.37,0l12.42,12.42c14.85-9.05,30.9-15.63,47.82-19.59v-17.78c0-8.72,7.1-15.82,15.82-15.82h43.62c8.72,0,15.82,7.1,15.82,15.82v17.78c16.92,3.96,32.97,10.53,47.82,19.59l12.42-12.42c6.17-6.17,16.2-6.17,22.37,0l30.84,30.84c2.99,2.99,4.63,6.96,4.63,11.19s-1.65,8.2-4.63,11.19l-12,12c9.44,14.93,16.34,31.13,20.55,48.24h16.4c8.72,0,15.82,7.1,15.82,15.82v43.62c0,8.72-7.1,15.82-15.82,15.82h-15.55c-3.9,17.58-10.62,34.24-20,49.63l10.6,10.61c6.17,6.17,6.17,16.2,0,22.37l-30.84,30.84c-6.17,6.17-16.2,6.17-22.37,0l-10.19-10.19c-15.47,9.78-32.28,16.83-50.05,20.98v14.15c0,8.72-7.1,15.82-15.82,15.82Z"/>
</svg>