<?xml version="1.0" encoding="UTF-8"?>
<svg id="b" data-name="Finished icons" xmlns="http://www.w3.org/2000/svg" xmlns:xlink="http://www.w3.org/1999/xlink" viewBox="0 0 500 500">
  <defs>
    <style>
      .f {
        fill: #baa899;
      }

      .g {
        fill: #e0d7cd;
      }

      .h {
        fill: #fff;
      }

      .i {
        clip-path: url(#d);
      }

      .j {
        clip-path: url(#e);
      }

      .k {
        fill: #f2ece4;
      }

      .l {
        clip-path: url(#c);
      }
    </style>
    <clipPath id="c">
      <path class="h" d="M171.51,306l171.96-171.96c-8.02-8.02-8.03-21.02,0-29.05s21.03-8.02,29.05,0c4.54,4.54,6.51,10.66,5.91,16.59,5.92-.6,12.04,1.36,16.58,5.9,8.02,8.02,8.02,21.03,0,29.05-8.03,8.03-21.03,8.02-29.05,0l-16.39,16.39"/>
    </clipPath>
    <clipPath id="d">
      <path class="h" d="M372.51,395.01c-8.02,8.02-21.03,8.02-29.05,0-8.03-8.03-8.02-21.03,0-29.05l-209.42-209.42c-8.02,8.02-21.02,8.03-29.05,0-8.02-8.02-8.02-21.03,0-29.05,4.54-4.54,10.66-6.51,16.58-5.9-.59-5.93,1.37-12.05,5.91-16.59,8.02-8.02,21.03-8.02,29.05,0,8.03,8.03,8.02,21.03,0,29.05l209.42,209.42c8.02-8.02,21.02-8.03,29.05,0,8.02,8.02,8.02,21.03,0,29.05-4.54,4.54-10.66,6.51-16.59,5.91.6,5.92-1.36,12.04-5.9,16.58Z"/>
    </clipPath>
    <clipPath id="e">
      <path class="k" d="M351.76,241.25c0,29.73-12.75,56.48-33.07,75.08v32.18c0,6.6-5.4,12-12,12h-113.38c-6.6,0-12-5.4-12-12v-32.18c-20.32-18.6-33.07-45.35-33.07-75.08,0-56.2,45.56-101.76,101.76-101.76s101.76,45.56,101.76,101.76Z"/>
    </clipPath>
  </defs>
  <g>
    <g>
      <path class="h" d="M171.51,306l171.96-171.96c-8.02-8.02-8.03-21.02,0-29.05s21.03-8.02,29.05,0c4.54,4.54,6.51,10.66,5.91,16.59,5.92-.6,12.04,1.36,16.58,5.9,8.02,8.02,8.02,21.03,0,29.05-8.03,8.03-21.03,8.02-29.05,0l-16.39,16.39"/>
      <g class="l">
        <rect class="f" x="250" y="60.83" width="189.17" height="378.33"/>
      </g>
    </g>
    <path class="h" d="M335.87,186.62l-179.33,179.33c8.02,8.02,8.03,21.02,0,29.05-8.02,8.02-21.03,8.02-29.05,0-4.54-4.54-6.51-10.66-5.9-16.58-5.93.59-12.05-1.37-16.59-5.91-8.02-8.02-8.02-21.03,0-29.05,8.03-8.03,21.03-8.02,29.05,0l24.3-24.3"/>
    <g>
      <path class="h" d="M372.51,395.01c-8.02,8.02-21.03,8.02-29.05,0-8.03-8.03-8.02-21.03,0-29.05l-209.42-209.42c-8.02,8.02-21.02,8.03-29.05,0-8.02-8.02-8.02-21.03,0-29.05,4.54-4.54,10.66-6.51,16.58-5.9-.59-5.93,1.37-12.05,5.91-16.59,8.02-8.02,21.03-8.02,29.05,0,8.03,8.03,8.02,21.03,0,29.05l209.42,209.42c8.02-8.02,21.02-8.03,29.05,0,8.02,8.02,8.02,21.03,0,29.05-4.54,4.54-10.66,6.51-16.59,5.91.6,5.92-1.36,12.04-5.9,16.58Z"/>
      <g class="i">
        <rect class="f" x="250" y="60.83" width="189.17" height="378.33"/>
      </g>
    </g>
  </g>
  <g>
    <path d="M174.69,309.18l-6.36-6.36,169.06-169.06c-6.75-9.75-5.78-23.27,2.9-31.94,9.76-9.76,25.65-9.76,35.41,0,4.16,4.15,6.67,9.54,7.22,15.28,5.73.55,11.12,3.06,15.27,7.22,9.76,9.76,9.76,25.65,0,35.41-4.73,4.73-11.02,7.33-17.71,7.33h0c-5.16,0-10.08-1.55-14.24-4.44l-13.49,13.49-6.36-6.36,19.57-19.57,3.18,3.18c6.25,6.25,16.43,6.25,22.68,0s6.25-16.43,0-22.68c-3.42-3.42-8.13-5.1-12.95-4.61l-5.48.56.55-5.48c.48-4.82-1.2-9.54-4.62-12.96-6.25-6.25-16.43-6.25-22.68,0-3.03,3.03-4.7,7.06-4.7,11.34,0,4.28,1.67,8.31,4.7,11.34l3.18,3.18-175.14,175.14Z"/>
    <path d="M142.01,405.51c-6.41,0-12.82-2.44-17.71-7.32-4.16-4.16-6.67-9.55-7.22-15.27-5.73-.55-11.12-3.06-15.28-7.22-9.76-9.76-9.76-25.65,0-35.41,8.68-8.68,22.19-9.64,31.94-2.9l21.4-21.4,6.36,6.36-27.48,27.48-3.18-3.18c-6.25-6.25-16.43-6.25-22.68,0s-6.25,16.43,0,22.68c3.42,3.42,8.14,5.1,12.96,4.62l5.48-.55-.56,5.48c-.49,4.81,1.19,9.53,4.61,12.95,6.25,6.25,16.43,6.25,22.68,0s6.25-16.43,0-22.68l-3.18-3.18,182.52-182.52,6.36,6.36-176.44,176.44c6.75,9.75,5.78,23.27-2.9,31.94-4.88,4.88-11.29,7.32-17.71,7.32Z"/>
    <path d="M357.99,405.51c-6.41,0-12.83-2.44-17.71-7.32-8.68-8.68-9.64-22.19-2.9-31.94l-203.63-203.63c-4.15,2.88-9.08,4.44-14.24,4.44h0c-6.69,0-12.97-2.6-17.7-7.33-9.76-9.76-9.76-25.65,0-35.41,4.16-4.16,9.55-6.67,15.27-7.22.55-5.73,3.06-11.12,7.22-15.28,9.76-9.76,25.65-9.76,35.41,0,8.68,8.68,9.64,22.19,2.9,31.94l203.63,203.63c9.76-6.75,23.27-5.78,31.94,2.9,9.76,9.76,9.76,25.65,0,35.41-4.15,4.16-9.54,6.67-15.28,7.22-.55,5.73-3.06,11.12-7.22,15.27-4.88,4.88-11.29,7.32-17.71,7.32ZM134.04,150.17l215.79,215.79-3.18,3.18c-3.03,3.03-4.7,7.06-4.7,11.34s1.67,8.31,4.7,11.34c6.25,6.25,16.43,6.25,22.68,0,3.42-3.42,5.1-8.14,4.61-12.94l-.56-5.48,5.48.55c4.82.49,9.54-1.2,12.96-4.62,6.25-6.25,6.25-16.43,0-22.68-3.03-3.03-7.06-4.7-11.34-4.7h0c-4.28,0-8.31,1.67-11.34,4.7l-3.18,3.18-215.79-215.79,3.18-3.18c6.25-6.25,6.25-16.43,0-22.68-6.26-6.26-16.43-6.25-22.68,0-3.42,3.42-5.1,8.14-4.62,12.96l.55,5.48-5.48-.56c-4.8-.49-9.53,1.19-12.95,4.61-6.25,6.25-6.25,16.43,0,22.68,3.03,3.03,7.06,4.7,11.34,4.7h0c4.28,0,8.31-1.67,11.34-4.7l3.18-3.18Z"/>
  </g>
  <g>
    <g>
      <path class="k" d="M351.76,241.25c0,29.73-12.75,56.48-33.07,75.08v32.18c0,6.6-5.4,12-12,12h-113.38c-6.6,0-12-5.4-12-12v-32.18c-20.32-18.6-33.07-45.35-33.07-75.08,0-56.2,45.56-101.76,101.76-101.76s101.76,45.56,101.76,101.76Z"/>
      <g class="j">
        <rect class="g" x="250" y="60.83" width="189.17" height="378.33"/>
      </g>
    </g>
    <g>
      <path d="M306.69,365.01h-113.38c-9.1,0-16.5-7.4-16.5-16.5v-30.22c-21.04-20.01-33.07-47.97-33.07-77.04,0-58.59,47.67-106.26,106.26-106.26s106.26,47.67,106.26,106.26h-9c0-53.63-43.63-97.26-97.26-97.26s-97.26,43.63-97.26,97.26c0,27.22,11.52,53.37,31.61,71.76l1.46,1.34v34.16c0,4.14,3.36,7.5,7.5,7.5h113.38c4.14,0,7.5-3.36,7.5-7.5v-34.16l1.46-1.34c5.93-5.42,11.17-11.57,15.59-18.27l7.51,4.96c-4.46,6.76-9.69,13.01-15.57,18.59v30.22c0,9.1-7.4,16.5-16.5,16.5Z"/>
      <path d="M350.31,276.38l-8.49-2.97c1.8-5.14,3.17-10.47,4.08-15.85l8.88,1.5c-.99,5.88-2.49,11.71-4.46,17.33Z"/>
      <g>
        <rect x="206.63" y="323.67" width="9" height="36.84"/>
        <rect x="284.37" y="323.67" width="9" height="36.84"/>
        <rect x="245.5" y="327.67" width="9" height="32.84"/>
      </g>
      <g>
        <path d="M318.47,259.98c1.13,16.31-5.19,30.03-21.49,31.15-16.31,1.13-36.43-10.76-37.55-27.07s11.86-20.46,28.17-21.59c16.31-1.13,29.75,1.2,30.88,17.5Z"/>
        <path d="M181.53,259.98c-1.13,16.31,5.19,30.03,21.49,31.15,16.31,1.13,36.43-10.76,37.55-27.07,1.13-16.31-11.86-20.46-28.17-21.59-16.31-1.13-29.75,1.2-30.88,17.5Z"/>
      </g>
    </g>
  </g>
</svg>