<?xml version="1.0" encoding="UTF-8"?>
<svg id="b" data-name="Finished icons" xmlns="http://www.w3.org/2000/svg" xmlns:xlink="http://www.w3.org/1999/xlink" viewBox="0 0 500 500">
  <defs>
    <style>
      .i {
        fill: #910000;
      }

      .j {
        clip-path: url(#f);
      }

      .k {
        fill: #fff;
      }

      .l {
        clip-path: url(#h);
      }

      .m {
        fill: #d89f00;
      }

      .n {
        fill: #ffd150;
      }

      .o {
        fill: #ff009e;
      }

      .p {
        clip-path: url(#g);
      }

      .q {
        fill: #b20000;
      }

      .r {
        clip-path: url(#d);
      }

      .s {
        clip-path: url(#e);
      }

      .t {
        fill: #d80090;
      }

      .u {
        fill: #ffc200;
      }

      .v {
        clip-path: url(#c);
      }
    </style>
    <clipPath id="c">
      <path class="u" d="M-253.65,80.25l32.67,100.55c2.55,7.84,9.86,13.15,18.1,13.15h105.73c16.66,0,23.58,21.32,10.11,31.11l-85.54,62.15c-6.67,4.85-9.46,13.44-6.92,21.28l32.67,100.55c5.15,15.84-12.99,29.02-26.46,19.23l-85.54-62.15c-6.67-4.85-15.71-4.85-22.38,0l-85.54,62.15c-13.48,9.79-31.61-3.38-26.46-19.23l32.67-100.55c2.55-7.84-.24-16.44-6.92-21.28l-85.54-62.15c-13.48-9.79-6.55-31.11,10.11-31.11h105.73c8.25,0,15.56-5.31,18.1-13.15l32.67-100.55c5.15-15.84,27.56-15.84,32.71,0Z"/>
    </clipPath>
    <clipPath id="d">
      <polygon class="u" points="-409.25 456.61 -358.86 295.35 -270 267.32 -270.31 360.5 -409.25 456.61"/>
    </clipPath>
    <clipPath id="e">
      <polygon class="n" points="-46.07 196.06 -214.97 192.12 -270 267.32 -181.63 296.88 -46.07 196.06"/>
    </clipPath>
    <clipPath id="f">
      <circle class="n" cx="250.1" cy="250" r="159.58"/>
    </clipPath>
    <clipPath id="g">
      <path d="M151.63,280.75c0,49.32,44.09,89.31,98.47,89.31,41.98,0,77.82-23.82,91.99-57.37,4.19-9.92,6.48-20.68,6.48-31.93h-196.94Z"/>
    </clipPath>
    <clipPath id="h">
      <ellipse class="q" cx="250.1" cy="364.29" rx="124.46" ry="55.53"/>
    </clipPath>
  </defs>
  <g>
    <path class="u" d="M-253.65,80.25l32.67,100.55c2.55,7.84,9.86,13.15,18.1,13.15h105.73c16.66,0,23.58,21.32,10.11,31.11l-85.54,62.15c-6.67,4.85-9.46,13.44-6.92,21.28l32.67,100.55c5.15,15.84-12.99,29.02-26.46,19.23l-85.54-62.15c-6.67-4.85-15.71-4.85-22.38,0l-85.54,62.15c-13.48,9.79-31.61-3.38-26.46-19.23l32.67-100.55c2.55-7.84-.24-16.44-6.92-21.28l-85.54-62.15c-13.48-9.79-6.55-31.11,10.11-31.11h105.73c8.25,0,15.56-5.31,18.1-13.15l32.67-100.55c5.15-15.84,27.56-15.84,32.71,0Z"/>
    <g class="v">
      <g>
        <polygon class="u" points="-409.25 456.61 -358.86 295.35 -270 267.32 -270.31 360.5 -409.25 456.61"/>
        <g class="r">
          <rect class="m" x="-296.88" y="119.76" width="223.78" height="441.28" transform="translate(165.74 175.83) rotate(36.34)"/>
        </g>
      </g>
      <g>
        <polygon class="n" points="-46.07 196.06 -214.97 192.12 -270 267.32 -181.63 296.88 -46.07 196.06"/>
        <g class="s">
          <rect class="u" x="-339.9" y="150.62" width="223.78" height="441.28" transform="translate(194.91 475.97) rotate(72.35)"/>
        </g>
      </g>
    </g>
  </g>
  <g>
    <g>
      <g>
        <circle class="n" cx="250.1" cy="250" r="159.58"/>
        <g class="j">
          <rect class="u" x="250" y="60.83" width="189.17" height="381.87"/>
        </g>
      </g>
      <g>
        <path d="M151.63,280.75c0,49.32,44.09,89.31,98.47,89.31,41.98,0,77.82-23.82,91.99-57.37,4.19-9.92,6.48-20.68,6.48-31.93h-196.94Z"/>
        <g class="p">
          <g>
            <ellipse class="q" cx="250.1" cy="364.29" rx="124.46" ry="55.53"/>
            <g class="l">
              <rect class="i" x="250" y="60.83" width="189.17" height="381.87"/>
            </g>
          </g>
          <rect class="k" x="168.8" y="264.24" width="162.59" height="37.42" rx="12" ry="12"/>
        </g>
      </g>
    </g>
    <g>
      <path d="M250.1,414.08c-90.47,0-164.08-73.6-164.08-164.08,0-8.23.62-16.5,1.83-24.57l8.9,1.34c-1.15,7.63-1.73,15.45-1.73,23.23,0,85.51,69.57,155.08,155.08,155.08,43.6,0,85.44-18.52,114.79-50.8l6.66,6.05c-31.05,34.16-75.31,53.75-121.45,53.75Z"/>
      <path d="M388.92,337.5l-7.61-4.8c2.43-3.85,4.72-7.85,6.79-11.89l8,4.12c-2.2,4.28-4.62,8.51-7.19,12.58Z"/>
      <path d="M402.41,311.13l-8.35-3.35c7.38-18.37,11.12-37.8,11.12-57.77,0-85.51-69.57-155.08-155.08-155.08-69,0-130.35,46.3-149.19,112.6l-8.66-2.46c9.56-33.65,30.2-63.96,58.11-85.36,28.83-22.1,63.32-33.78,99.74-33.78,90.47,0,164.08,73.6,164.08,164.08,0,21.12-3.96,41.69-11.77,61.13Z"/>
      <path d="M250.1,374.55c-56.78,0-102.97-42.08-102.97-93.81v-4.5h205.94v4.5c0,11.61-2.3,22.94-6.84,33.68-7.41,17.54-20.31,32.52-37.3,43.32-17.31,11-37.66,16.81-58.84,16.81ZM156.26,285.25c2.6,44.68,43.7,80.31,93.84,80.31,38.75,0,74.05-21.95,87.84-54.62,3.48-8.23,5.49-16.85,6-25.68h-187.68Z"/>
    </g>
    <g>
      <path class="t" d="M374.79,111.4l2.14,40.65c.48,9.08,6.75,16.83,15.54,19.18l38.78,10.38c6.68,1.79,7.17,11.07.71,13.55l-37.48,14.4c-8.49,3.26-13.92,11.62-13.44,20.7l2.19,41.51c.34,6.46-7.78,9.58-11.85,4.55l-26.17-32.3c-5.73-7.07-15.35-9.64-23.84-6.38l-39.13,15.04c-5.93,2.28-11.31-4.36-7.85-9.69l22.82-35.17c4.95-7.63,4.43-17.58-1.3-24.65l-25.15-31.04c-4.39-5.42.72-13.29,7.46-11.49l38.59,10.33c8.79,2.35,18.09-1.22,23.04-8.85l22.16-34.14c3.67-5.65,12.43-3.31,12.78,3.42Z"/>
      <path class="o" d="M138.2,108.18l22.56,33.88c5.04,7.57,14.38,11.04,23.14,8.58l38.66-10.83c6.66-1.87,11.81,5.88,7.52,11.3l-24.91,31.49c-5.64,7.13-6.05,17.09-1.01,24.66l23.04,34.6c3.58,5.38-1.81,12.2-7.88,9.96l-38.98-14.45c-8.53-3.16-18.12-.47-23.77,6.66l-26.01,32.88c-3.94,4.98-11.96,2.01-11.7-4.34l1.72-41.89c.37-9.09-5.15-17.38-13.68-20.55l-37.46-13.89c-6.54-2.43-6.16-11.8.56-13.68l38.47-10.78c8.76-2.45,14.94-10.27,15.31-19.36l1.67-40.67c.28-6.73,9.01-9.18,12.74-3.57Z"/>
    </g>
    <g>
      <path d="M375.27,281.23c-3.58,0-7-1.59-9.39-4.55l-29.85-36.84c-1.1-1.36-2.94-1.86-4.59-1.23l-44.27,17.01c-5.03,1.93-10.48.48-13.87-3.71s-3.69-9.82-.76-14.34l25.82-39.78c.96-1.47.85-3.38-.25-4.74l-29.85-36.84c-3.39-4.19-3.69-9.81-.76-14.34,2.93-4.52,8.2-6.55,13.4-5.15l45.81,12.26c1.69.45,3.48-.23,4.43-1.7l25.82-39.78c2.93-4.52,8.19-6.54,13.4-5.15,5.21,1.39,8.75,5.77,9.04,11.16l2.5,47.36c.09,1.75,1.29,3.24,2.99,3.69l45.81,12.26c5.21,1.39,8.75,5.77,9.04,11.15s-2.78,10.11-7.82,12.04l-44.27,17.01c-1.64.63-2.68,2.23-2.58,3.98l2.5,47.36c.28,5.38-2.78,10.11-7.82,12.04-1.48.57-2.99.84-4.48.84ZM332.9,229.33c3.85,0,7.58,1.71,10.12,4.84l29.85,36.84c1.37,1.68,3.14,1.17,3.65.98.51-.2,2.17-1,2.06-3.17l-2.5-47.36c-.3-5.66,3.06-10.83,8.35-12.86l44.27-17.01c2.02-.78,2.08-2.62,2.06-3.17-.03-.55-.29-2.37-2.38-2.93l-45.81-12.26c-5.47-1.46-9.35-6.25-9.65-11.91l-2.5-47.35c-.11-2.16-1.85-2.79-2.38-2.94-.53-.14-2.34-.46-3.53,1.35l-25.82,39.78c-3.08,4.75-8.83,6.96-14.31,5.5l-45.81-12.26c-2.1-.56-3.23.9-3.53,1.36-.3.46-1.17,2.09.2,3.77l29.85,36.84c3.57,4.4,3.89,10.55.81,15.31l-25.82,39.78c-1.18,1.82-.15,3.35.2,3.77.34.42,1.62,1.75,3.65.98l44.27-17.01c1.53-.59,3.12-.87,4.69-.87Z"/>
      <path d="M126.82,281.57c-1.44,0-2.91-.26-4.34-.79-5.05-1.87-8.18-6.56-7.96-11.95l1.94-47.38c.07-1.75-.99-3.34-2.63-3.95l-44.46-16.49c-5.05-1.88-8.18-6.57-7.96-11.95s3.72-9.8,8.91-11.26l45.66-12.79c1.69-.47,2.87-1.97,2.95-3.72l1.94-47.38c.22-5.38,3.72-9.8,8.91-11.26,5.19-1.46,10.48.5,13.46,4.99l26.28,39.47c.97,1.46,2.76,2.12,4.45,1.65l45.66-12.8c5.19-1.45,10.47.5,13.46,4.99,2.99,4.49,2.76,10.12-.59,14.35l-29.42,37.19c-1.09,1.38-1.17,3.28-.19,4.74l26.28,39.47c2.99,4.49,2.76,10.12-.59,14.35s-8.77,5.75-13.82,3.87l-44.46-16.49c-1.64-.61-3.48-.09-4.57,1.28l-29.42,37.19c-2.39,3.03-5.85,4.66-9.48,4.67ZM133.14,111.17c-.42,0-.75.08-.94.13-.53.15-2.25.8-2.34,2.96l-1.94,47.38c-.23,5.66-4.05,10.49-9.51,12.02l-45.66,12.79c-2.08.58-2.32,2.42-2.34,2.96-.02.55.06,2.39,2.09,3.15l44.46,16.49c5.31,1.97,8.73,7.1,8.49,12.76l-1.94,47.38c-.09,2.16,1.58,2.95,2.09,3.14.51.19,2.29.68,3.64-1.02l29.42-37.19c3.51-4.44,9.45-6.11,14.76-4.14l44.46,16.49c2.03.76,3.3-.59,3.64-1.02.34-.43,1.35-1.97.15-3.77l-26.28-39.47c-3.14-4.71-2.89-10.87.63-15.31l29.42-37.19c1.34-1.7.46-3.32.15-3.77-.3-.46-1.45-1.9-3.54-1.31l-45.66,12.8c-5.46,1.53-11.23-.61-14.37-5.33l-26.28-39.47c-.78-1.18-1.83-1.44-2.6-1.44Z"/>
    </g>
  </g>
</svg>