<?xml version="1.0" encoding="UTF-8"?>
<svg id="b" data-name="Finished icons" xmlns="http://www.w3.org/2000/svg" xmlns:xlink="http://www.w3.org/1999/xlink" viewBox="0 0 500 500">
  <defs>
    <style>
      .i {
        clip-path: url(#f);
      }

      .j {
        fill: #fff;
      }

      .k {
        clip-path: url(#h);
      }

      .l {
        fill: #d89f00;
      }

      .m {
        fill: #ffd150;
      }

      .n {
        clip-path: url(#g);
      }

      .o {
        clip-path: url(#d);
      }

      .p {
        clip-path: url(#e);
      }

      .q {
        fill: #ffc200;
      }

      .r {
        clip-path: url(#c);
      }
    </style>
    <clipPath id="c">
      <path class="q" d="M266.35,80.25l32.67,100.55c2.55,7.84,9.86,13.15,18.1,13.15h105.73c16.66,0,23.58,21.32,10.11,31.11l-85.54,62.15c-6.67,4.85-9.46,13.44-6.92,21.28l32.67,100.55c5.15,15.84-12.99,29.02-26.46,19.23l-85.54-62.15c-6.67-4.85-15.71-4.85-22.38,0l-85.54,62.15c-13.48,9.79-31.61-3.38-26.46-19.23l32.67-100.55c2.55-7.84-.24-16.44-6.92-21.28l-85.54-62.15c-13.48-9.79-6.55-31.11,10.11-31.11h105.73c8.25,0,15.56-5.31,18.1-13.15l32.67-100.55c5.15-15.84,27.56-15.84,32.71,0Z"/>
    </clipPath>
    <clipPath id="d">
      <polygon class="m" points="250 32.32 195.03 192.08 250 267.32 304.97 192.08 250 32.32"/>
    </clipPath>
    <clipPath id="e">
      <polygon class="m" points="26.06 196.09 194.96 192.13 250 267.32 161.64 296.89 26.06 196.09"/>
    </clipPath>
    <clipPath id="f">
      <polygon class="q" points="110.75 456.61 161.14 295.35 250 267.32 249.69 360.5 110.75 456.61"/>
    </clipPath>
    <clipPath id="g">
      <polygon class="m" points="473.93 196.06 305.03 192.12 250 267.32 338.37 296.88 473.93 196.06"/>
    </clipPath>
    <clipPath id="h">
      <polygon class="q" points="389.25 456.61 338.86 295.35 250 267.32 249.69 360.5 389.25 456.61"/>
    </clipPath>
  </defs>
  <g>
    <path class="q" d="M266.35,80.25l32.67,100.55c2.55,7.84,9.86,13.15,18.1,13.15h105.73c16.66,0,23.58,21.32,10.11,31.11l-85.54,62.15c-6.67,4.85-9.46,13.44-6.92,21.28l32.67,100.55c5.15,15.84-12.99,29.02-26.46,19.23l-85.54-62.15c-6.67-4.85-15.71-4.85-22.38,0l-85.54,62.15c-13.48,9.79-31.61-3.38-26.46-19.23l32.67-100.55c2.55-7.84-.24-16.44-6.92-21.28l-85.54-62.15c-13.48-9.79-6.55-31.11,10.11-31.11h105.73c8.25,0,15.56-5.31,18.1-13.15l32.67-100.55c5.15-15.84,27.56-15.84,32.71,0Z"/>
    <g class="r">
      <rect class="l" x="249.89" y="38.18" width="223.78" height="441.28"/>
      <g>
        <polygon class="m" points="250 32.32 195.03 192.08 250 267.32 304.97 192.08 250 32.32"/>
        <g class="o">
          <rect class="q" x="249.89" y="38.18" width="223.78" height="441.28"/>
        </g>
      </g>
      <g>
        <polygon class="m" points="26.06 196.09 194.96 192.13 250 267.32 161.64 296.89 26.06 196.09"/>
        <g class="p">
          <rect class="q" x="96.13" y="150.63" width="223.78" height="441.28" transform="translate(624.87 285.57) rotate(107.64)"/>
        </g>
      </g>
      <g>
        <polygon class="q" points="110.75 456.61 161.14 295.35 250 267.32 249.69 360.5 110.75 456.61"/>
        <g class="i">
          <rect class="l" x="223.12" y="119.76" width="223.78" height="441.28" transform="translate(266.87 -132.31) rotate(36.34)"/>
        </g>
      </g>
      <g>
        <polygon class="m" points="473.93 196.06 305.03 192.12 250 267.32 338.37 296.88 473.93 196.06"/>
        <g class="n">
          <rect class="q" x="180.1" y="150.62" width="223.78" height="441.28" transform="translate(557.24 -19.55) rotate(72.35)"/>
        </g>
      </g>
      <g>
        <polygon class="q" points="389.25 456.61 338.86 295.35 250 267.32 249.69 360.5 389.25 456.61"/>
        <g class="k">
          <rect class="l" x="53.1" y="119.76" width="223.78" height="441.28" transform="translate(499.61 516.83) rotate(143.66)"/>
        </g>
      </g>
    </g>
  </g>
  <rect x="351.28" y="346.27" width="9" height="18.39" transform="translate(-92.43 127.35) rotate(-18)"/>
  <path d="M143.17,436.14c-4.44,0-8.88-1.41-12.75-4.22-7.75-5.63-10.84-15.15-7.88-24.26l32.67-100.55c1.95-6.01-.17-12.54-5.28-16.25l-85.54-62.15c-7.75-5.63-10.84-15.15-7.88-24.26,2.96-9.11,11.06-14.99,20.63-14.99h105.73c6.32,0,11.87-4.04,13.83-10.04l32.67-100.55c2.96-9.11,11.06-14.99,20.63-14.99s17.68,5.88,20.63,14.99l32.67,100.55c1.95,6.01,7.51,10.04,13.83,10.04h105.73c9.58,0,17.68,5.88,20.63,14.99,2.96,9.11-.13,18.63-7.88,24.26l-85.54,62.15c-5.11,3.71-7.23,10.24-5.28,16.25l5.03,15.47-8.56,2.78-5.03-15.47c-3.16-9.73.28-20.3,8.55-26.31l85.54-62.15c5.5-4,5.99-9.95,4.61-14.2-1.38-4.24-5.27-8.77-12.08-8.77h-105.73c-10.23,0-19.22-6.54-22.38-16.26l-32.67-100.55c-2.1-6.47-7.62-8.77-12.08-8.77s-9.97,2.3-12.08,8.77l-32.67,100.55c-3.16,9.73-12.16,16.26-22.38,16.26h-105.73c-6.8,0-10.7,4.53-12.08,8.77-1.38,4.24-.89,10.2,4.61,14.2l85.54,62.15c8.27,6.01,11.71,16.59,8.55,26.31l-32.67,100.55c-2.1,6.47,1,11.57,4.61,14.2,3.61,2.62,9.42,4,14.92,0l85.54-62.15c8.28-6.01,19.4-6.01,27.67,0l85.54,62.15c5.5,4,11.32,2.62,14.92,0,3.61-2.62,6.71-7.73,4.61-14.2l-8.91-27.43,8.56-2.78,8.91,27.43c2.96,9.11-.13,18.63-7.88,24.26-7.75,5.63-17.76,5.63-25.51,0l-85.54-62.15c-5.11-3.71-11.98-3.71-17.09,0l-85.54,62.15c-3.87,2.81-8.31,4.22-12.75,4.22Z"/>
  <path class="j" d="M151.9,227.88h-3.84c-4.42,0-8-3.58-8-8s3.58-8,8-8h3.84c4.42,0,8,3.58,8,8s-3.58,8-8,8Z"/>
  <path class="j" d="M185.79,227.88h-3.19c-4.42,0-8-3.58-8-8s3.58-8,8-8h3.19c12.59,0,23.67-8.05,27.56-20.02l12.28-37.79c1.37-4.2,5.87-6.5,10.08-5.14,4.2,1.37,6.5,5.88,5.14,10.08l-12.28,37.79c-6.04,18.59-23.23,31.08-42.77,31.08Z"/>
</svg>