<?xml version="1.0" encoding="UTF-8"?>
<svg id="b" data-name="Finished icons" xmlns="http://www.w3.org/2000/svg" xmlns:xlink="http://www.w3.org/1999/xlink" viewBox="0 0 500 500">
  <defs>
    <style>
      .p {
        fill: #636160;
      }

      .q {
        clip-path: url(#i);
      }

      .r {
        clip-path: url(#k);
      }

      .s {
        clip-path: url(#m);
      }

      .t {
        clip-path: url(#f);
      }

      .u {
        clip-path: url(#j);
      }

      .v {
        fill: #fff;
      }

      .w {
        fill: none;
      }

      .x {
        clip-path: url(#h);
      }

      .y {
        fill: #c00;
      }

      .z {
        fill: #b4d2e7;
      }

      .aa {
        fill: #cbc7c5;
      }

      .ab {
        clip-path: url(#o);
      }

      .ac {
        clip-path: url(#n);
      }

      .ad {
        clip-path: url(#g);
      }

      .ae {
        fill: #b20000;
      }

      .af {
        clip-path: url(#l);
      }

      .ag {
        clip-path: url(#d);
      }

      .ah {
        clip-path: url(#e);
      }

      .ai {
        fill: #95b8ce;
      }

      .aj {
        clip-path: url(#c);
      }

      .ak {
        fill: #969391;
      }

      .al {
        fill: #afadac;
      }
    </style>
    <clipPath id="c">
      <path class="aa" d="M-80.83,420.18c0,10.49-8.5,18.99-18.99,18.99h-275.93l9.98-33.12,48.32-28.27-12.07-17.67,2.65-31.51,21.77-3.83-1.74-21.5,42.7-18.85-5.86-28.56,17.93-5.86-5.01-36.55,46.23-32.69-10.01-22.38-4.12-27.98,16.79-18.55-30.33-25.91-3.24-25.11H-99.82c10.49,0,18.99,8.5,18.99,18.99v340.36Z"/>
    </clipPath>
    <clipPath id="d">
      <rect class="y" x="75.72" y="143.33" width="150.18" height="181.99"/>
    </clipPath>
    <clipPath id="e">
      <rect class="y" x="63.1" y="110.2" width="175.43" height="33.13" rx="8.51" ry="8.51"/>
    </clipPath>
    <clipPath id="f">
      <path class="ak" d="M413.49,212.23h-44.5v-43.29h-34.45v43.29h-22.47v-16.79c0-17.08-26.67-17.08-26.67,0v16.79h-58.75v113.08h186.85c31.21,0,31.21-113.08,0-113.08Z"/>
    </clipPath>
    <clipPath id="g">
      <path class="z" d="M144.05,179.33c0-26.5,62.28-26.5,62.28,0v85.93s-62.28,0-62.28,0v-85.93Z"/>
    </clipPath>
    <clipPath id="h">
      <path class="z" d="M96.34,179.33c0-16.49,28.27-16.49,28.27,0v67.8s-28.27,0-28.27,0v-67.8Z"/>
    </clipPath>
    <clipPath id="i">
      <polygon class="ak" points="373.57 117.71 329.96 117.71 319.96 143.33 329.96 168.94 373.57 168.94 383.57 143.33 373.57 117.71"/>
    </clipPath>
    <clipPath id="j">
      <circle class="aa" cx="368.82" cy="339.01" r="50.8"/>
    </clipPath>
    <clipPath id="k">
      <circle class="ak" cx="368.82" cy="339.01" r="35.92"/>
    </clipPath>
    <clipPath id="l">
      <circle class="aa" cx="250" cy="339.01" r="50.8"/>
    </clipPath>
    <clipPath id="m">
      <circle class="ak" cx="250" cy="339.01" r="35.92"/>
    </clipPath>
    <clipPath id="n">
      <circle class="aa" cx="131.18" cy="339.01" r="50.8"/>
    </clipPath>
    <clipPath id="o">
      <circle class="ak" cx="131.18" cy="339.01" r="35.92"/>
    </clipPath>
  </defs>
  <g>
    <path class="aa" d="M-80.83,420.18c0,10.49-8.5,18.99-18.99,18.99h-275.93l9.98-33.12,48.32-28.27-12.07-17.67,2.65-31.51,21.77-3.83-1.74-21.5,42.7-18.85-5.86-28.56,17.93-5.86-5.01-36.55,46.23-32.69-10.01-22.38-4.12-27.98,16.79-18.55-30.33-25.91-3.24-25.11H-99.82c10.49,0,18.99,8.5,18.99,18.99v340.36Z"/>
    <g class="aj">
      <polygon class="ak" points="-354.91 491.07 -342.19 448.86 -280.6 412.83 -295.99 390.32 -292.61 350.16 -264.87 345.28 -267.09 317.89 -212.68 293.87 -220.14 257.47 -197.29 250 -203.67 203.43 -144.75 161.77 -157.51 133.25 -162.76 97.6 -141.37 73.95 -180.03 40.93 -184.16 8.93 20.93 8.93 20.93 491.07 -354.91 491.07"/>
    </g>
  </g>
  <g>
    <g>
      <g>
        <rect class="y" x="75.72" y="143.33" width="150.18" height="181.99"/>
        <g class="ag">
          <rect class="ae" x="147.14" y="48.01" width="109.55" height="399.06"/>
        </g>
      </g>
      <polyline class="w" points="75.72 301.21 75.72 143.33 225.9 143.33 225.9 325.31 75.72 325.31"/>
      <g>
        <rect class="y" x="63.1" y="110.2" width="175.43" height="33.13" rx="8.51" ry="8.51"/>
        <g class="ah">
          <rect class="ae" x="147.14" y="-15.47" width="109.55" height="399.06" transform="translate(385.97 -17.85) rotate(90)"/>
        </g>
      </g>
      <path class="w" d="M83.34,110.2h-11.74c-4.7,0-8.51,3.81-8.51,8.51v16.11c0,4.7,3.81,8.51,8.51,8.51h158.41c4.7,0,8.51-3.81,8.51-8.51v-16.11c0-4.7-3.81-8.51-8.51-8.51h-114.57"/>
      <rect class="p" x="63.65" y="325.31" width="373.25" height="27.39"/>
      <g>
        <path class="ak" d="M413.49,212.23h-44.5v-43.29h-34.45v43.29h-22.47v-16.79c0-17.08-26.67-17.08-26.67,0v16.79h-58.75v113.08h186.85c31.21,0,31.21-113.08,0-113.08Z"/>
        <g class="t">
          <rect class="p" x="217.81" y="264.33" width="233.45" height="59.21"/>
        </g>
      </g>
      <path class="w" d="M413.49,212.23h-44.5v-43.29h-34.45v43.29h-22.47v-16.79c0-17.08-26.67-17.08-26.67,0v16.79h-58.75v113.08h186.85c31.21,0,31.21-113.08,0-113.08Z"/>
      <g>
        <path class="z" d="M144.05,179.33c0-26.5,62.28-26.5,62.28,0v85.93s-62.28,0-62.28,0v-85.93Z"/>
        <g class="ad">
          <polygon class="ai" points="210.98 154.37 137.65 278.98 220.4 278.98 210.98 154.37"/>
        </g>
      </g>
      <g>
        <path class="z" d="M96.34,179.33c0-16.49,28.27-16.49,28.27,0v67.8s-28.27,0-28.27,0v-67.8Z"/>
        <g class="x">
          <polygon class="ai" points="128.1 143.33 89.15 282.57 169.13 261.37 128.1 143.33"/>
        </g>
      </g>
      <g>
        <polygon class="ak" points="373.57 117.71 329.96 117.71 319.96 143.33 329.96 168.94 373.57 168.94 383.57 143.33 373.57 117.71"/>
        <g class="q">
          <rect class="p" x="311.46" y="143.33" width="93.2" height="25.62"/>
        </g>
      </g>
    </g>
    <g>
      <polygon points="230.4 329.81 75.72 329.81 75.72 320.81 221.4 320.81 221.4 147.82 80.22 147.82 80.22 301.21 71.22 301.21 71.22 138.82 230.4 138.82 230.4 329.81"/>
      <path d="M230.02,147.82H71.61c-7.17,0-13.01-5.84-13.01-13.01v-16.11c0-7.17,5.84-13.01,13.01-13.01h11.74v9h-11.74c-2.21,0-4.01,1.8-4.01,4.01v16.11c0,2.21,1.8,4.01,4.01,4.01h158.41c2.21,0,4.01-1.8,4.01-4.01v-16.11c0-2.21-1.8-4.01-4.01-4.01h-114.57v-9h114.57c7.17,0,13.01,5.84,13.01,13.01v16.11c0,7.17-5.84,13.01-13.01,13.01Z"/>
      <rect x="92.18" y="105.7" width="10.6" height="9"/>
      <path d="M441.4,357.2H59.15v-36.39h382.25v36.39ZM68.15,348.2h364.25v-18.39H68.15v18.39Z"/>
      <path d="M413.49,329.81h-191.35v-122.08h58.75v-12.29c0-11.36,8.97-17.31,17.83-17.31s17.83,5.95,17.83,17.31v12.29h13.47v-43.29h43.45v43.29h40c19.28,0,27.91,30.66,27.91,61.04s-8.63,61.04-27.91,61.04ZM231.15,320.81h182.35c10.6,0,18.91-22.86,18.91-52.04s-8.31-52.04-18.91-52.04h-49v-43.29h-25.45v43.29h-31.47v-21.29c0-6.13-4.76-8.31-8.83-8.31s-8.83,2.18-8.83,8.31v21.29h-58.75v104.08Z"/>
      <rect x="271.14" y="259.83" width="16.02" height="9"/>
      <path d="M129.11,251.63h-37.27v-72.3c0-6.01,2.97-11.18,8.16-14.17,6.27-3.62,14.69-3.62,20.95,0,5.18,2.99,8.16,8.16,8.16,14.17v72.3ZM100.84,242.63h19.27v-63.3c0-2.83-1.23-4.98-3.66-6.38-3.46-2-8.49-2-11.95,0-2.43,1.4-3.66,3.55-3.66,6.38v63.3Z"/>
      <path d="M210.83,269.76h-71.28v-90.43c0-16.75,18.48-24.38,35.64-24.38s35.64,7.63,35.64,24.38v90.43ZM148.55,260.76h53.28v-81.43c0-4.49-2.51-8.19-7.45-10.99-4.91-2.79-11.9-4.38-19.19-4.38-13.24,0-26.64,5.28-26.64,15.38v81.43Z"/>
      <rect x="307.56" y="259.83" width="129.27" height="9"/>
      <path d="M376.64,173.45h-49.76l-11.76-30.12,11.76-30.12h49.76l11.76,30.12-11.76,30.12ZM333.03,164.45h37.46l8.24-21.12-8.24-21.12h-37.46l-8.24,21.12,8.24,21.12Z"/>
      <rect x="336.05" y="138.82" width="47.52" height="9"/>
      <g>
        <path class="v" d="M353.04,235.14h-18.99c-2.49,0-4.5-2.01-4.5-4.5s2.01-4.5,4.5-4.5h18.99c2.49,0,4.5,2.01,4.5,4.5s-2.01,4.5-4.5,4.5Z"/>
        <path class="v" d="M307.82,235.14h-57.55c-2.49,0-4.5-2.01-4.5-4.5s2.01-4.5,4.5-4.5h57.55c2.49,0,4.5,2.01,4.5,4.5s-2.01,4.5-4.5,4.5Z"/>
        <path class="v" d="M359.04,133.79h-18.99c-2.49,0-4.5-2.01-4.5-4.5s2.01-4.5,4.5-4.5h18.99c2.49,0,4.5,2.01,4.5,4.5s-2.01,4.5-4.5,4.5Z"/>
      </g>
    </g>
    <g>
      <g>
        <g>
          <g>
            <circle class="aa" cx="368.82" cy="339.01" r="50.8"/>
            <g class="u">
              <rect class="al" x="50.22" y="339.01" width="424.18" height="79.51"/>
            </g>
          </g>
          <g>
            <circle class="ak" cx="368.82" cy="339.01" r="35.92"/>
            <g class="r">
              <rect class="p" x="50.22" y="339.01" width="424.18" height="79.51"/>
            </g>
          </g>
        </g>
        <g>
          <g>
            <circle class="aa" cx="250" cy="339.01" r="50.8"/>
            <g class="af">
              <rect class="al" x="50.22" y="339.01" width="424.18" height="79.51"/>
            </g>
          </g>
          <g>
            <circle class="ak" cx="250" cy="339.01" r="35.92"/>
            <g class="s">
              <rect class="p" x="50.22" y="339.01" width="424.18" height="79.51"/>
            </g>
          </g>
        </g>
        <g>
          <g>
            <circle class="aa" cx="131.18" cy="339.01" r="50.8"/>
            <g class="ac">
              <rect class="al" x="50.22" y="339.01" width="424.18" height="79.51"/>
            </g>
          </g>
          <g>
            <circle class="ak" cx="131.18" cy="339.01" r="35.92"/>
            <g class="ab">
              <rect class="p" x="50.22" y="339.01" width="424.18" height="79.51"/>
            </g>
          </g>
        </g>
      </g>
      <g>
        <g>
          <path d="M368.82,394.3c-30.49,0-55.3-24.81-55.3-55.3s24.81-55.3,55.3-55.3,55.3,24.81,55.3,55.3-24.81,55.3-55.3,55.3ZM368.82,292.71c-25.53,0-46.3,20.77-46.3,46.3s20.77,46.3,46.3,46.3,46.3-20.77,46.3-46.3-20.77-46.3-46.3-46.3Z"/>
          <path d="M368.82,379.43c-22.29,0-40.42-18.13-40.42-40.42s18.13-40.42,40.42-40.42,40.42,18.13,40.42,40.42-18.13,40.42-40.42,40.42ZM368.82,307.59c-17.32,0-31.42,14.09-31.42,31.42s14.09,31.42,31.42,31.42,31.42-14.09,31.42-31.42-14.09-31.42-31.42-31.42Z"/>
        </g>
        <g>
          <path d="M250,394.3c-30.49,0-55.3-24.81-55.3-55.3s24.81-55.3,55.3-55.3,55.3,24.81,55.3,55.3-24.81,55.3-55.3,55.3ZM250,292.71c-25.53,0-46.3,20.77-46.3,46.3s20.77,46.3,46.3,46.3,46.3-20.77,46.3-46.3-20.77-46.3-46.3-46.3Z"/>
          <path d="M250,379.43c-22.29,0-40.42-18.13-40.42-40.42s18.13-40.42,40.42-40.42,40.42,18.13,40.42,40.42-18.13,40.42-40.42,40.42ZM250,307.59c-17.33,0-31.42,14.09-31.42,31.42s14.09,31.42,31.42,31.42,31.42-14.09,31.42-31.42-14.09-31.42-31.42-31.42Z"/>
        </g>
        <g>
          <path d="M131.18,394.3c-30.49,0-55.3-24.81-55.3-55.3s24.81-55.3,55.3-55.3,55.3,24.81,55.3,55.3-24.81,55.3-55.3,55.3ZM131.18,292.71c-25.53,0-46.3,20.77-46.3,46.3s20.77,46.3,46.3,46.3,46.3-20.77,46.3-46.3-20.77-46.3-46.3-46.3Z"/>
          <path d="M131.18,379.43c-22.29,0-40.42-18.13-40.42-40.42s18.13-40.42,40.42-40.42,40.42,18.13,40.42,40.42-18.13,40.42-40.42,40.42ZM131.18,307.59c-17.32,0-31.42,14.09-31.42,31.42s14.09,31.42,31.42,31.42,31.42-14.09,31.42-31.42-14.09-31.42-31.42-31.42Z"/>
        </g>
      </g>
      <g>
        <path class="aa" d="M249.01,321.23l-116.85,24.42c-10.95,2.29-13.75-11.12-2.8-13.4l116.85-24.42c10.38-2.17,13.18,11.24,2.8,13.4Z"/>
        <path class="aa" d="M369.78,321.23l-116.85,24.42c-10.95,2.29-13.75-11.12-2.8-13.4l116.85-24.42c10.38-2.17,13.18,11.24,2.8,13.4Z"/>
      </g>
      <g>
        <path d="M129.74,350.41c-3.63,0-6.84-1.33-9.08-3.83-2.56-2.87-3.41-6.92-2.21-10.58,1.36-4.14,5-7.12,9.99-8.16l116.85-24.42c7.91-1.65,13.38,3.18,14.51,8.56,1.12,5.38-1.95,12-9.87,13.65l-116.85,24.42c-1.14.24-2.26.36-3.34.36ZM248.41,312.09c-.39,0-.82.05-1.28.14l-116.85,24.42c-1.75.37-2.94,1.15-3.28,2.16-.2.62-.07,1.28.37,1.77.71.79,2.12,1.04,3.87.67l116.85-24.42c2.11-.44,3.2-1.56,2.9-3-.24-1.12-1.17-1.73-2.58-1.73Z"/>
        <path d="M250.51,350.41c-3.63,0-6.83-1.33-9.08-3.83-2.57-2.87-3.41-6.92-2.21-10.58,1.36-4.14,5-7.12,9.99-8.16l116.85-24.42c7.91-1.65,13.38,3.18,14.51,8.56,1.12,5.38-1.95,12-9.87,13.65l-116.85,24.42c-1.14.24-2.26.36-3.34.36ZM369.18,312.09c-.39,0-.82.05-1.28.14l-116.85,24.42c-1.75.37-2.94,1.15-3.28,2.16-.2.62-.07,1.28.37,1.77.71.79,2.11,1.04,3.87.67l116.85-24.42c2.11-.44,3.2-1.56,2.9-3-.24-1.12-1.17-1.73-2.58-1.73Z"/>
      </g>
    </g>
  </g>
</svg>