<?xml version="1.0" encoding="UTF-8"?>
<svg id="b" data-name="Finished icons" xmlns="http://www.w3.org/2000/svg" xmlns:xlink="http://www.w3.org/1999/xlink" viewBox="0 0 500 500">
  <defs>
    <style>
      .e {
        fill: #fff;
      }

      .f {
        fill: #f2f2f2;
      }

      .g {
        fill: #883677;
      }

      .h {
        fill: #ca61c3;
      }

      .i {
        clip-path: url(#d);
      }

      .j {
        fill: #ffc200;
      }

      .k {
        clip-path: url(#c);
      }
    </style>
    <clipPath id="c">
      <path class="e" d="M281.02,155.9c19.53-27.22,40.31-39.54,62.07-40.3l-21.27,46.64c38.89,56.19,69.91,113.87,78.25,175.83,0,0-20.1,30.52-44.98,26.64s-28.61-38.58-28.61-38.58l-41.51-33.93c-30.58,42.21,17.58,73.33-1.73,146.97H61.5s0-107.95,0-107.95l24.98-8.98c68.41-76.12,138.54-162.25,194.55-166.33Z"/>
    </clipPath>
    <clipPath id="d">
      <path class="h" d="M293.57,137.75l-14.4,18.43c-64.69,18.85-95.16,61.24-86.26,130.74,18.46,32.61,14.39,71.24-9.57,115.18-57.27,32.31-105.05,25.3-103.76-27.72,4.55-19.31,14.61-32.75,31.48-38.94-4.32-8.7-13.18-13.47-25.61-15.18,53.33-159.16,129.16-205.49,208.11-182.5Z"/>
    </clipPath>
  </defs>
  <g>
    <g>
      <path class="e" d="M281.02,155.9c19.53-27.22,40.31-39.54,62.07-40.3l-21.27,46.64c38.89,56.19,69.91,113.87,78.25,175.83,0,0-20.1,30.52-44.98,26.64s-28.61-38.58-28.61-38.58l-41.51-33.93c-30.58,42.21,17.58,73.33-1.73,146.97H61.5s0-107.95,0-107.95l24.98-8.98c68.41-76.12,138.54-162.25,194.55-166.33Z"/>
      <g class="k">
        <path class="f" d="M400.08,338.08s-29.62,28.36-41.83-7.6c-12.21-35.96-77.23-38.97-91.09-106.63-59.9,21.17-66.05,82.7-66.05,82.7-35.4,29.87-52.68,59.87-172.55,55.29l11.39,116.33,383.65-3.47-23.51-136.63Z"/>
      </g>
    </g>
    <g>
      <path class="h" d="M293.57,137.75l-14.4,18.43c-64.69,18.85-95.16,61.24-86.26,130.74,18.46,32.61,14.39,71.24-9.57,115.18-57.27,32.31-105.05,25.3-103.76-27.72,4.55-19.31,14.61-32.75,31.48-38.94-4.32-8.7-13.18-13.47-25.61-15.18,53.33-159.16,129.16-205.49,208.11-182.5Z"/>
      <g class="i">
        <path class="g" d="M400.08,338.08s-29.62,28.36-41.83-7.6c-12.21-35.96-77.23-38.97-91.09-106.63-59.9,21.17-66.05,82.7-66.05,82.7-35.4,29.87-52.68,59.87-172.55,55.29l11.39,116.33,383.65-3.47-23.51-136.63Z"/>
      </g>
    </g>
    <polygon class="j" points="353.55 206.6 329.84 171.25 435.01 93.6 353.55 206.6"/>
  </g>
  <g>
    <path d="M363.43,370.02c-7.34,0-17.62-1.94-25.17-7.22-5.64-3.94-9.12-9.33-10.09-15.59-2.69-17.47-8.29-26.58-20.66-33.61-16.12-9.15-43.99-28.49-49.5-55.21-2.92-14.13.84-28.21,11.15-41.84l7.18,5.43c-8.68,11.48-11.88,23.12-9.51,34.59,4.79,23.24,30.33,40.8,45.13,49.2,17.23,9.78,22.5,23.09,25.11,40.06.6,3.88,2.67,7.02,6.35,9.59,7.81,5.46,19.57,6.15,23.84,5.29l.85-.17c8-1.58,17.06-3.37,25.34-20.78,6.66-14.01-20.71-95.89-60.47-155-5.27-7.83-10.5-14.82-15.56-20.76l6.85-5.83c5.28,6.2,10.72,13.46,16.17,21.57,17.43,25.92,35.37,61.35,47.98,94.78,7.6,20.15,19.42,55.92,13.15,69.11-10.22,21.5-23.16,24.06-31.73,25.75l-.83.16c-1.51.3-3.43.47-5.6.47Z"/>
    <path d="M286.25,440.49l-8.6-2.66c8.49-27.48,3.2-57.61-1.48-84.2-4.9-27.87-9.12-51.94,6.21-62.8l5.2,7.35c-10.69,7.57-6.92,29.04-2.55,53.9,4.61,26.22,10.34,58.86,1.21,88.41Z"/>
    <path d="M62.48,335.6l-1.97-8.78c7.25-1.63,17.19-3.86,22.8-6.9l4.28,7.91c-6.2,3.36-15.04,5.5-25.11,7.76Z"/>
    <path d="M108.44,341.93c-3.25-10.63-10.4-14.94-22.48-13.57l-4.91-5.41c.29-1.36,7.32-33.76,26.79-72.89,18.04-36.25,50.58-85.06,103.16-111.7,43.42-22,85.57-6.55,87.34-5.88l-3.17,8.42c-.4-.15-40.31-14.68-80.1,5.48-50.38,25.53-81.74,72.65-99.17,107.68-14.28,28.71-21.79,54.13-24.65,65.06,13,.39,21.86,7.28,25.8,20.16l-8.61,2.63Z"/>
    <polygon points="355.32 209.27 348.07 203.93 416.93 110.54 332.6 176.02 327.08 168.92 437.07 83.5 443.45 89.73 355.32 209.27"/>
    <path d="M129.54,427.27c-3.07,0-6.05-.25-8.91-.76-25.63-4.61-36.56-16.55-41.22-25.76-6.6-13.03-5.66-29.54,2.65-46.5,7.66-15.64,27.18-23.9,44.44-18.8,16.43,4.85,24.79,19.85,22.37,40.12l-8.94-1.07c1.88-15.78-3.94-26.87-15.98-30.43-11.3-3.33-27.44,1.12-33.81,14.13-7.03,14.37-7.99,28.03-2.7,38.48,5.44,10.73,17.14,17.79,34.79,20.96,19.11,3.44,44.74-7.04,59.63-24.38,16.63-19.37,18.05-45.24,17.42-58.95-.42-9.02-3.37-18.89-6.48-29.33-9.07-30.38-20.37-68.19,19.83-116.72,13.52-16.33,29.92-27.15,50.13-33.06,2.07-.61,4.22-1.17,6.38-1.67,2.98-.69,6.07-1.29,9.23-1.79,16.35-24.78,38.99-38.54,67.31-40.93l4.32,6.65-32.67,59.4-7.89-4.34,28.39-51.62c-22.22,4.04-39.62,16.33-52.99,37.39l-3.17,2.04c-3.6.51-7.13,1.16-10.49,1.94-2,.47-3.98.98-5.89,1.54-18.43,5.4-33.39,15.26-45.73,30.17-37.12,44.83-27.03,78.6-18.13,108.4,3.28,10.99,6.38,21.37,6.85,31.49.7,15.04-.92,43.5-19.58,65.23-14.62,17.02-38.66,28.14-59.14,28.14Z"/>
    <circle cx="332.3" cy="233.11" r="9.27"/>
  </g>
</svg>