<?xml version="1.0" encoding="UTF-8"?>
<svg id="b" data-name="Finished icons" xmlns="http://www.w3.org/2000/svg" xmlns:xlink="http://www.w3.org/1999/xlink" viewBox="0 0 500 500">
  <defs>
    <style>
      .j {
        clip-path: url(#i);
      }

      .k {
        fill: #898989;
      }

      .l {
        fill: #68235e;
      }

      .m {
        clip-path: url(#f);
      }

      .n {
        fill: #723475;
      }

      .o {
        clip-path: url(#h);
      }

      .p {
        fill: #7a2a6b;
      }

      .q {
        fill: #883677;
      }

      .r {
        fill: #ddac9e;
      }

      .s {
        clip-path: url(#g);
      }

      .t {
        fill: #ca61c3;
      }

      .u {
        clip-path: url(#d);
      }

      .v {
        clip-path: url(#e);
      }

      .w {
        fill: #eabdac;
      }

      .x {
        fill: #a3a3a3;
      }

      .y {
        clip-path: url(#c);
      }

      .z {
        fill: #d1d1d1;
      }

      .aa {
        fill: #b5b5b5;
      }
    </style>
    <clipPath id="c">
      <path class="t" d="M355.95,325.64l1.11-14.38c0-4.57-1.81-8.95-5.04-12.18l-30.03-30.03h-143.97l-30.03,30.03c-3.23,3.23-5.04,7.61-5.04,12.18l.03,12.8-19.12,19.33c-3.23,3.23-5.04,7.61-5.04,12.18v83.59h262.37v-83.59c0-4.57-1.81-8.95-5.04-12.18l-20.2-17.75Z"/>
    </clipPath>
    <clipPath id="d">
      <path class="t" d="M177.07,183.1c2.2-21.36,7.26-41.09,16.02-58.72,1.53-3.08,3.61-5.87,6.11-8.23,35.81-33.8,79.71-49.47,128.01-55.27,1.6-.19,3.22.3,4.43,1.35,22.44,19.48,34.91,41.53,38.4,65.89.61,4.22-3.95,7.3-7.64,5.16-10.98-6.35-25.02-25.42-34.47-24.72,1.46,14.71-5.97,24.81-19.64,31.69,1.49,17.27,7.42,32.53,17.33,45.98"/>
    </clipPath>
    <clipPath id="e">
      <ellipse class="q" cx="250" cy="227.29" rx="151.09" ry="47.31"/>
    </clipPath>
    <clipPath id="f">
      <ellipse class="q" cx="250" cy="227.29" rx="151.09" ry="47.31"/>
    </clipPath>
    <clipPath id="g">
      <path class="w" d="M322.26,195.94c-.78,0-1.54.06-2.3.16-8.1-31.08-36.35-54.02-69.97-54.02s-61.87,22.94-69.97,54.02c-.75-.09-1.52-.16-2.3-.16-10.19,0-18.45,8.26-18.45,18.45s8.26,18.45,18.45,18.45c.78,0,1.54-.06,2.3-.16,8.1,31.08,36.35,54.02,69.97,54.02s61.87-22.94,69.97-54.02c.75.09,1.52.16,2.3.16,10.19,0,18.45-8.26,18.45-18.45s-8.26-18.45-18.45-18.45Z"/>
    </clipPath>
    <clipPath id="h">
      <path class="x" d="M249.89,237.92c-25.61,8.29-48.37,10.61-69.86-5.24-12.25,72.87,28.69,132.52,69.86,132.52,41.17,0,82.33-59.65,70.08-132.52-21.48,15.74-44.47,13.53-70.08,5.24Z"/>
    </clipPath>
    <clipPath id="i">
      <path class="aa" d="M202.69,243.07c-4.24,79.36,20.41,138.66,47.31,138.2,27.45-.47,53.55-58.66,47.31-138.2-17.74,2.89-32.55-.34-47.42-4.81-15.73,4.4-31.24,7.48-47.2,4.81Z"/>
    </clipPath>
  </defs>
  <g>
    <g>
      <path class="t" d="M355.95,325.64l1.11-14.38c0-4.57-1.81-8.95-5.04-12.18l-30.03-30.03h-143.97l-30.03,30.03c-3.23,3.23-5.04,7.61-5.04,12.18l.03,12.8-19.12,19.33c-3.23,3.23-5.04,7.61-5.04,12.18v83.59h262.37v-83.59c0-4.57-1.81-8.95-5.04-12.18l-20.2-17.75Z"/>
      <g class="y">
        <rect class="q" x="249.89" y="16.88" width="193.49" height="455.72"/>
        <rect class="n" x="245.34" y="381.28" width="9.09" height="57.89"/>
      </g>
    </g>
    <g>
      <path class="t" d="M177.07,183.1c2.2-21.36,7.26-41.09,16.02-58.72,1.53-3.08,3.61-5.87,6.11-8.23,35.81-33.8,79.71-49.47,128.01-55.27,1.6-.19,3.22.3,4.43,1.35,22.44,19.48,34.91,41.53,38.4,65.89.61,4.22-3.95,7.3-7.64,5.16-10.98-6.35-25.02-25.42-34.47-24.72,1.46,14.71-5.97,24.81-19.64,31.69,1.49,17.27,7.42,32.53,17.33,45.98"/>
      <g class="u">
        <path class="q" d="M330.35,58.27l113.04-41.39v455.72h-193.49V124.89c0-2.92.83-5.78,2.39-8.24,19.17-30.06,41.04-44.99,78.07-58.38Z"/>
      </g>
    </g>
    <g>
      <ellipse class="q" cx="250" cy="227.29" rx="151.09" ry="47.31"/>
      <g class="v">
        <rect class="p" x="249.89" y="33.28" width="193.49" height="426.72"/>
      </g>
    </g>
    <g>
      <ellipse class="q" cx="250" cy="227.29" rx="151.09" ry="47.31"/>
      <g class="m">
        <rect class="l" x="249.89" y="16.88" width="193.49" height="455.72"/>
        <g>
          <path class="w" d="M322.26,195.94c-.78,0-1.54.06-2.3.16-8.1-31.08-36.35-54.02-69.97-54.02s-61.87,22.94-69.97,54.02c-.75-.09-1.52-.16-2.3-.16-10.19,0-18.45,8.26-18.45,18.45s8.26,18.45,18.45,18.45c.78,0,1.54-.06,2.3-.16,8.1,31.08,36.35,54.02,69.97,54.02s61.87-22.94,69.97-54.02c.75.09,1.52.16,2.3.16,10.19,0,18.45-8.26,18.45-18.45s-8.26-18.45-18.45-18.45Z"/>
          <g class="s">
            <rect class="r" x="249.89" y="16.88" width="193.49" height="455.72"/>
          </g>
        </g>
        <g>
          <path class="k" d="M320.19,195.93c-4.79,2.91-7.73,8.04-8.47,15.78-13.55-6.4-18.75-14.42-18.75-30.65l23.15,3.54,4.06,11.33Z"/>
          <path class="x" d="M179.74,195.93c4.79,2.91,7.73,8.04,8.47,15.78,13.55-6.4,18.75-14.42,18.75-30.65l-23.15,3.54-4.06,11.33Z"/>
        </g>
      </g>
    </g>
    <g>
      <path class="x" d="M249.89,237.92c-25.61,8.29-48.37,10.61-69.86-5.24-12.25,72.87,28.69,132.52,69.86,132.52,41.17,0,82.33-59.65,70.08-132.52-21.48,15.74-44.47,13.53-70.08,5.24Z"/>
      <g class="o">
        <rect class="k" x="249.89" y="16.88" width="193.49" height="455.72"/>
      </g>
    </g>
    <g>
      <path class="aa" d="M202.69,243.07c-4.24,79.36,20.41,138.66,47.31,138.2,27.45-.47,53.55-58.66,47.31-138.2-17.74,2.89-32.55-.34-47.42-4.81-15.73,4.4-31.24,7.48-47.2,4.81Z"/>
      <g class="j">
        <rect class="x" x="249.89" y="16.88" width="193.49" height="455.72"/>
      </g>
    </g>
    <g>
      <ellipse class="aa" cx="271" cy="245.19" rx="7.68" ry="22.37" transform="translate(-57.12 406.11) rotate(-68.26)"/>
      <ellipse class="z" cx="229" cy="245.19" rx="22.37" ry="7.68" transform="translate(-74.52 102.25) rotate(-21.74)"/>
    </g>
  </g>
  <g>
    <g>
      <g>
        <polygon points="360.44 325.64 351.44 325.64 351.44 305.55 318.06 272.16 324.42 265.8 360.44 301.82 360.44 325.64"/>
        <polygon points="384.33 437.33 375.33 437.33 375.33 351.38 337.52 313.58 343.89 307.22 384.33 347.65 384.33 437.33"/>
      </g>
      <g>
        <polygon points="148.56 325.64 139.56 325.64 139.56 301.82 175.58 265.8 181.94 272.16 148.56 305.55 148.56 325.64"/>
        <polygon points="124.67 437.33 115.67 437.33 115.67 347.65 156.11 307.22 162.48 313.58 124.67 351.38 124.67 437.33"/>
      </g>
    </g>
    <path d="M321.52,237.64c-1.25,0-6.67-.62-6.72-.62l1.11-8.93c.91.11,4.96.53,5.66.56,7.53,0,13.71-6.17,13.71-13.76s-6.17-13.76-13.76-13.76c-.5,0-1.05.04-1.72.12l-3.92.49-1-3.82c-1.03-3.96-2.44-7.86-4.19-11.57l8.14-3.83c1.47,3.12,2.73,6.35,3.76,9.64,12.05.57,21.68,10.55,21.68,22.73s-10.21,22.76-22.76,22.76Z"/>
    <path d="M178.48,237.64c-12.55,0-22.76-10.21-22.76-22.76s9.63-22.17,21.68-22.73c1.04-3.33,2.32-6.59,3.81-9.74l8.14,3.85c-1.77,3.74-3.19,7.66-4.24,11.66l-1,3.82-3.92-.49c-.67-.08-1.21-.12-1.72-.12-7.59,0-13.76,6.17-13.76,13.76s6.17,13.76,13.76,13.76c.61-.02,4.35-.42,5.41-.56l1.11,8.93c-.05,0-5.27.62-6.52.62Z"/>
    <path d="M321.22,189.68c-10.43-14.15-16.49-30.23-18.01-47.79l-.26-3.04,2.72-1.37c12.77-6.43,18.17-14.97,16.98-26.9l-.46-4.59,4.6-.34c7.69-.56,15.55,6.75,23.89,14.49,3.91,3.63,9.78,9.08,13.82,11.15-3.16-23.96-15.6-45.44-37.04-63.94-53.91,6.4-95.72,24.91-127.74,56.56-9.31,17.24-15.01,37.03-17.42,60.46l-8.95-.92c2.56-24.9,8.71-45.97,18.78-64.42l.31-.57.46-.46c33.96-33.79,78.28-53.35,135.48-59.8l1.92-.22,1.48,1.24c25.84,21.73,40.05,47.52,42.23,76.65l.25,3.32-3.1,1.21c-8.38,3.27-17.23-4.95-26.61-13.65-3.95-3.66-8.92-8.28-12.83-10.61-.77,11.71-7.22,21.07-19.25,27.92,1.76,14.74,7.13,28.28,15.98,40.29l-7.24,5.34Z"/>
    <path d="M178.03,273.26c-51.38-8.73-82.06-25.78-82.06-45.62,0-14.85,16.23-27.78,46.95-37.4,28.66-8.98,66.69-13.92,107.07-13.92s78.41,4.94,107.07,13.92c30.71,9.62,46.95,22.55,46.95,37.4,0,19.82-30.65,36.87-82,45.61l-1.51-8.87c44.56-7.58,74.51-22.34,74.51-36.73,0-20.02-59.56-42.32-145.02-42.32s-145.02,22.3-145.02,42.32c0,14.4,29.96,29.17,74.56,36.75l-1.51,8.87Z"/>
    <path d="M212.06,352.7c-13.44-11.91-24.38-29.76-30.8-50.26-7.01-22.38-8.54-47.14-4.43-71.62l7.19-2.81c19.49,15.06,39.88,12.84,64.49,4.88h2.77c24.62,7.96,45.01,10.18,64.49-4.88l7.19,2.81c4.1,24.36,2.6,49.02-4.33,71.31-6.35,20.42-17.18,38.25-30.51,50.22l-6.01-6.7c21.04-18.89,38.79-58.61,33.01-106.28-21.6,13.16-44,9.24-65.22,2.51-21.22,6.73-43.62,10.65-65.22-2.51-5.83,47.96,12.1,87.75,33.35,106.58l-5.97,6.74Z"/>
    <g>
      <g>
        <ellipse class="z" cx="270.78" cy="245.37" rx="7.6" ry="22.14" transform="translate(-57.42 406.02) rotate(-68.26)"/>
        <path d="M284.54,260.69c-.46,0-.93-.01-1.43-.04-4.9-.24-10.87-1.68-16.81-4.05-5.94-2.37-11.26-5.43-14.98-8.63-6.31-5.42-6.36-9.78-5.28-12.47,1.07-2.69,4.09-5.82,12.41-5.42,4.9.24,10.87,1.68,16.81,4.05,12.32,4.91,23.36,13.34,20.27,21.1-1.01,2.54-3.75,5.45-10.98,5.45ZM255.16,239.14c1.68,2.13,6.49,5.92,14.47,9.11s14.09,3.73,16.77,3.35c-1.68-2.13-6.49-5.92-14.47-9.11-7.99-3.18-14.08-3.74-16.77-3.35Z"/>
      </g>
      <g>
        <ellipse class="z" cx="229.22" cy="245.37" rx="22.14" ry="7.6" transform="translate(-74.57 102.34) rotate(-21.74)"/>
        <path d="M215.46,260.69c-7.24,0-9.97-2.92-10.98-5.45-3.09-7.76,7.95-16.19,20.27-21.1,5.94-2.37,11.91-3.81,16.81-4.05,8.31-.42,11.34,2.72,12.41,5.42,1.08,2.69,1.03,7.05-5.28,12.47-3.72,3.2-9.04,6.26-14.99,8.63-5.94,2.37-11.91,3.81-16.81,4.05-.49.02-.97.04-1.43.04ZM213.6,251.6c2.69.38,8.78-.17,16.77-3.35,7.99-3.18,12.79-6.98,14.48-9.11-2.69-.38-8.78.17-16.77,3.35-7.99,3.18-12.79,6.98-14.47,9.11Z"/>
      </g>
    </g>
    <rect x="245.39" y="380.04" width="9" height="57.29"/>
    <path d="M250,384.54c-28.78,0-51.32-42.26-51.32-96.21h9c0,47.27,19.38,87.21,42.32,87.21s42.32-39.94,42.32-87.21h9c0,53.95-22.54,96.21-51.32,96.21Z"/>
    <g>
      <rect x="221.93" y="197.33" width="8.62" height="23.27" rx="3.14" ry="3.14"/>
      <rect x="269.45" y="197.33" width="8.62" height="23.27" rx="3.14" ry="3.14"/>
    </g>
    <g>
      <path d="M308.56,215.7c-15.1-6.85-20.98-16.07-20.98-32.89l5.15-4.45,22.65,3.33,3.56,2.88,3.97,10.64-1.95,5.46c-3.53,2.06-5.52,5.78-6.08,11.39l-6.34,3.65ZM296.82,188.05c.82,7.94,3.79,12.78,10.37,16.8,1.24-3.98,3.29-7.22,6.1-9.7l-1.85-4.95-14.62-2.15Z"/>
      <path d="M191.44,215.7l-6.34-3.65c-.56-5.6-2.55-9.33-6.08-11.39l-1.95-5.46,3.97-10.64,3.56-2.88,22.65-3.33,5.15,4.45c0,16.82-5.88,26.04-20.98,32.89ZM186.71,195.15c2.82,2.48,4.86,5.72,6.1,9.7,6.58-4.02,9.55-8.86,10.37-16.8l-14.62,2.15-1.85,4.95Z"/>
    </g>
    <g>
      <path class="x" d="M307.7,141.51c-5.96-7.41-14.5-12.37-25.63-14.87"/>
      <path d="M304.19,144.33c-5.27-6.56-13.05-11.04-23.11-13.3l1.97-8.78c12.1,2.72,21.57,8.25,28.15,16.44l-7.02,5.64Z"/>
    </g>
    <g>
      <path class="x" d="M327.13,110.15c-.16-6.95-3.21-12.17-7.66-16.55"/>
      <path d="M322.63,110.25c-.12-5.04-2.12-9.31-6.32-13.44l6.31-6.41c5.89,5.8,8.83,12.22,9,19.65l-9,.21Z"/>
    </g>
  </g>
</svg>